/* XPM */
static xpm_string_t player_two_hud_xpm[] = {
"152 80 4 1",
" 	c None",
".	c #00B140",
"+	c #FFFFFF",
"@	c #FCFEFC",
".++++++++++++++++......+++.................++++++++++++++++.....+++.............++....++++++++++++++...++++++++++++++++.............+++++++++++++++++++.",
"++++++++++++++++++.....+++.................++++++++++++++++.....+++.............+++...++++++++++++++...+++++++++++++++++............++++++++++++++++++++",
"++++++++++++++++++.....+++.................++++++++++++++++.....+++.............+++...++++++++++++++...+++++++++++++++++............................++++",
"+++............+++.....+++.................+++..........+++.....+++.............+++...+++..............+++...........+++.............................+++",
"+++............+++.....+++.................+++..........+++.....+++.............+++...+++..............+++...........+++.............................+++",
"+++............+++.....+++.................+++..........+++.....+++.............+++...+++..............+++...........+++.............................+++",
"+++............+++.....+++.................+++..........+++.....+++.............+++...+++..............+++...........+++.............................+++",
"+++............+++.....+++.................+++..........+++.....+++.............+++...+++..............+++...........+++.............................+++",
"+++............+++.....+++.................+++..........+++.....+++.............+++...+++..............+++...........+++.............................+++",
"+++............+++.....+++.................+++..........+++.....+++.............+++...+++..............+++...........+++............++++++++++++++++++++",
"++++++++++++++++++....++++................+++++++++++++++++.....+++++++++++++++++++...++++++++++++++...+++++++++++++++++++..........+++++++++++++++++++.",
"++++++++++++++++++....++++................+++++++++++++++++.....+++++++++++++++++++...++++++++++++++...+++++++++++++++++++..........+++++++++++++++++++.",
"+++++................+++++...............+++++..........++++++.........++++...........+++++............+++++...........+++..........+++.................",
"+++..................+++++...............+++++..........++++++.........++++...........+++++............+++++...........+++..........+++.................",
"+++..................+++++...............+++++..........++++++.........++++...........+++++............+++++...........+++..........+++.................",
"+++..................+++++...............+++++..........++++++.........++++...........+++++............+++++...........+++..........+++.................",
"+++..................+++++...............+++++..........++++++.........++++...........+++++............+++++...........+++..........+++.................",
"+++..................+++++...............+++++..........++++++.........++++...........+++++............+++++...........+++..........+++.................",
"+++..................+++++...............+++++..........++++++.........++++...........+++++............+++++...........+++..........+++.................",
"+++..................+++++...............+++++..........++++++.........++++...........+++++............+++++...........+++..........+++.................",
"+++..................+++++++++++++++++...+++++..........++++++.........++++...........++++++++++++++...+++++...........+++..........++++++++++++++++++++",
"+++..................+++++++++++++++++...+++++..........++++++.........++++...........++++++++++++++...+++++...........+++...........+++++++++++++++++++",
"........................................................................................................................................................",
"........................................................................................................................................................",
"........................................................................................................................................................",
"........................................................................................................................................................",
"........................................................................................................................................................",
"........................................................................................................................................................",
"........................................................................................................................................................",
"+++........................................................@@...........................................................................................",
"+++.......................................................+++...........................................................................................",
"+++.......................................................+++...........................................................................................",
"+++.......................................................+++...........................................................................................",
"+++.......................................................+++...........................................................................................",
"+++.....................................................++++++++........................................................................................",
"+++++++++++...++++++++++++..++++++++++++..++++++++++++..++++++++..++++++++++++..........................................................................",
"++++++++++++..++++++++++++..++++++++++++..++++++++++++..++++++++..++++++++++++..........................................................................",
"++++++++++++..++++++++++++..++++++++++++..++++++++++++....++++++..++++++++++++..........................................................................",
"++++.....+++..+++.......++..+++.......++..++.......+++....+++.....++.......+++..+++.....................................................................",
"++++.....+++..+++.......++..+++.......++..++..............+++.....++............+++.....................................................................",
"++++.....+++..+++......+++..+++......+++..++..............+++.....++............+++.....................................................................",
"++++.....+++..+++......+++..+++......+++..++++++++++++....+++.....++++++++++++..........................................................................",
"++++.....+++..+++.....++++..+++.....++++..++++++++++++....+++.....++++++++++++..........................................................................",
"++++.....+++..+++.....++++..+++.....++++..........++++....+++.............++++..+++.....................................................................",
"++++.....+++..+++.....++++..+++.....++++..........++++....+++.............++++..+++.....................................................................",
"++++.....+++..+++.....++++..+++.....++++..++......++++....+++.....++......++++..+++.....................................................................",
"+++++....+++..+++.....++++..+++.....++++..++......++++....+++++...++......++++..........................................................................",
"++++++++++++..++++++++++++..++++++++++++..++++++++++++....+++++...++++++++++++..........................................................................",
"++++++++++++..++++++++++++..++++++++++++..++++++++++++....@@@@@...++++++++++++..........................................................................",
"........................................................................................................................................................",
"........................................................................................................................................................",
"........................................................................................................................................................",
"........................................................................................................................................................",
"....................................................@@..................................................................................................",
"............................++.....................+++..................................................................................................",
"...........................+++.....................+++..................................................................................................",
"...........................+++.....................+++..................................................................................................",
"...................................................+++..................................................................................................",
".................................................++++++++...............................................................................................",
"++++++++++++..++++++++++++..++....+++++++++++++..++++++++..++++++++++++.................................................................................",
"++++++++++++..++++++++++++..++....+++++++++++++..++++++++..++++++++++++.................................................................................",
"+++.....++++..++++++++++++..++....+++++++++++++....++++++..++++++++++++.................................................................................",
"+++......+++..+++.......++..++....+++.......+++....+++.....++.......+++..+++............................................................................",
"+++......+++..+++.......++..++....+++.......+++....+++.....++............+++............................................................................",
"+++......+++..+++......+++..+++...+++.......+++....+++.....++............+++............................................................................",
"+++......+++..+++......+++..+++...+++.......+++....+++.....++++++++++++.................................................................................",
"+++......+++..+++.....++++..++++..++++......+++....+++.....++++++++++++.................................................................................",
"+++......+++..+++.....++++..++++..++++......+++....+++.............++++..+++............................................................................",
"+++......+++..+++.....++++..++++..++++......+++....+++.............++++..+++............................................................................",
"+++.....++++..+++.....++++..++++..++++......+++....+++.....++......++++..+++............................................................................",
"++++++++++++..+++.....++++..++++..++++......+++....+++++...++......++++.................................................................................",
"++++++++++++..++++++++++++..++++..++++......+++....+++++...++++++++++++.................................................................................",
"++++++++++++..++++++++++++..++++..++++......+++....@@@@@...++++++++++++.................................................................................",
"++++....................................................................................................................................................",
"++++....................................................................................................................................................",
"++++....................................................................................................................................................",
"++++....................................................................................................................................................",
"++++....................................................................................................................................................",
"++++....................................................................................................................................................",
"+++....................................................................................................................................................."};
