/* XPM */
static xpm_string_t player_one_hud_xpm[] = {
"139 80 4 1",
" 	c None",
".	c #00B140",
"+	c #FFFFFF",
"@	c #FCFEFC",
".++++++++++++++++......+++.................++++++++++++++++.....+++.............++....++++++++++++++...++++++++++++++++............++++++..",
"++++++++++++++++++.....+++.................++++++++++++++++.....+++.............+++...++++++++++++++...+++++++++++++++++...........++++++..",
"++++++++++++++++++.....+++.................++++++++++++++++.....+++.............+++...++++++++++++++...+++++++++++++++++...........++++++..",
"+++............+++.....+++.................+++..........+++.....+++.............+++...+++..............+++...........+++.............++++..",
"+++............+++.....+++.................+++..........+++.....+++.............+++...+++..............+++...........+++.............++++..",
"+++............+++.....+++.................+++..........+++.....+++.............+++...+++..............+++...........+++.............++++..",
"+++............+++.....+++.................+++..........+++.....+++.............+++...+++..............+++...........+++.............++++..",
"+++............+++.....+++.................+++..........+++.....+++.............+++...+++..............+++...........+++.............++++..",
"+++............+++.....+++.................+++..........+++.....+++.............+++...+++..............+++...........+++.............++++..",
"+++............+++.....+++.................+++..........+++.....+++.............+++...+++..............+++...........+++.............++++..",
"++++++++++++++++++....++++................+++++++++++++++++.....+++++++++++++++++++...++++++++++++++...+++++++++++++++++++...........++++..",
"++++++++++++++++++....++++................+++++++++++++++++.....+++++++++++++++++++...++++++++++++++...+++++++++++++++++++...........++++..",
"+++++................+++++...............+++++..........++++++.........++++...........+++++............+++++...........+++...........++++..",
"+++..................+++++...............+++++..........++++++.........++++...........+++++............+++++...........+++...........++++..",
"+++..................+++++...............+++++..........++++++.........++++...........+++++............+++++...........+++...........++++..",
"+++..................+++++...............+++++..........++++++.........++++...........+++++............+++++...........+++...........++++..",
"+++..................+++++...............+++++..........++++++.........++++...........+++++............+++++...........+++...........++++..",
"+++..................+++++...............+++++..........++++++.........++++...........+++++............+++++...........+++...........++++..",
"+++..................+++++...............+++++..........++++++.........++++...........+++++............+++++...........+++.........++++++++",
"+++..................+++++...............+++++..........++++++.........++++...........+++++............+++++...........+++.........++++++++",
"+++..................+++++++++++++++++...+++++..........++++++.........++++...........++++++++++++++...+++++...........+++.........++++++++",
"+++..................+++++++++++++++++...+++++..........++++++.........++++...........++++++++++++++...+++++...........+++.........++++++++",
"...........................................................................................................................................",
"...........................................................................................................................................",
"...........................................................................................................................................",
"...........................................................................................................................................",
"...........................................................................................................................................",
"...........................................................................................................................................",
"...........................................................................................................................................",
"+++........................................................@@..............................................................................",
"+++.......................................................+++..............................................................................",
"+++.......................................................+++..............................................................................",
"+++.......................................................+++..............................................................................",
"+++.......................................................+++..............................................................................",
"+++.....................................................++++++++...........................................................................",
"+++++++++++...++++++++++++..++++++++++++..++++++++++++..++++++++..++++++++++++.............................................................",
"++++++++++++..++++++++++++..++++++++++++..++++++++++++..++++++++..++++++++++++.............................................................",
"++++++++++++..++++++++++++..++++++++++++..++++++++++++....++++++..++++++++++++.............................................................",
"++++.....+++..+++.......++..+++.......++..++.......+++....+++.....++.......+++..+++........................................................",
"++++.....+++..+++.......++..+++.......++..++..............+++.....++............+++........................................................",
"++++.....+++..+++......+++..+++......+++..++..............+++.....++............+++........................................................",
"++++.....+++..+++......+++..+++......+++..++++++++++++....+++.....++++++++++++.............................................................",
"++++.....+++..+++.....++++..+++.....++++..++++++++++++....+++.....++++++++++++.............................................................",
"++++.....+++..+++.....++++..+++.....++++..........++++....+++.............++++..+++........................................................",
"++++.....+++..+++.....++++..+++.....++++..........++++....+++.............++++..+++........................................................",
"++++.....+++..+++.....++++..+++.....++++..++......++++....+++.....++......++++..+++........................................................",
"+++++....+++..+++.....++++..+++.....++++..++......++++....+++++...++......++++.............................................................",
"++++++++++++..++++++++++++..++++++++++++..++++++++++++....+++++...++++++++++++.............................................................",
"++++++++++++..++++++++++++..++++++++++++..++++++++++++....@@@@@...++++++++++++.............................................................",
"...........................................................................................................................................",
"...........................................................................................................................................",
"...........................................................................................................................................",
"...........................................................................................................................................",
"....................................................@@.....................................................................................",
"............................++.....................+++.....................................................................................",
"...........................+++.....................+++.....................................................................................",
"...........................+++.....................+++.....................................................................................",
"...................................................+++.....................................................................................",
".................................................++++++++..................................................................................",
"++++++++++++..++++++++++++..++....+++++++++++++..++++++++..++++++++++++....................................................................",
"++++++++++++..++++++++++++..++....+++++++++++++..++++++++..++++++++++++....................................................................",
"+++.....++++..++++++++++++..++....+++++++++++++....++++++..++++++++++++....................................................................",
"+++......+++..+++.......++..++....+++.......+++....+++.....++.......+++..+++...............................................................",
"+++......+++..+++.......++..++....+++.......+++....+++.....++............+++...............................................................",
"+++......+++..+++......+++..+++...+++.......+++....+++.....++............+++...............................................................",
"+++......+++..+++......+++..+++...+++.......+++....+++.....++++++++++++....................................................................",
"+++......+++..+++.....++++..++++..++++......+++....+++.....++++++++++++....................................................................",
"+++......+++..+++.....++++..++++..++++......+++....+++.............++++..+++...............................................................",
"+++......+++..+++.....++++..++++..++++......+++....+++.............++++..+++...............................................................",
"+++.....++++..+++.....++++..++++..++++......+++....+++.....++......++++..+++...............................................................",
"++++++++++++..+++.....++++..++++..++++......+++....+++++...++......++++....................................................................",
"++++++++++++..++++++++++++..++++..++++......+++....+++++...++++++++++++....................................................................",
"++++++++++++..++++++++++++..++++..++++......+++....@@@@@...++++++++++++....................................................................",
"++++.......................................................................................................................................",
"++++.......................................................................................................................................",
"++++.......................................................................................................................................",
"++++.......................................................................................................................................",
"++++.......................................................................................................................................",
"++++.......................................................................................................................................",
"+++........................................................................................................................................"};
