/* XPM */
static xpm_string_t a_xpm[] = {
"34 36 3 1",
" 	c None",
".	c #00B140",
"+	c #FFFFFF",
"....+++++++++++++++++++++++++.....",
"....++++++++++++++++++++++++++....",
"....++++++++++++++++++++++++++....",
"....++++++++++++++++++++++++++....",
"....++++++++++++++++++++++++++....",
"....++++.................+++++....",
"....++++.................+++++....",
"....++++.................+++++....",
"....++++.................+++++....",
"....++++.................+++++....",
"....++++.................+++++....",
"....++++.................+++++....",
"....++++.................+++++....",
"....++++.................+++++....",
"....++++.................+++++....",
"....++++.................+++++....",
"....++++.................+++++....",
".+++++++++++++++++++++++++++++....",
".+++++++++++++++++++++++++++++....",
".+++++++++++++++++++++++++++++++++",
"++++++++.................+++++++++",
"++++++++.................+++++++++",
"++++++++.................+++++++++",
"++++++++.................+++++++++",
"++++++++.................+++++++++",
"++++++++.................+++++++++",
"++++++++.................+++++++++",
"++++++++.................+++++++++",
"++++++++.................+++++++++",
"++++++++.................+++++++++",
"++++++++.................+++++++++",
"++++++++.................+++++++++",
"++++++++.................+++++++++",
"++++++++.................+++++++++",
"++++++++.................+++++++++",
"++++++++.................+++++++++"};
