/* XPM */
static xpm_string_t b_xpm[] = {
"30 36 4 1",
" 	c None",
".	c #00B140",
"+	c #FFFFFF",
"@	c #F4F9F4",
".+++++++++++++++++++++++++....",
"+++++++++++++++++++++++++++...",
"+++++++++++++++++++++++++++...",
"+++++++++++++++++++++++++++...",
"+++++++++++++++++++++++++++...",
"+++++.................+++++...",
"+++++.................+++++...",
"+++++.................+++++...",
"+++++.................+++++...",
"+++++.................+++++...",
"+++++.................+++++...",
"+++++.................+++++...",
"+++++.................+++++...",
"+++++.................+++++...",
"+++++.................+++++...",
"+++++.................+++++...",
"+++++.................+++++...",
"+++++++++++++++++++++++++++@@.",
"+++++++++++++++++++++++++++@@.",
"++++++++++++++++++++++++++++++",
"+++++++++.................++++",
"+++++++++.................++++",
"+++++++++.................++++",
"+++++++++.................++++",
"+++++++++.................++++",
"+++++++++.................++++",
"+++++++++.................++++",
"+++++++++.................++++",
"+++++++++.................++++",
"+++++++++.................++++",
"+++++++++.................++++",
"+++++++++.................++++",
"+++++++++.................++++",
"++++++++++++++++++++++++++++++",
"+++++++++++++++++++++++++++++.",
"+++++++++++++++++++++++++++++."};
