/* XPM */
static xpm_string_t d_xpm[] = {
"31 36 4 1",
" 	c None",
".	c #FFFFFF",
"+	c #FDFEFD",
"@	c #00B140",
"............................+@@",
"...............................",
"...............................",
"...............................",
"...............................",
"......@@@@@@@@@@@@@@@@@@@@.....",
"......@@@@@@@@@@@@@@@@@@@@.....",
"......@@@@@@@@@@@@@@@@@@@@.....",
"......@@@@@@@@@@@@@@@@@@@@.....",
"......@@@@@@@@@@@@@@@@@@@@.....",
"......@@@@@@@@@@@@@@@@@@@@.....",
"......@@@@@@@@@@@@@@@@@@@@.....",
"......@@@@@@@@@@@@@@@@@@@@.....",
"......@@@@@@@@@@@@@@@@@@@@.....",
"......@@@@@@@@@@@@@@@@@@@@.....",
"......@@@@@@@@@@@@@@@@@@@@.....",
".......@@@@@@@@@@@@@@@@@@@.....",
".......@@@@@@@@@@@@@@@@@@@.....",
".......@@@@@@@@@@@@@@@@@@@.....",
"........@@@@@@@@@@@@@@@@@@.....",
"........@@@@@@@@@@@@@@@@@@.....",
"........@@@@@@@@@@@@@@@@@@.....",
"........@@@@@@@@@@@@@@@@@@.....",
"........@@@@@@@@@@@@@@@@@@.....",
"........@@@@@@@@@@@@@@@@@@.....",
"........@@@@@@@@@@@@@@@@@@.....",
"........@@@@@@@@@@@@@@@@@@.....",
"........@@@@@@@@@@@@@@@@@@.....",
"........@@@@@@@@@@@@@@@@@@.....",
"........@@@@@@@@@@@@@@@@@@.....",
"........@@@@@@@@@@@@@@@@@@.....",
"........@@@@@@@@@@@@@@@@@@.....",
"........@@@@@@@@@@@@@@@@@@.....",
"...............................",
".............................@@",
".............................@@"};
