/* XPM */
static xpm_string_t e_xpm[] = {
"24 36 3 1",
" 	c None",
".	c #00B140",
"+	c #FFFFFF",
".+++++++++++++++++++++++",
"++++++++++++++++++++++++",
"++++++++++++++++++++++++",
"++++++++++++++++++++++++",
"++++++++++++++++++++++++",
"+++++...................",
"+++++...................",
"+++++...................",
"+++++...................",
"+++++...................",
"+++++...................",
"+++++...................",
"+++++...................",
"+++++...................",
"+++++...................",
"+++++...................",
"+++++...................",
"++++++++++++++++++++++++",
"++++++++++++++++++++++++",
"++++++++++++++++++++++++",
"++++++++................",
"++++++++................",
"++++++++................",
"++++++++................",
"++++++++................",
"++++++++................",
"++++++++................",
"++++++++................",
"++++++++................",
"++++++++................",
"++++++++................",
"++++++++................",
"++++++++................",
"++++++++++++++++++++++++",
"++++++++++++++++++++++++",
"++++++++++++++++++++++++"};
