/* XPM */
static xpm_string_t f_xpm[] = {
"23 36 3 1",
" 	c None",
".	c #00B140",
"+	c #FFFFFF",
"...++++++++++++++++++++",
"+++++++++++++++++++++++",
"+++++++++++++++++++++++",
"+++++++++++++++++++++++",
"+++++++++++++++++++++++",
"++++++.................",
"++++++.................",
"++++++.................",
"++++++.................",
"++++++.................",
"++++++.................",
"++++++.................",
"++++++.................",
"++++++.................",
"++++++.................",
"++++++.................",
"++++++.................",
"+++++++++++++++++++++++",
"+++++++++++++++++++++++",
"+++++++++++++++++++++++",
"++++++++...............",
"++++++++...............",
"++++++++...............",
"++++++++...............",
"++++++++...............",
"++++++++...............",
"++++++++...............",
"++++++++...............",
"++++++++...............",
"++++++++...............",
"++++++++...............",
"++++++++...............",
"++++++++...............",
"++++++++...............",
"++++++++...............",
"++++++++..............."};
