/* XPM */
static xpm_string_t g_xpm[] = {
"29 36 5 1",
" 	c None",
".	c #00B140",
"+	c #FFFFFF",
"@	c #BDDDC1",
"#	c #D5E9D8",
".++++++++++++++++++++++++++++",
"+++++++++++++++++++++++++++++",
"+++++++++++++++++++++++++++++",
"+++++++++++++++++++++++++++++",
"+++++++++++++++++++++++++++++",
"++++@....................++++",
"++++@....................++++",
"+++++....................++++",
"+++++....................++++",
"+++++....................++++",
"+++++........................",
"+++++........................",
"+++++........................",
"+++++........................",
"+++++........................",
"+++++........................",
"+++++++......................",
"+++++++......................",
"+++++++......................",
"+++++++..........++++++++++++",
"+++++++..........++++++++++++",
"+++++++..........++++++++++++",
"+++++++..........++++++++++++",
"+++++++..........++++++++++++",
"+++++++............++###+++++",
"+++++++..................++++",
"+++++++..................++++",
"+++++++..................++++",
"+++++++..................++++",
"+++++++..................++++",
"+++++++++................++++",
"+++++++++................++++",
"+++++++++................++++",
"+++++++++++++++++++++++++++++",
"+++++++++++++++++++++++++++++",
"+++++++++++++++++++++++++++++"};
