/* XPM */
static xpm_string_t i_xpm[] = {
"9 36 4 1",
" 	c None",
".	c #00B140",
"+	c #FFFFFF",
"@	c #EAF4EB",
"..+++....",
"+++++....",
"+++++....",
"+++++....",
"+++++....",
"+++++....",
"+++++....",
"+++++....",
"+++++....",
"+++++....",
"+++++....",
"+++++....",
"+++++....",
"+++++....",
"+++++....",
"+++++....",
"+++++....",
"+++++++..",
"+++++++..",
"+++++++@@",
"+++++++++",
"+++++++++",
"+++++++++",
"+++++++++",
"+++++++++",
"+++++++++",
"+++++++++",
"+++++++++",
"+++++++++",
"+++++++++",
"+++++++++",
"+++++++++",
"+++++++++",
"+++++++++",
"+++++++++",
"+++++++++"};
