/* XPM */
static xpm_string_t j_xpm[] = {
"26 36 4 1",
" 	c None",
".	c #00B140",
"+	c #FFFFFF",
"@	c #FDFEFD",
"......................+++.",
"....................++++++",
"....................++++++",
"....................++++++",
"....................++++++",
"....................++++++",
"....................++++++",
"....................++++++",
"....................@@++++",
"....................@@++++",
"....................++++++",
"....................++++++",
"....................@@++++",
"....................++++++",
"....................++++++",
"....................++++++",
"....................++++++",
"....................++++++",
"....................++++++",
"....................++++++",
"..................++++++++",
"..................++++++++",
"++................++++++++",
"++................++++++++",
"+++++.............++++++++",
"+++++.............++++++++",
"+++++.............++++++++",
"+++++.............++++++++",
"+++++.............++++++++",
"+++++.............++++++++",
"+++++.............++++++++",
"+++++.............++++++++",
"+++++.............++++++++",
"++++++++++++++++++++++++++",
".++++++++++++++++++++++++.",
".++++++++++++++++++++++++."};
