/* XPM */
static xpm_string_t k_xpm[] = {
"29 36 3 1",
" 	c None",
".	c #00B140",
"+	c #FFFFFF",
"....+++..................++++",
"....+++++...............+++++",
"....+++++...............+++++",
"....+++++...............+++++",
"....+++++...............+++++",
"....+++++...............+++++",
"....+++++...............+++++",
"....+++++...............+++++",
"....+++++...............+++++",
"....+++++...............+++++",
"....+++++...............+++++",
"....+++++...............+++++",
"....+++++...............+++++",
"....+++++...............+++++",
"....+++++...............+++++",
"....+++++...............+++++",
"...++++++...............++++.",
"...++++++++++++++++++++++....",
"...++++++++++++++++++++++....",
"+++++++++++++++++++++++++++++",
"+++++++++...............+++++",
"+++++++++...............+++++",
"+++++++++...............+++++",
"+++++++++...............+++++",
"+++++++++...............+++++",
"+++++++++...............+++++",
"+++++++++...............+++++",
"+++++++++...............+++++",
"+++++++++...............+++++",
"+++++++++...............+++++",
"+++++++++...............+++++",
"+++++++++...............+++++",
"+++++++++...............+++++",
"+++++++++...............+++++",
"+++++++++...............+++++",
"+++++++++...............+++++"};
