/* XPM */
static xpm_string_t l_xpm[] = {
"27 36 3 1",
" 	c None",
".	c #00B140",
"+	c #FFFFFF",
"...+++++...................",
"...+++++...................",
"...+++++...................",
"...+++++...................",
"...+++++...................",
"...+++++...................",
"...+++++...................",
"...+++++...................",
"...+++++...................",
"...+++++...................",
"...+++++...................",
"...+++++...................",
"...+++++...................",
"...+++++...................",
"...+++++...................",
"...+++++...................",
".+++++++...................",
".+++++++...................",
".+++++++...................",
".+++++++...................",
"++++++++...................",
"++++++++...................",
"++++++++...................",
"++++++++...................",
"++++++++...................",
"++++++++...................",
"++++++++...................",
"++++++++...................",
"++++++++...................",
"++++++++...................",
"++++++++...................",
"++++++++...................",
"++++++++...................",
"+++++++++++++++++++++++++++",
"+++++++++++++++++++++++++++",
"+++++++++++++++++++++++++++"};
