/* XPM */
static xpm_string_t m_xpm[] = {
"36 36 4 1",
" 	c None",
".	c #00B140",
"+	c #FFFFFF",
"@	c #A0D1A7",
"..+++++++++++++....++++++++++++++...",
"++++++++++++++++++++++++++++++++++++",
"++++++++++++++++++++++++++++++++++++",
"++++++++++++++++++++++++++++++++++++",
"++++++++++++++++++++++++++++++++++++",
"++++...........+++++@@@........+++++",
"++++...........+++++@@@........+++++",
"++++...........+++++...........+++++",
"++++...........+++++...........+++++",
"++++...........+++++...........+++++",
"++++...........+++++...........+++++",
"++++...........+++++...........+++++",
"++++...........+++++...........+++++",
"++++...........+++++...........+++++",
"++++...........+++++...........+++++",
"++++...........+++++...........+++++",
"++++...........+++++...........+++++",
"+++++++........+++++...........+++++",
"+++++++........+++++...........+++++",
"+++++++........+++++...........+++++",
"+++++++........+++++...........+++++",
"+++++++........+++++...........+++++",
"+++++++........+++++...........+++++",
"+++++++........+++++...........+++++",
"+++++++........+++++...........+++++",
"+++++++........+++++...........+++++",
"+++++++........+++++...........+++++",
"+++++++........+++++...........+++++",
"+++++++........+++++...........+++++",
"+++++++........+++++...........+++++",
"+++++++........+++++...........+++++",
"+++++++........+++++...........+++++",
"+++++++........+++++...........+++++",
"+++++++........+++++...........+++++",
"+++++++........+++++...........+++++",
"+++++++........+++++...........+++++"};
