/* XPM */
static xpm_string_t n_xpm[] = {
"31 36 3 1",
" 	c None",
".	c #FFFFFF",
"+	c #00B140",
".....+++++++++++++++++++++.....",
".......+++++++++++++++++++.....",
".......+++++++++++++++++++.....",
".......+++++++++++++++++++.....",
"........++++++++++++++++++.....",
".........+++++++++++++++++.....",
"..........++++++++++++++++.....",
"..........++++++++++++++++.....",
"....+......+++++++++++++++.....",
"....+......+++++++++++++++.....",
"....+........+++++++++++++.....",
"....+++......+++++++++++++.....",
"....++++......++++++++++++.....",
"....+++++......+++++++++++.....",
"....+++++.......++++++++++.....",
"....+++++.......++++++++++.....",
".....+++++......++++++++++.....",
".......++++......+++++++++.....",
".......++++++......+++++++.....",
"........+++++......+++++++.....",
"........++++++......++++++.....",
"........++++++......++++++.....",
"........+++++++......+++++.....",
"........++++++++......++++.....",
"........++++++++......++++.....",
"........+++++++++......+++.....",
"........+++++++++......+++.....",
"........+++++++++++......+.....",
"........++++++++++++...........",
"........++++++++++++...........",
"........+++++++++++++..........",
"........++++++++++++++.........",
"........++++++++++++++.........",
"........++++++++++++++.........",
"........+++++++++++++++........",
"........+++++++++++++++++......"};
