/* XPM */
static xpm_string_t o_xpm[] = {
"32 36 3 1",
" 	c None",
".	c #00B140",
"+	c #FFFFFF",
".++++++++++++++++++++++++++++...",
"++++++++++++++++++++++++++++++++",
"++++++++++++++++++++++++++++++++",
"++++++++++++++++++++++++++++++++",
"++++++++++++++++++++++++++++++++",
"+++++.....................++++++",
"+++++.....................++++++",
"+++++.....................++++++",
"+++++.....................++++++",
"+++++.....................++++++",
"+++++.....................++++++",
"+++++.....................++++++",
"+++++.....................++++++",
"+++++.....................++++++",
"+++++.....................++++++",
"+++++.....................++++++",
"+++++...................++++++++",
"+++++...................++++++++",
"+++++...................++++++++",
"+++++...................++++++++",
"+++++...................++++++++",
"+++++...................++++++++",
"+++++...................++++++++",
"+++++...................++++++++",
"+++++...................++++++++",
"+++++...................++++++++",
"+++++...................++++++++",
"+++++...................++++++++",
"+++++...................++++++++",
"+++++...................++++++++",
"+++++...................++++++++",
"+++++...................++++++++",
"+++++...................++++++++",
"++++++++++++++++++++++++++++++++",
"++++++++++++++++++++++++++++++++",
"++++++++++++++++++++++++++++++++"};
