/* XPM */
static xpm_string_t q_xpm[] = {
"30 41 4 1",
" 	c None",
".	c #00B140",
"+	c #FFFFFF",
"@	c #D5E9D8",
".++++++++++++++++++++++++++++.",
"++++++++++++++++++++++++++++++",
"++++++++++++++++++++++++++++++",
"++++++++++++++++++++++++++++++",
"++++++++++++++++++++++++++++++",
"+++++....................+++++",
"+++++....................+++++",
"+++++....................+++++",
"+++++....................+++++",
"+++++....................+++++",
"+++++....................+++++",
"+++++....................+++++",
"+++++....................+++++",
"+++++....................+++++",
"+++++....................+++++",
"+++++....................+++++",
"+++++....................+++++",
"+++++....................+++++",
"+++++....................+++++",
"+++++....................+++++",
"+++++....................+++++",
"+++++....................+++++",
"+++++....................+++++",
"+++++....................+++++",
"+++++....................+++++",
"+++++....................+++++",
"+++++....................+++++",
"+++++....................+++++",
"+++++.............++++++++++++",
"+++++..........@@+++++++++++++",
"++++++.........+++++++++++++++",
"++++++.........+++++++++++++++",
"++++++.........+++++++++++++++",
"++++++++++++++++++++++++++++++",
"++++++++++++++++++++++++++++++",
"++++++++++++++++++++++++++++++",
".................++++++++++...",
".................++++++++.....",
".................++++++++.....",
".................++++++++.....",
"..................+++++++....."};
