/* XPM */
static xpm_string_t s_xpm[] = {
"31 36 5 1",
" 	c None",
".	c #00B140",
"+	c #CAE3CD",
"@	c #FFFFFF",
"#	c #F4F9F4",
"..+@@@@@@@@@@@@@@@@@@@@@@@@@@..",
"..@@@@@@@@@@@@@@@@@@@@@@@@@@@@@",
"..@@@@@@@@@@@@@@@@@@@@@@@@@@@@@",
"..@@@@@@@@@@@@@@@@@@@@@@@@@@@@@",
"@@@@@@@@@@@@@@@@@@@@@@@@@@@@@@@",
"@@@@@@....................@@@@@",
"@@@@@@....................@@@@@",
"@@@@@@....................@@@@@",
"@@@@@@....................@@@@@",
"@@@@@@....................@@@@@",
"@@@@@@.........................",
"@@@@@@.........................",
"@@@@@@.........................",
"@@@@@@.........................",
"@@@@@@.........................",
"@@@@@@.........................",
"@@@@@@.........................",
"@@@@@@@@@@@@@@@@@@@@@@@@@@@@@@@",
"@@@@@@@@@@@@@@@@@@@@@@@@@@@@@@@",
"##@@@@@@@@@@@@@@@@@@@@@@@@@@@@@",
".......................@@@@@@@@",
".......................@@@@@@@@",
".......................@@@@@@@@",
".......................@@@@@@@@",
".......................@@@@@@@@",
".......................@@@@@@@@",
".......................@@@@@@@@",
".......................@@@@@@@@",
"@@@@@@.................@@@@@@@@",
"@@@@@@.................@@@@@@@@",
"@@@@@@.................@@@@@@@@",
"@@@@@@.................@@@@@@@@",
"@@@@@@.................@@@@@@@@",
"@@@@@@@@@@@@@@@@@@@@@@@@@@@@@@@",
"..@@@@@@@@@@@@@@@@@@@@@@@@@@@@@",
"..@@@@@@@@@@@@@@@@@@@@@@@@@@@@@"};
