/* XPM */
static xpm_string_t u_xpm[] = {
"29 36 3 1",
" 	c None",
".	c #FFFFFF",
"+	c #00B140",
"..+++++++++++++++++++++......",
"..+++++++++++++++++++++......",
"..+++++++++++++++++++++......",
"..+++++++++++++++++++++......",
"..+++++++++++++++++++++......",
"..+++++++++++++++++++++......",
"..+++++++++++++++++++++......",
"..+++++++++++++++++++++......",
"..+++++++++++++++++++++......",
"..+++++++++++++++++++++......",
"..+++++++++++++++++++++......",
"..+++++++++++++++++++++......",
"..+++++++++++++++++++++......",
"..+++++++++++++++++++++......",
"..+++++++++++++++++++++......",
"..+++++++++++++++++++++......",
"..+++++++++++++++++++++......",
".....++++++++++++++++++......",
".....++++++++++++++++++......",
"......+++++++++++++++++......",
"......+++++++++++++++++......",
"......+++++++++++++++++......",
"......+++++++++++++++++......",
"......+++++++++++++++++......",
"......+++++++++++++++++......",
"......+++++++++++++++++......",
"......+++++++++++++++++......",
"......+++++++++++++++++......",
"......+++++++++++++++++......",
"......+++++++++++++++++......",
"......+++++++++++++++++......",
"......+++++++++++++++++......",
".............................",
".............................",
".............................",
"............................."};
