/* XPM */
static xpm_string_t v_xpm[] = {
"31 36 3 1",
" 	c None",
".	c #FFFFFF",
"+	c #00B140",
".....+++++++++++++++++++++.....",
".....+++++++++++++++++++++.....",
"......+++++++++++++++++++.....+",
"......+++++++++++++++++++.....+",
"+.....+++++++++++++++++++.....+",
"+.....++++++++++++++++++......+",
"+......+++++++++++++++++.....++",
"++.....+++++++++++++++++.....++",
"++.....++++++++++++++++......++",
"++.....++++++++++++++++......++",
"++......+++++++++++++++.....+++",
"++++....+++++++++++++++.....+++",
"++++......++++++++++++......+++",
"+++++.....++++++++++++....+++++",
"+++++.....++++++++++......+++++",
"+++++.....++++++++++......+++++",
"+++++......+++++++++.....++++++",
"++++++.....+++++++++.....++++++",
"++++++.....++++++++......++++++",
"++++++......+++++++.....+++++++",
"+++++++.....+++++++.....+++++++",
"+++++++.....+++++++.....+++++++",
"+++++++.....++++++......+++++++",
"+++++++......+++++.....++++++++",
"++++++++.....+++++.....++++++++",
"++++++++......+++......++++++++",
"++++++++++....+++.....+++++++++",
"++++++++++....+++.....+++++++++",
"++++++++++....++......+++++++++",
"++++++++++..........+++++++++++",
"+++++++++++.........+++++++++++",
"+++++++++++.........+++++++++++",
"+++++++++++........++++++++++++",
"+++++++++++........++++++++++++",
"++++++++++++.......++++++++++++",
"++++++++++++.......++++++++++++"};
