/* XPM */
static xpm_string_t w_xpm[] = {
"36 36 3 1",
" 	c None",
".	c #FFFFFF",
"+	c #00B140",
"......++++++++++++...+++++++++++...+",
"......++++++++++.....+++++++++......",
"......++++++++++.....+++++++++......",
"......++++++++++.....+++++++++......",
"......++++++++++.....+++++++++......",
"......++++++++++.....+++++++++......",
"......++++++++++.....+++++++++......",
"......++++++++++.....+++++++++......",
"......++++++++++.....+++++++++......",
"......++++++++++.....+++++++++......",
"......++++++++++.....+++++++++......",
"......++++++++++.....+++++++++......",
"......++++++++++.....+++++++++......",
"......++++++++++.....+++++++++......",
"......++++++++++.....+++++++++......",
"......++++++++++.....+++++++++......",
"......++++++++++.....+++++++++......",
"......++++++++++.....+++++++++......",
"......++++++++++.....+++++++++......",
"........++++++++.....+++++++++......",
"........++++++++.....+++++++++......",
"........++++++++.....+++++++++......",
"..........++++++.....+++++++++......",
"..........++++++.....+++++++++......",
"..........++++++.....+++++++++......",
"..........++++++.....+++++++++......",
"..........++++++.....+++++++++......",
"..........++++++.....+++++++++......",
"..........++++++.....+++++++++......",
"..........++++++.....+++++++++......",
"..........++++++.......+++++++......",
"..........++++++.......+++++++......",
"....................................",
"....................................",
"...................................+",
"...................................+"};
