/* XPM */
static xpm_string_t x_xpm[] = {
"32 36 3 1",
" 	c None",
".	c #FFFFFF",
"+	c #00B140",
"....+++++++++++++++++++++.......",
"....+++++++++++++++++++++.......",
"....+++++++++++++++++++++.......",
"....+++++++++++++++++++++.......",
"....+++++++++++++++++++++.......",
"....+++++++++++++++++++++.......",
"......++++++++++++++++++........",
".......+++++++++++++++++.......+",
"++......++++++++++++++........++",
"++......++++++++++++++........++",
"+++.......+++++++++++......+++++",
"++++........++++++++......++++++",
"++++++.......++++++......+++++++",
"+++++++.......++........++++++++",
"++++++++..............++++++++++",
"++++++++..............++++++++++",
"++++++++++...........+++++++++++",
"++++++++++++........++++++++++++",
"++++++++++++........++++++++++++",
"++++++++++...........+++++++++++",
"+++++++++...............++++++++",
"+++++++++...............++++++++",
"++++++++.......+++.......+++++++",
"+++++++.......+++++.......++++++",
"++++++.......+++++++.......+++++",
"++++........+++++++++.......++++",
"+++.......++++++++++++.........+",
"+++.......++++++++++++.........+",
"++.......+++++++++++++++........",
"+.......++++++++++++++++++......",
"........++++++++++++++++++......",
"........+++++++++++++++++++.....",
"........+++++++++++++++++++.....",
"........+++++++++++++++++++.....",
"........+++++++++++++++++++.....",
"........+++++++++++++++++++....."};
