/* XPM */
static xpm_string_t y_xpm[] = {
"30 36 4 1",
" 	c None",
".	c #FFFFFF",
"+	c #00B140",
"@	c #FDFEFD",
".....++++++++++++++++++++....+",
".....++++++++++++++++++++.....",
".....++++++++++++++++++++.....",
".....++++++++++++++++++++.....",
".....++++++++++++++++++++.....",
".....++++++++++++++++++++.....",
".....++++++++++++++++++++.....",
".....++++++++++++++++++++.....",
".....++++++++++++++++++++.....",
".....++++++++++++++++++++.....",
".....++++++++++++++++++++.....",
".....++++++++++++++++++++.....",
".....++++++++++++++++++++.....",
".....++++++++++++++++++++.....",
".....++++++++++++++++++++.....",
".....++++++++++++++++++++.....",
"..............................",
"..............................",
"..............................",
"+@@......@........@@@@.....@@+",
"+++++++++++.......++++++++++++",
"+++++++++++.......++++++++++++",
"+++++++++++.......++++++++++++",
"+++++++++++.......++++++++++++",
"+++++++++++.......++++++++++++",
"+++++++++++.......++++++++++++",
"+++++++++++.......++++++++++++",
"+++++++++++.......++++++++++++",
"+++++++++++.......++++++++++++",
"+++++++++++.......++++++++++++",
"+++++++++++.......++++++++++++",
"+++++++++++.......++++++++++++",
"+++++++++++.......++++++++++++",
"+++++++++++.......++++++++++++",
"+++++++++++.......++++++++++++",
"+++++++++++.......++++++++++++"};
