/* XPM */
static xpm_string_t coin3_xpm[] = {
"30 30 52 1",
" 	c None",
".	c #000000",
"+	c #FFFDD6",
"@	c #FFFEDE",
"#	c #C99928",
"$	c #FFFCCB",
"%	c #2D2D27",
"&	c #010101",
"*	c #FFFEDD",
"=	c #FFEF64",
"-	c #FFFBC4",
";	c #FFEB4B",
">	c #272722",
",	c #FFEC4C",
"'	c #FFF9B7",
")	c #FFFEDC",
"!	c #FFFED8",
"~	c #FFF178",
"{	c #FFFEDB",
"]	c #FFFCCE",
"^	c #070706",
"/	c #FFEC50",
"(	c #0C0C0B",
"_	c #FFFED7",
":	c #FFFBC6",
"<	c #FFEC4E",
"[	c #FFF490",
"}	c #FFFDD1",
"|	c #FFEE5C",
"1	c #FFFEDA",
"2	c #10100E",
"3	c #FFFCCD",
"4	c #FFEB4C",
"5	c #FFF27B",
"6	c #FFEC53",
"7	c #080807",
"8	c #FFEC4F",
"9	c #0D0D0B",
"0	c #FFEC4D",
"a	c #FFFDD7",
"b	c #FFFDD0",
"c	c #FFFDD5",
"d	c #0A0A09",
"e	c #FFFDD3",
"f	c #020202",
"g	c #FFFED9",
"h	c #FFF27D",
"i	c #FFFCCA",
"j	c #CC9D2A",
"k	c #CA9A28",
"l	c #010100",
"m	c #D1A52D",
"                              ",
"             ......           ",
"            .+@@.##.          ",
"           .$@@@@%##.         ",
"          &@@@@@@*.=.         ",
"         .-@;;;@@@>;,.        ",
"         .;;...;@@'.=.        ",
"        .;;.)!~.;@@.;;.       ",
"        .;.{@@]^;/).;;.       ",
"        .;(_@@@:.;@.;<.       ",
"        ..[*@@@}^;,;.|.       ",
"        ..;;;@@12;;;.@@.      ",
"        ..;;;;!@3.4;&@@.      ",
"        ..;;;;5@@.;67@@.      ",
"        ..;;;;/)).;89@@.      ",
"        ..;;;;0ab7;<9@@.      ",
"        ..;;;;0}c.;0d@@.      ",
"        ..;;;;;e@.;;f@*.      ",
"        ..;;;;;g@.;;.@}.      ",
"        ..##;;;;;.;hf@i&      ",
"        .;.jk##;;.;;.;..      ",
"        .;.#####.;;.;;.       ",
"        .;;l####.;;.;;.       ",
"        ..;.m##.;;;.;;.       ",
"         .;;.##.;;;.#..       ",
"          .#;..;##.##.        ",
"          .##;;##.##.         ",
"           .####.##.          ",
"            ........          ",
"                              "};
