/* XPM */
static xpm_string_t  coin1_xpm[] = {
"30 30 5 1",
" 	c None",
".	c #000000",
"+	c #FFFEDE",
"@	c #FFEB4B",
"#	c #C99928",
"                              ",
"          ..........          ",
"        ..++++++++++.         ",
"       .+++++++++++++.        ",
"      .++++@@@@@@@++++.       ",
"     .+++@@.......@@+++.      ",
"    .+++@@.@@@@@@@.@@+++.     ",
"   .+++@@.@@+++++@@.@@+++.    ",
"   .++@@.@@+++++++@@.@@++.    ",
"  .++@@.@@+++++++++@@.@@++.   ",
"  .++@@.@+++++++++++@.@@++.   ",
"  .+@@.@@++++@@@++++@@.@@+.   ",
"  .@@@.@++@@@@@@@@@++@.@@@.   ",
"  .@@@.@@@@@@@@@@@@@@@.@@@.   ",
"  .@@@.@@@@@@@@@@@@@@@.@@@.   ",
"  .@@@.@@@@@@@@@@@@@@@.@@@.   ",
"  .@@@.@@@@@@@@@@@@@@@.@@@.   ",
"  .@@@.@@@@@@@@@@@@@@@.@@@.   ",
"  .@@@.@####@@@@@####@.@@@.   ",
"  .@@@@.@###########@.@@@@.   ",
"  .@@@@.@###########@.@@@@.   ",
"   .@@@@.@#########@.@@@@..   ",
"   ..##@@.@#######@.@@##@.    ",
"    .###@@.@@@@@@@.@@###.     ",
"     .###@@.......@@###.      ",
"      .###@@@@@@@@@###.       ",
"       ..############.        ",
"         .#########..         ",
"         ..........           ",
"                              "};
