/* XPM */
static xpm_string_t coin5_xpm[] = {
"30 30 52 1",
" 	c None",
".	c #000000",
"+	c #C99928",
"@	c #FFFEDE",
"#	c #FFFDD6",
"$	c #2D2D27",
"%	c #FFFCCB",
"&	c #FFEF64",
"*	c #FFFEDD",
"=	c #010101",
"-	c #FFEC4C",
";	c #FFEB4B",
">	c #272722",
",	c #FFFBC4",
"'	c #FFF9B7",
")	c #FFF178",
"!	c #FFFED8",
"~	c #FFFEDC",
"{	c #FFEC50",
"]	c #070706",
"^	c #FFFCCE",
"/	c #FFFEDB",
"(	c #FFEC4E",
"_	c #FFFBC6",
":	c #FFFED7",
"<	c #0C0C0B",
"[	c #FFEE5C",
"}	c #FFFDD1",
"|	c #FFF490",
"1	c #10100E",
"2	c #FFFEDA",
"3	c #FFEB4C",
"4	c #FFFCCD",
"5	c #080807",
"6	c #FFEC53",
"7	c #FFF27B",
"8	c #0D0D0B",
"9	c #FFEC4F",
"0	c #FFFDD0",
"a	c #FFFDD7",
"b	c #FFEC4D",
"c	c #0A0A09",
"d	c #FFFDD5",
"e	c #020202",
"f	c #FFFDD3",
"g	c #FFFED9",
"h	c #FFFCCA",
"i	c #FFF27D",
"j	c #CA9A28",
"k	c #CC9D2A",
"l	c #010100",
"m	c #D1A52D",
"                              ",
"           ......             ",
"          .++.@@#.            ",
"         .++$@@@@%.           ",
"         .&.*@@@@@@=          ",
"        .-;>@@@;;;@,.         ",
"        .&.'@@;...;;.         ",
"       .;;.@@;.)!~.;;.        ",
"       .;;.~{;]^@@/.;.        ",
"       .(;.@;._@@@:<;.        ",
"       .[.;-;]}@@@*|..        ",
"      .@@.;;;12@@;;;..        ",
"      .@@=;3.4@!;;;;..        ",
"      .@@56;.@@7;;;;..        ",
"      .@@89;.~~{;;;;..        ",
"      .@@8(;50ab;;;;..        ",
"      .@@cb;.d}b;;;;..        ",
"      .*@e;;.@f;;;;;..        ",
"      .}@.;;.@g;;;;;..        ",
"      =h@ei;.;;;;;++..        ",
"      ..;.;;.;;++jk.;.        ",
"       .;;.;;.+++++.;.        ",
"       .;;.;;.++++l;;.        ",
"       .;;.;;;.++m.;..        ",
"       ..+.;;;.++.;;.         ",
"        .++.++;..;+.          ",
"         .++.++;;++.          ",
"          .++.++++.           ",
"          ........            ",
"                              "};
