/* XPM */
static xpm_string_t coin4_xpm[] = {
"30 30 6 1",
" 	c None",
".	c #000000",
"+	c #040403",
"@	c #C99928",
"#	c #FFEB4B",
"$	c #FFFEDE",
"                              ",
"           ....+..            ",
"           .@@@@@.            ",
"           .#@@@#.            ",
"           .#####.            ",
"           .#####.            ",
"           .$###$.            ",
"           .$###$.            ",
"           .$$$$$.            ",
"           .$$$$$.            ",
"           .$$$$$.            ",
"           .$$$$$.            ",
"           .$$$$$.            ",
"           .$$$$$.            ",
"           .$$$$$.            ",
"           .#$$$#.            ",
"           .#$$$#.            ",
"           .#####.            ",
"           .#####.            ",
"           .#####.            ",
"           .@###@.            ",
"           .@###@.            ",
"           .@@@@@.            ",
"           .@@@@@.            ",
"           .@@@@@.            ",
"           .@@@@@.            ",
"           .@@@@@.            ",
"           .@@@@@.            ",
"           .......            ",
"                              "};
