/* XPM */
static xpm_string_t exit_highlight_xpm[] = {
"101 30 93 2",
"  	c None",
". 	c #00B140",
"+ 	c #007372",
"@ 	c #00C9C1",
"# 	c #00B3AC",
"$ 	c #009992",
"% 	c #008B84",
"& 	c #008A83",
"* 	c #008C85",
"= 	c #008982",
"- 	c #006D68",
"; 	c #009891",
"> 	c #00292A",
", 	c #008280",
"' 	c #00A9A2",
") 	c #007B75",
"! 	c #00433E",
"~ 	c #004847",
"{ 	c #00C8C0",
"] 	c #007C76",
"^ 	c #013D3D",
"/ 	c #00746E",
"( 	c #686868",
"_ 	c #006B66",
": 	c #00C7BF",
"< 	c #00655F",
"[ 	c #001D1D",
"} 	c #00C6BF",
"| 	c #005F59",
"1 	c #005E58",
"2 	c #002220",
"3 	c #003635",
"4 	c #00C6BE",
"5 	c #005954",
"6 	c #002727",
"7 	c #002E2C",
"8 	c #00544F",
"9 	c #00534D",
"0 	c #002726",
"a 	c #003231",
"b 	c #00514B",
"c 	c #00524C",
"d 	c #004C47",
"e 	c #004B47",
"f 	c #003634",
"g 	c #00C5BD",
"h 	c #004A46",
"i 	c #004A45",
"j 	c #002E2D",
"k 	c #00C4BC",
"l 	c #004944",
"m 	c #002B2A",
"n 	c #006460",
"o 	c #006F69",
"p 	c #00625E",
"q 	c #00312F",
"r 	c #00B5AE",
"s 	c #00867F",
"t 	c #006C67",
"u 	c #00312D",
"v 	c #003A36",
"w 	c #005D59",
"x 	c #00A59E",
"y 	c #003530",
"z 	c #003935",
"A 	c #00908A",
"B 	c #00BCB5",
"C 	c #00ADA6",
"D 	c #00342F",
"E 	c #00AAA3",
"F 	c #00B7B0",
"G 	c #003631",
"H 	c #003D38",
"I 	c #00B0A9",
"J 	c #009A94",
"K 	c #00AAA4",
"L 	c #00423D",
"M 	c #003F3A",
"N 	c #00928C",
"O 	c #00ACA5",
"P 	c #00827D",
"Q 	c #009691",
"R 	c #007773",
"S 	c #004E4B",
"T 	c #007370",
"U 	c #00B4AD",
"V 	c #00ABA4",
"W 	c #00B3AB",
"X 	c #00B2AB",
"Y 	c #00B1AA",
"Z 	c #00AFA8",
"` 	c #00AEA7",
" .	c #002221",
". . . . . . . . . . . . . . . . + @ # $ % & & % & * & % = = % = = = & & = & = & % % % & % & & & & * & & * = % & % % - - % & % % % = & % = * = & & = & = & % % % & ; # @ > . . . . . . . . . . . . . . . . ",
". . . . . . . . . . . . . . . , ' ) ! ! ! ! ! ! ! ! ! ! ! ! ! ! ! ! ! ! ! ! ! ! ! ! ! ! ! ! ! ! ! ! ! ! ! ! ! ! ! ! ! ! ! ! ! ! ! ! ! ! ! ! ! ! ! ! ! ! ! ! ! ! ! ! ! - ' ~ . . . . . . . . . . . . . . . ",
". . . . . . . . . . . . . . { = ! ! ! ! ! ! ! ! ! ! ! ! ! ! ! ! ! ! ! ! ! ! ! ! ! ! ! ! ! ! ! ! ! ! ! ! ! ! ! ! ! ! ! ! ! ! ! ! ! ! ! ! ! ! ! ! ! ! ! ! ! ! ! ! ! ! ! ! ! = { . . . . . . . . . . . . . . ",
". . . . . . . . . . . . . { ] ! ! ! ! ! ! ! ! ! ! ! ! ! ! ! ! ! ! ! ! ! ! ! ! ! ! ! ! ! ! ! ! ! ! ! ! ! ! ! ! ! ! ! ! ! ! ! ! ! ! ! ! ! ! ! ! ! ! ! ! ! ! ! ! ! ! ! ! ! ! ! ) { . . . . . . . . . . . . . ",
". . . . . . . . . . . ^ { / ! ! ! ! ! ! ! ! ! ( ( ( ( ( ( ( ( ( ( ( ! ! ! ( ( ! ! ! ! ! ! ! ! ! ! ! ! ! ( ( ! ! ! ! ( ! ! ! ( ( ( ( ( ( ( ( ( ( ( ( ( ( ( ( ! ! ! ! ! ! ! ! ! / { . . . . . . . . . . . . ",
". . . . . . . . . . . { _ ! ! ! ! ! ! ! ! ! ( ( ( ( ( ( ( ( ( ( ( ( ! ! ! ( ( ! ! ! ! ! ! ! ! ! ! ! ! ( ( ( ( ! ! ( ( ( ! ! ( ( ( ( ( ( ( ( ( ( ( ( ( ( ( ( ( ! ! ! ! ! ! ! ! ! _ { . . . . . . . . . . . ",
". . . . . . . . . . : < ! ! ! ! ! ! ! ! ! ! ( ( ( ( ( ( ( ( ( ( ( ( ! ! ! ( ( ! ! ! ! ! ! ! ! ! ! ! ! ( ( ( ( ! ! ( ( ( ! ! ( ( ( ( ( ( ( ( ( ( ( ( ( ( ( ( ( ! ! ! ! ! ! ! ! ! ! < : [ . . . . . . . . . ",
". . . . . . . . . } | ! ! ! ! ! ! ! ! ! ! ! ( ( ! ! ! ! ! ! ! ! ! ! ! ! ! ( ( ! ! ! ! ! ! ! ! ! ! ! ! ( ( ( ( ! ! ( ( ( ! ! ! ! ! ! ! ! ! ( ( ( ( ( ( ( ( ( ( ! ! ! ! ! ! ! ! ! ! ! 1 } 2 . . . . . . . . ",
". . . . . . . 3 4 5 ! ! ! ! ! ! ! ! ! ! ! ! ( ( ! ! ! ! ! ! ! ! ! ! ! ! ! ( ( ( ! ! ! ! ! ! ! ! ! ! ! ( ( ( ! ! ! ( ( ( ! ! ! ! ! ! ! ! ! ( ( ( ( ( ( ( ( ( ! ! ! ! ! ! ! ! ! ! ! ! ! 5 4 6 . . . . . . . ",
". . . . . . 7 } 8 ! ! ! ! ! ! ! ! ! ! ! ! ! ( ( ! ! ! ! ! ! ! ! ! ! ! ! ! ! ( ( ( ! ! ! ! ! ! ! ! ! ( ( ( ! ! ! ! ( ( ( ! ! ! ! ! ! ! ! ! ( ( ! ! ! ! ! ! ! ! ! ! ! ! ! ! ! ! ! ! ! ! ! 9 } 0 . . . . . . ",
". . . . . a } b ! ! ! ! ! ! ! ! ! ! ! ! ! ! ( ( ! ! ! ! ! ! ! ! ! ! ! ! ! ! ! ( ( ( ! ! ! ! ! ! ! ( ( ( ! ! ! ! ! ( ( ( ! ! ! ! ! ! ! ! ! ( ( ! ! ! ! ! ! ! ! ! ! ! ! ! ! ! ! ! ! ! ! ! ! c } . . . . . . ",
". . . . 3 : d ! ! ! ! ! ! ! ! ! ! ! ! ! ! ! ( ( ! ! ! ! ! ! ! ! ! ! ! ! ! ! ! ! ( ( ( ( ! ! ! ! ( ( ( ! ! ! ! ! ! ( ( ( ! ! ! ! ! ! ! ! ! ( ( ! ! ! ! ! ! ! ! ! ! ! ! ! ! ! ! ! ! ! ! ! ! ! e : 7 . . . . ",
". . . f g h ! ! ! ! ! ! ! ! ! ! ! ! ! ! ! ! ( ( ! ! ! ! ! ! ! ! ! ! ! ! ! ! ! ! ! ( ( ( ( ! ! ( ( ( ! ! ! ! ! ! ! ( ( ( ! ! ! ! ! ! ! ! ! ( ( ! ! ! ! ! ! ! ! ! ! ! ! ! ! ! ! ! ! ! ! ! ! ! ! i g j . . . ",
". . a k l ! ! ! ! ! ! ! ! ! ! ! ! ! ! ! ! ! ( ( ! ! ! ! ! ! ! ! ! ! ! ! ! ! ! ! ! ! ( ( ( ( ( ( ( ! ! ! ! ! ! ! ! ( ( ( ! ! ! ! ! ! ! ! ! ( ( ! ! ! ! ! ! ! ! ! ! ! ! ! ! ! ! ! ! ! ! ! ! ! ! ! l k m . . ",
". . : l ! ! ! ! ! ! ! ! ! ! ! ! ! ! ! ! ! ! ( ( ( ( ( ( ( ( ( ( ( ( ! ! ! ! ! ! ! ! ! ( ( ( ( ( ! ! ! ! ! ! ! ! ! ( ( ( ( ! ! ! ! ! ! ! ! ( ( ! ! ! ! ! ! ! ! ! ! ! ! ! ! ! ! ! ! ! ! ! ! ! ! ! ! h : . . ",
". n o ! ! ! ! ! ! ! ! ! ! ! ! ! ! ! ! ! ! ! ( ( ( ( ( ( ( ( ( ( ( ( ! ! ! ! ! ! ! ! ! ( ( ( ( ( ( ! ! ! ! ! ! ! ! ( ( ( ( ! ! ! ! ! ! ! ! ( ( ! ! ! ! ! ! ! ! ! ! ! ! ! ! ! ! ! ! ! ! ! ! ! ! ! ! ! o p . ",
"q r ! ! ! ! ! ! ! ! ! ! ! ! ! ! ! ! ! ! ! ! ( ( ( ! ! ! ! ! ! ! ! ! ! ! ! ! ! ! ! ! ( ( ( ( ( ( ( ( ! ! ! ! ! ! ! ( ( ( ( ! ! ! ! ! ! ! ! ( ( ! ! ! ! ! ! ! ! ! ! ! ! ! ! ! ! ! ! ! ! ! ! ! ! ! ! ! ! r . ",
"s t ! ! ! ! ! ! ! ! ! ! ! ! ! ! ! ! ! ! ! ! ( ( ( ! ! ! ! ! ! ! ! ! ! ! ! ! ! ! ! ( ( ( ( u v ( ( ( ( ! ! ! ! ! ! ( ( ( ( ! ! ! ! ! ! ! ! ( ( ! ! ! ! ! ! ! ! ! ! ! ! ! ! ! ! ! ! ! ! ! ! ! ! ! ! ! ! o w ",
"x y ! ! ! ! ! ! ! ! ! ! ! ! ! ! ! ! ! ! ! ! ( ( ( ! ! ! ! ! ! ! ! ! ! ! ! ! ! ! ( ( ( ! ! ! ! ! ! ( ( ( ! ! ! ! ! ( ( ( ( ! ! ! ! ! ! ! ! ( ( ! ! ! ! ! ! ! ! ! ! ! ! ! ! ! ! ! ! ! ! ! ! ! ! ! ! ! ! z A ",
"B ! ! ! ! ! ! ! ! ! ! ! ! ! ! ! ! ! ! ! ! ! ( ( ( ! ! ! ! ! ! ! ! ! ! ! ! ! ! ( ( ( ( ! ! ! ! ! ! ! ( ( ( ( ! ! ! ( ( ( ( ! ! ! ! ! ! ! ! ( ( ! ! ! ! ! ! ! ! ! ! ! ! ! ! ! ! ! ! ! ! ! ! ! ! ! ! ! ! ! C ",
"B ! ! ! ! ! ! ! ! ! ! ! ! ! ! ! ! ! ! ! ! ! ( ( ( ! ! ! ! ! ! ! D D ! ! ! D ( ( ( ( ! ! ! ! ! ! ! ! ! ( ( ( ! ! ! ( ( ( ( ! ! ! ! ! ! ! ! ( ( ! ! ! ! ! ! ! ! ! ! ! ! ! ! ! ! ! ! ! ! ! ! ! ! ! ! ! ! ! E ",
"F ! ! ! ! ! ! ! ! ! ! ! ! ! ! ! ! ! ! ! ! ! ( ( ( ! G H ! ! ! ! ! ! ! G H ( ( ( ( ( ! ! ! ! ! ! ! ! ! ! ( ( ( ! ! ( ( ( ( ! ! ! ! ! ! ! ! ( ( ! ! ! ! ! ! ! ! ! ! ! ! ! ! ! ! ! ! ! ! ! ! ! ! ! ! ! ! ! x ",
"I ! ! ! ! ! ! ! ! ! ! ! ! ! ! ! ! ! ! ! ! ! ( ( ( ! ! ! ! ! ! ! ! ! ! ! ! ( ( ( ( ( ! ! ! ! ! ! ! ! ! ! ( ( ( ! ! ( ( ( ( ! ! ! ! ! ! ! ! ( ( ! ! ! ! ! ! ! ! ! ! ! ! ! ! ! ! ! ! ! ! ! ! ! ! ! ! ! ! ! J ",
"K ! ! ! ! ! ! ! ! ! ! ! ! ! ! ! ! ! ! ! ! ! ( ( ( ( ( ( ( ( ( ( ( ( ( ! ! ( ( ( ( ( ! ! ! ! ! ! ! ! ! ! ( ( ( L M ( ( ( ( ! ! ! ! ! ! ! ! ( ( ! ! ! ! ! ! ! ! ! ! ! ! ! ! ! ! ! ! ! ! ! ! ! ! ! ! ! ! ! N ",
"O ! ! ! ! ! ! ! ! ! ! ! ! ! ! ! ! ! ! ! ! ! ( ( ( ( ( ( ( ( ( ( ( ( ( ! ! ( ( ( ( ( ! ! ! ! ! ! ! ! ! ! ( ( ( ! ! ( ( ( ( ! ! ! ! ! ! ! ! ( ( ! ! ! ! ! ! ! ! ! ! ! ! ! ! ! ! ! ! ! ! ! ! ! ! ! ! ! ! ! P ",
"Q ! ! ! ! ! ! ! ! ! ! ! ! ! ! ! ! ! ! ! ! ! ! ! ! ! ! ! ! ! ! ! ! ! ! ! ! ! ! ! ! ! ! ! ! ! ! ! ! ! ! ! ! ! ! ! ! ! ! ! ! ! ! ! ! ! ! ! ! ! ! ! ! ! ! ! ! ! ! ! ! ! ! ! ! ! ! ! ! ! ! ! ! ! ! ! ! ! ! ! R ",
"! ! ! ! ! ! ! ! ! ! ! ! ! ! ! ! ! ! ! ! ! ! ! ! ! ! ! ! ! ! ! ! ! ! ! ! ! ! ! ! ! ! ! ! ! ! ! ! ! ! ! ! ! ! ! ! ! ! ! ! ! ! ! ! ! ! ! ! ! ! ! ! ! ! ! ! ! ! ! ! ! ! ! ! ! ! ! ! ! ! ! ! ! ! ! ! ! ! ! ! ! ",
"! ! ! ! ! ! ! ! ! ! ! ! ! ! ! ! ! ! ! ! ! ! ! ! ! ! ! ! ! ! ! ! ! ! ! ! ! ! ! ! ! ! ! ! ! ! ! ! ! ! ! ! ! ! ! ! ! ! ! ! ! ! ! ! ! ! ! ! ! ! ! ! ! ! ! ! ! ! ! ! ! ! ! ! ! ! ! ! ! ! ! ! ! ! ! ! ! ! ! ! ! ",
"! ! ! ! ! ! ! ! ! ! ! ! ! ! ! ! ! ! ! ! ! ! ! ! ! ! ! ! ! ! ! ! ! ! ! ! ! ! ! ! ! ! ! ! ! ! ! ! ! ! ! ! ! ! ! ! ! ! ! ! ! ! ! ! ! ! ! ! ! ! ! ! ! ! ! ! ! ! ! ! ! ! ! ! ! ! ! ! ! ! ! ! ! ! ! ! ! ! ! ! S ",
"T # U # U # U U U U U U r U U U U U r U U U r U V E r U r r U r U U U r # U W # U U U U U U r U U U U U r U U U r U V E r U r r U r U U U r U W # U # U # U U U U r r r U U U U # W W W X Y I Z ` O V E  ."};
