/* XPM */
static xpm_string_t exit_xpm[] = {
"101 30 202 2",
"  	c None",
". 	c #00B140",
"+ 	c #007372",
"@ 	c #00C9C1",
"# 	c #00B3AC",
"$ 	c #009992",
"% 	c #008B84",
"& 	c #008A83",
"* 	c #008C85",
"= 	c #008982",
"- 	c #007E78",
"; 	c #009891",
"> 	c #00292A",
", 	c #008280",
"' 	c #00A9A2",
") 	c #00807A",
"! 	c #006C67",
"~ 	c #006E68",
"{ 	c #006D67",
"] 	c #006B66",
"^ 	c #006B65",
"/ 	c #004847",
"( 	c #00C8C0",
"_ 	c #005F59",
": 	c #005E58",
"< 	c #005F5A",
"[ 	c #005D58",
"} 	c #007C76",
"| 	c #00504A",
"1 	c #00514B",
"2 	c #00524C",
"3 	c #004F4A",
"4 	c #007B75",
"5 	c #013D3D",
"6 	c #00746E",
"7 	c #00423C",
"8 	c #00433E",
"9 	c #00413C",
"0 	c #00423D",
"a 	c #004440",
"b 	c #0EECE3",
"c 	c #003632",
"d 	c #003530",
"e 	c #0FDED5",
"f 	c #00342F",
"g 	c #00332E",
"h 	c #00C7BF",
"i 	c #00655F",
"j 	c #002B27",
"k 	c #002925",
"l 	c #002A27",
"m 	c #002924",
"n 	c #002C28",
"o 	c #001D1D",
"p 	c #00C6BF",
"q 	c #00201D",
"r 	c #00201B",
"s 	c #00211E",
"t 	c #001E1B",
"u 	c #00221F",
"v 	c #002220",
"w 	c #003635",
"x 	c #00C6BE",
"y 	c #005954",
"z 	c #001614",
"A 	c #001916",
"B 	c #001512",
"C 	c #001815",
"D 	c #001411",
"E 	c #002727",
"F 	c #002E2C",
"G 	c #00544F",
"H 	c #000E0D",
"I 	c #000D0C",
"J 	c #000D0A",
"K 	c #000F0D",
"L 	c #000C09",
"M 	c #00110E",
"N 	c #00534D",
"O 	c #002726",
"P 	c #003231",
"Q 	c #000806",
"R 	c #000706",
"S 	c #000606",
"T 	c #000A07",
"U 	c #004C47",
"V 	c #000505",
"W 	c #000404",
"X 	c #004B47",
"Y 	c #003634",
"Z 	c #00C5BD",
"` 	c #004A46",
" .	c #000403",
"..	c #000303",
"+.	c #004A45",
"@.	c #002E2D",
"#.	c #00C4BC",
"$.	c #004944",
"%.	c #000202",
"&.	c #002B2A",
"*.	c #000101",
"=.	c #006460",
"-.	c #006F69",
";.	c #00625E",
">.	c #00312F",
",.	c #00B5AE",
"'.	c #00867F",
").	c #000605",
"!.	c #005D59",
"~.	c #00A59E",
"{.	c #000A08",
"].	c #003935",
"^.	c #00908A",
"/.	c #00BCB5",
"(.	c #000B08",
"_.	c #00ADA6",
":.	c #001310",
"<.	c #001A17",
"[.	c #001210",
"}.	c #001C19",
"|.	c #00AAA3",
"1.	c #00B7B0",
"2.	c #00231F",
"3.	c #002420",
"4.	c #001D1A",
"5.	c #002421",
"6.	c #001B18",
"7.	c #00B0A9",
"8.	c #002D2A",
"9.	c #002D29",
"0.	c #002F2B",
"a.	c #002E2A",
"b.	c #00302C",
"c.	c #00312D",
"d.	c #002723",
"e.	c #002623",
"f.	c #009A94",
"g.	c #00AAA4",
"h.	c #003C38",
"i.	c #003B37",
"j.	c #003D38",
"k.	c #003D39",
"l.	c #003F3A",
"m.	c #00403B",
"n.	c #003A36",
"o.	c #003834",
"p.	c #003733",
"q.	c #00928C",
"r.	c #00ACA5",
"s.	c #004E48",
"t.	c #004F49",
"u.	c #004843",
"v.	c #004642",
"w.	c #00827D",
"x.	c #00A59F",
"y.	c #00615B",
"z.	c #00625C",
"A.	c #00635C",
"B.	c #00645D",
"C.	c #005C57",
"D.	c #005853",
"E.	c #005651",
"F.	c #007773",
"G.	c #009F98",
"H.	c #00716B",
"I.	c #006F6A",
"J.	c #00706A",
"K.	c #00726C",
"L.	c #00736D",
"M.	c #006963",
"N.	c #006965",
"O.	c #009690",
"P.	c #00847D",
"Q.	c #00847E",
"R.	c #00837C",
"S.	c #00827C",
"T.	c #00857F",
"U.	c #008780",
"V.	c #008079",
"W.	c #007973",
"X.	c #007670",
"Y.	c #005855",
"Z.	c #009F99",
"`.	c #00948D",
" +	c #00938C",
".+	c #00958E",
"++	c #00968F",
"@+	c #009790",
"#+	c #00918A",
"$+	c #008F88",
"%+	c #008881",
"&+	c #00817B",
"*+	c #004E4B",
"=+	c #007370",
"-+	c #00B4AD",
";+	c #00ABA4",
">+	c #00B3AB",
",+	c #00B2AB",
"'+	c #00B1AA",
")+	c #00AFA8",
"!+	c #00AEA7",
"~+	c #002221",
". . . . . . . . . . . . . . . . + @ # $ % & & % & * & % = = % = = = & & = & = & % % % & % & & & & * & & * = % & % % - - % & % % % = & % = * = & & = & = & % % % & ; # @ > . . . . . . . . . . . . . . . . ",
". . . . . . . . . . . . . . . , ' ) ! ~ ~ ! ! { ! { ] { { ~ { { ! { ] ! ! { ^ { { ! { { ! ] { { ! ! { { { { { ] { { { ! ~ ! ! ~ ! { ! ~ ! { { ] ! ! { ^ { { ! { { ~ ! - ' / . . . . . . . . . . . . . . . ",
". . . . . . . . . . . . . . ( = _ : : _ _ < : _ : _ : < : _ _ : [ : [ : _ : : : : _ [ : : : _ _ : < : : [ _ : : _ [ : _ _ _ : : [ : _ : [ _ : [ : _ : : : : _ [ : < _ : _ = ( . . . . . . . . . . . . . . ",
". . . . . . . . . . . . . ( } | | 1 1 | 1 2 1 | 1 | | | | | 1 | 1 | | 1 3 | 2 1 3 1 | | 2 | | 1 | 1 | 1 1 3 1 1 3 | 2 2 1 | 1 1 1 | 1 | 1 1 | | 1 3 | 2 1 3 1 | | | 1 1 3 | 4 ( . . . . . . . . . . . . . ",
". . . . . . . . . . . 5 ( 6 7 8 9 0 a 0 8 0 a b b b b b b b b b b b 0 8 7 b b 0 0 0 0 0 7 0 0 0 a 8 0 a b b 0 7 9 8 b 8 0 0 b b b b b b b b b b b b b b b b 0 0 0 0 0 a 8 8 0 6 ( . . . . . . . . . . . . ",
". . . . . . . . . . . ( ] c d c c c c c d c b b b b e b b b b b b b c c c b b c c c c c f c d d d d d b b b b c d b b b d c b b b b b b b b b b b b b b b b b c c c c d c c c g ] ( . . . . . . . . . . . ",
". . . . . . . . . . h i j k j l l m j l k j b b b b b b b b b b b b j k j b b l k l k j n k l m j l l b b b b m j b b b k l b b b b b b b b b b b b b b b b b k j m n j l l m j m i h o . . . . . . . . . ",
". . . . . . . . . p _ q r q s r r t r r s r b b s r q r r t u s q r q r t b b t q q q r q r t s r t s b b b b r r b b b q s q r t r q r r b b b b b b b b b b q r s q r r q t q r r : p v . . . . . . . . ",
". . . . . . . w x y z A z z z B B B z B z z b b z z z B z B z A z z z z z b b b z C z z z z z B z z z b b b z z z b b b z z z z z z z z B b b b b b b b b b C z z z z z z z z z z B D y x E . . . . . . . ",
". . . . . . F p G H I J J I J I I I K H J J b b L H I I H I I L J I L I H I b b b L H J J H J I M H b b b I I H I b b b K I H H I H H I M b b L I H I H H K L H J H J I J I I I H H I H N p O . . . . . . ",
". . . . . P p 1 Q R S Q T Q R Q S Q S R R S b b Q R R S Q R S Q T R R T S Q R b b b T Q Q Q R Q R b b b T R R Q R b b b R R Q R Q Q S Q R b b R T S Q R R R Q T Q R S Q Q Q T S R Q R R Q 2 p . . . . . . ",
". . . . w h U V V W V V W W V V V V V W V V b b V V V V V W V V W W V V V V V W b b b b W V V V b b b V W W V V V b b b V V W W V V V V V b b V V V V V W V V W W V V W W V V V V V W V V W X h F . . . . ",
". . . Y Z `  .W  . .W .... ... ...W  . .W ..b b ..W  .W  . .W .... ...W  . . . . .b b b b  . .b b b  ..... ...W  .b b b W ........W  .W  .b b ..W  . . . . ..... .W .... ...W  .W  . .W ......+.Z @.. . . ",
". . P #.$.%.%.%.%.%.%...%.%.%.%.%.%.%.%.%...b b %.%.%.%.%.%.%.%.%.%.%.%.%.%.%.%.%...b b b b b b b %.%...%.%.%.%.%.b b b %...%.%.%.%.%.%.%.b b %.%.%.%.%.%.%...%.%.%...%.%.%.%.%.%.%.%.%...%.%.%.$.#.&.. . ",
". . h $.*.%.%.%.%.%.%.%.%.*.*.%.%.%.%.%.%.%.b b b b b b b b b b b b *.%.%.%.%.%.%.%.%.b b b b b %.%.%...%.%.%.%.%.b b b b %...%.%.%.%.%.%.b b *.%.%.%.%.%.%.%.%.*.%.....%.%.%.%.%.%.%.%.....%.%.%.` h . . ",
". =.-.%.%.%.%.%.%.%.%.%.%.%.%.%.%.%.%.%.%.%.b b b b b b b b b b b b %.%.%.%.%.%.%...%.b b b b b b %.%...%.%.%.%.%.b b b b ..%...%.%.%.%.%.b b %.%.%.%.%.%.%...%.%.%...%...%.%.%.%.%.%.%...%...%.%.%.-.;.. ",
">.,.J %.%.%.%.%.%.%.%.%.%.%.%.%.%.%.%.%.%.%.b b b %...%.%.%.%.%.....%... .........%.b b b b b b b b ...... ... .W b b b b ..W  ... .W .. .b b %... .........%.........W  ... .W ....W  ... .........H ,.. ",
"'.! %.%.%.%.%.%.%.%.%.%.%.%.%.%... ... ...%.b b b ..W W W W W  .V W W W W W W V W b b b b W V b b b b V V W W V V b b b b V V W W V ).V V b b W W W W W V W W V W V V V W V V ).V V ).W W W W W W W W -.!.",
"~.d %.%. .....%.............W W W W  .W W W b b b V ).V V ).S ).S S T S R S S S b b b S {.S S S S b b b S S {.S Q b b b b R R Q L Q T Q S b b T S R S S S S S S S Q Q S R L T T R R R Q R ).S Q S ).V ].^.",
"/.K W W  .W  . . .W W V W V W V V V V S R Q b b b Q Q S Q T {.(.J L L J J J L b b b b I I J J J I I b b b b I I I b b b b M K M I K J I I b b L J J J L I I H I I I K I K I H J I L I J I J J L L Q T A _.",
"/.K S ).).V V S ).R S R T {.Q R Q T (.J J I b b b I I H K M M M z z D :.:.z b b b b C B D B z z z z z b b b z z z b b b b z z C z C z <.A b b D :.:.z z z z B C B A z <.<.A z C B z z D z z z B M [.K }.|.",
"1.t s s s 2.r r s q 3.q s u 2.u 4.r 2.2.u s b b b 5.q s u u 2.u u 3.3.q s b b b b b s q 3.q s u 2.u 4.r b b b s s b b b b s u u 2.u u 3.3.b b u t s s s 2.r r s q u q 2.2.3.q s 2.u u s t s r q }.6.<.u ~.",
"7.8.9.n 0.0.a.8.8.8.a.8.9.8.b.0.c.a.9.8.0.0.b b b c.c.8.8.0.c.c.a.9.c.c.n b b b b b 8.8.a.8.9.8.b.0.c.a.b b b 0.0.b b b b 8.8.0.c.c.a.9.c.b b a.8.9.n 0.0.a.8.8.8.c.8.a.c.b.c.0.0.0.b.9.j l l m d.e.5.a.f.",
"g.h.i.j.i.h.h.j.j.k.l.j.j.h.k.l.m.k.j.m.l.l.b b b b b b b b b b b b b k.n.b b b b b j.k.l.j.j.h.k.l.m.k.b b b l.j.b b b b m.j.0 m.k.j.k.h.b b k.h.i.j.i.h.h.j.j.k.0 m.l.7 9 l.k.l.j.n.h.j.n.].o.c d c.p.q.",
"r.X s.s.3 X s.t.s.s.s.U s.s.s.t.s.U t.3 3 s.b b b b b b b b b b b b b 3 s.b b b b b s.s.s.U s.s.s.t.s.U b b b s.s.b b b b 3 3 t.s.t.t.1 | b b U X s.s.3 X s.t.s.s.| s.t.3 s.t.3 U s.U +.` u.+.v.8 l.l.u.w.",
"x.< : < < < : _ : y.: < _ _ < _ : z._ z.< _ y.y.< y.< < y.z.< y.y.A.A.z.: _ : < : _ : y.: < _ _ < _ : z._ z.< _ y.y.< y.< < y.z.< y.y.A.A.z._ : < : < < < : _ : y.y.B.A.A.< y.y.: _ C.[ : y D.E.E.2 3 N F.",
"G.H.I.J.K.H.K.H.H.H.J.L.~ H.-.L.K.H.H.L.L.L.J.L.K.K.L.K.L.6 H.L.L.L.L.6 I.H.H.H.K.H.H.H.J.L.~ H.-.L.K.H.H.L.L.L.J.L.K.K.L.K.L.6 H.L.L.L.L.6 H.H.H.I.J.K.H.K.H.H.H.L.L.L.L.H.L.H.H.H.J.~ { ! ! M.i z.< A.N.",
"O.P.P.Q.P.R.R.S.P.Q.P.'.P.T.R.R.S.P.P.T.P.Q.P.T.Q.P.R.'.'.Q.T.T.T.T.T.T.R.P.R.R.R.S.P.Q.P.'.P.T.R.R.S.P.P.T.P.Q.P.T.Q.P.R.'.'.Q.T.T.T.T.T.T.P.R.P.P.Q.P.R.R.S.P.Q.Q.T.U.T.'.T.R.P.R.S.) V.- 4 W.X.L.H.L.Y.",
"Z.`. + +`.`.`. +.+.+.+ + + +`. +.+`.`.++.+`. +`..+.+.+`.++@+`.`..+++`.@+ +`. +`.`. +.+.+.+ + + +`. +.+`.`.++.+`. +`..+.+.+`.++@+`.`..+++`.@+`. +`. + +`.`.`. +.+.+.+.+.+++.+.+ + + + +#+$+$+$+& %+Q.&+- *+",
"=+# -+# -+# -+-+-+-+-+-+,.-+-+-+-+-+,.-+-+-+,.-+;+|.,.-+,.,.-+,.-+-+-+,.# -+>+# -+-+-+-+-+-+,.-+-+-+-+-+,.-+-+-+,.-+;+|.,.-+,.,.-+,.-+-+-+,.-+>+# -+# -+# -+-+-+-+,.,.,.-+-+-+-+# >+>+>+,+'+7.)+!+r.;+|.~+"};
