/* XPM */
static xpm_string_t high_scores_xpm[] = {
"240 30 206 2",
"  	c None",
". 	c #00B140",
"+ 	c #007372",
"@ 	c #00C9C1",
"# 	c #00B3AC",
"$ 	c #009992",
"% 	c #008B84",
"& 	c #008A83",
"* 	c #008C85",
"= 	c #008982",
"- 	c #007E78",
"; 	c #009891",
"> 	c #00292A",
", 	c #008280",
"' 	c #00A9A2",
") 	c #00807A",
"! 	c #006C67",
"~ 	c #006E68",
"{ 	c #006D67",
"] 	c #006B66",
"^ 	c #006B65",
"/ 	c #004847",
"( 	c #00C8C0",
"_ 	c #005F59",
": 	c #005E58",
"< 	c #005F5A",
"[ 	c #005D58",
"} 	c #007C76",
"| 	c #00504A",
"1 	c #00514B",
"2 	c #00524C",
"3 	c #004F4A",
"4 	c #007B75",
"5 	c #013D3D",
"6 	c #00746E",
"7 	c #00423C",
"8 	c #00433E",
"9 	c #00413C",
"0 	c #00423D",
"a 	c #004440",
"b 	c #0EECE3",
"c 	c #003632",
"d 	c #003530",
"e 	c #00342F",
"f 	c #0FDED5",
"g 	c #00332E",
"h 	c #00C7BF",
"i 	c #00655F",
"j 	c #002B27",
"k 	c #002925",
"l 	c #002A27",
"m 	c #002924",
"n 	c #002C28",
"o 	c #002723",
"p 	c #001D1D",
"q 	c #00C6BF",
"r 	c #00201D",
"s 	c #00201B",
"t 	c #00211E",
"u 	c #001E1B",
"v 	c #00221F",
"w 	c #002220",
"x 	c #003635",
"y 	c #00C6BE",
"z 	c #005954",
"A 	c #001614",
"B 	c #001916",
"C 	c #001512",
"D 	c #001815",
"E 	c #001411",
"F 	c #002727",
"G 	c #002E2C",
"H 	c #00544F",
"I 	c #000E0D",
"J 	c #000D0C",
"K 	c #000D0A",
"L 	c #000F0D",
"M 	c #000C09",
"N 	c #00110E",
"O 	c #00534D",
"P 	c #002726",
"Q 	c #003231",
"R 	c #000806",
"S 	c #000706",
"T 	c #000606",
"U 	c #000A07",
"V 	c #004C47",
"W 	c #000505",
"X 	c #000404",
"Y 	c #004B47",
"Z 	c #003634",
"` 	c #00C5BD",
" .	c #004A46",
"..	c #000403",
"+.	c #000303",
"@.	c #004A45",
"#.	c #002E2D",
"$.	c #00C4BC",
"%.	c #004944",
"&.	c #000202",
"*.	c #0EDED5",
"=.	c #002B2A",
"-.	c #000101",
";.	c #006460",
">.	c #006F69",
",.	c #00625E",
"'.	c #00312F",
").	c #00B5AE",
"!.	c #00867F",
"~.	c #000605",
"{.	c #005D59",
"].	c #00A59E",
"^.	c #000A08",
"/.	c #003935",
"(.	c #00908A",
"_.	c #00BCB5",
":.	c #000B08",
"<.	c #00ADA6",
"[.	c #001310",
"}.	c #001A17",
"|.	c #001210",
"1.	c #001C19",
"2.	c #00AAA3",
"3.	c #00B7B0",
"4.	c #00231F",
"5.	c #002420",
"6.	c #001D1A",
"7.	c #002421",
"8.	c #001B18",
"9.	c #00B0A9",
"0.	c #002D2A",
"a.	c #002D29",
"b.	c #002F2B",
"c.	c #002E2A",
"d.	c #00302C",
"e.	c #00312D",
"f.	c #0EE8DF",
"g.	c #002623",
"h.	c #009A94",
"i.	c #00AAA4",
"j.	c #003C38",
"k.	c #003B37",
"l.	c #003D38",
"m.	c #003D39",
"n.	c #003F3A",
"o.	c #00403B",
"p.	c #003A36",
"q.	c #003834",
"r.	c #003733",
"s.	c #00928C",
"t.	c #00ACA5",
"u.	c #004E48",
"v.	c #004F49",
"w.	c #0FCEC6",
"x.	c #4ED8D1",
"y.	c #004843",
"z.	c #004642",
"A.	c #00827D",
"B.	c #00A59F",
"C.	c #00615B",
"D.	c #00625C",
"E.	c #00635C",
"F.	c #00645D",
"G.	c #005C57",
"H.	c #005853",
"I.	c #005651",
"J.	c #007773",
"K.	c #009F98",
"L.	c #00716B",
"M.	c #006F6A",
"N.	c #00706A",
"O.	c #00726C",
"P.	c #00736D",
"Q.	c #006963",
"R.	c #006965",
"S.	c #009690",
"T.	c #00847D",
"U.	c #00847E",
"V.	c #00837C",
"W.	c #00827C",
"X.	c #00857F",
"Y.	c #008780",
"Z.	c #008079",
"`.	c #007973",
" +	c #007670",
".+	c #005855",
"++	c #009F99",
"@+	c #00948D",
"#+	c #00938C",
"$+	c #00958E",
"%+	c #00968F",
"&+	c #009790",
"*+	c #00918A",
"=+	c #008F88",
"-+	c #008881",
";+	c #00817B",
">+	c #004E4B",
",+	c #007370",
"'+	c #00B4AD",
")+	c #00ABA4",
"!+	c #00B3AB",
"~+	c #00B2AB",
"{+	c #00B1AA",
"]+	c #00AFA8",
"^+	c #00AEA7",
"/+	c #002221",
". . . . . . . . . . . . . . . . + @ # $ % & & % & * & % = = % = = = & & = & = & % % % & % & & & & * & & * = % & % % - - % & % % % = & % = * = & & = & = & % % % & % & & & & * & & * = % & % % - - % & % % % = & % = * = = & & = & = & % % % & % & & & & * & & * = % & % % - - % & % % % = & % = * = = & & = & = & % % % & % & & & & * & & * = % & % % - - % & % % % = & % = * = & & = & = & % % % & % & & & & * & & * = % & % % - - % & % % % = & % = * ; # @ > . . . . . . . . . . . . . . . . ",
". . . . . . . . . . . . . . . , ' ) ! ~ ~ ! ! { ! { ] { { ~ { { ! { ] ! ! { ^ { { ! { { ! ] { { ! ! { { { { { ] { { { ! ~ ! ! ~ ! { ! ~ ! { { ] ! ! { ^ { { ! { { ! ] { { ! ! { { { { { ] { { { ! ~ ! ! ~ ! { ! ~ ! { ! { ] ! ! { ^ { { ! { { ! ] { { ! ! { { { { { ] { { { ! ~ ! ! ~ ! { ! ~ ! { ! { ] ! ! { ^ { { ! { { ! ] { { ! ! { { { { { ] { { { ! ~ ! ! ~ ! { ! ~ ! { { ] ! ! { ^ { { ! { { ! ] { { ! ! { { { { { ] { { { ! ~ ! ! ~ ! { ! ~ ! { ~ ! - ' / . . . . . . . . . . . . . . . ",
". . . . . . . . . . . . . . ( = _ : : _ _ < : _ : _ : < : _ _ : [ : [ : _ : : : : _ [ : : : _ _ : < : : [ _ : : _ [ : _ _ _ : : [ : _ : [ _ : [ : _ : : : : _ [ : : : _ _ : < : : [ _ : : _ [ : _ _ _ : : [ : _ : [ _ [ : [ : _ : : : : _ [ : : : _ _ : < : : [ _ : : _ [ : _ _ _ : : [ : _ : [ _ [ : [ : _ : : : : _ [ : : : _ _ : < : : [ _ : : _ [ : _ _ _ : : [ : _ : [ _ : [ : _ : : : : _ [ : : : _ _ : < : : [ _ : : _ [ : _ _ _ : : [ : _ : [ _ < _ : _ = ( . . . . . . . . . . . . . . ",
". . . . . . . . . . . . . ( } | | 1 1 | 1 2 1 | 1 | | | | | 1 | 1 | | 1 3 | 2 1 3 1 | | 2 | | 1 | 1 | 1 1 3 1 1 3 | 2 2 1 | 1 1 1 | 1 | 1 1 | | 1 3 | 2 1 3 1 | | 2 | | 1 | 1 | 1 1 3 1 1 3 | 2 2 1 | 1 1 1 | 1 | 1 1 1 | | 1 3 | 2 1 3 1 | | 2 | | 1 | 1 | 1 1 3 1 1 3 | 2 2 1 | 1 1 1 | 1 | 1 1 1 | | 1 3 | 2 1 3 1 | | 2 | | 1 | 1 | 1 1 3 1 1 3 | 2 2 1 | 1 1 1 | 1 | 1 1 | | 1 3 | 2 1 3 1 | | 2 | | 1 | 1 | 1 1 3 1 1 3 | 2 2 1 | 1 1 1 | 1 | 1 1 | 1 1 3 | 4 ( . . . . . . . . . . . . . ",
". . . . . . . . . . . 5 ( 6 7 8 9 0 a 0 8 0 a 8 7 0 0 0 b 8 0 0 0 8 0 8 7 8 a 0 0 0 b 0 7 0 0 0 b 8 0 a a 0 b b b b b b b b b b b b b b b 7 8 0 8 7 b a 0 0 0 0 0 7 0 0 0 a 8 0 b a 0 0 7 9 8 0 8 0 0 0 8 0 8 b b b b b b b b b b b b b b 0 0 7 0 0 b b b b b b b b b b b b b b b 0 8 0 8 b b b b b b b b b b b b b b b b 7 0 0 0 b b b b b b b b b b b b b 0 0 8 0 8 7 b b b b b b b b b b b 0 0 0 7 0 b b b b b b b b b b b b b b 0 0 0 8 0 8 7 7 0 7 0 0 a 8 8 0 6 ( . . . . . . . . . . . . ",
". . . . . . . . . . . ( ] c d c c c c c d c c c c d d c b b d c c d c c c d c c c b b b e c d b b b d c c b b b b b b b b b b b b b b b b b d c c c b b c c c c c e c d d d d b b b c d c d d c c d c c c d b b b b b b b b b b b b b b b b c e c b b b b b b b b b b b b b b b b b c d b b b b b b b b b b b b b b b b b b c d b b b b b b b b b b b b b b b c c d d b b b b f b b b b b b b c c c e b b b b b b b b b b b b b b b b c c c d d d d c c c c d c c c g ] ( . . . . . . . . . . . ",
". . . . . . . . . . h i j k j l l m j l k j j j l k k k b b k j n k j k j m l l b b b b n k l b b b l j l b b b j o j l k l j k n l l b b b k j k j b b l k l k j n k l m j b b b b l l m j o j l k l j k b b b k j l n k j k j m l l k b b b n k b b b l l j l l l m j o b b b b b k n b b b b l n k j k j m l l k b b b b k l b b b b b b b b b b b b b b b j k n l b b b b b b b b b b b b l k j b b b m j l l j l l l m j o j b b b j k n l l k j l m n j l l m j m i h p . . . . . . . . . ",
". . . . . . . . . q _ r s r t s s u s s t s r u t s r s b b v t r s r s u s r u b b b b r s u b b b t s s b b s s s s s r t r s u s r s b b s r s u b b u r r r s r s u t s b b b b s s s s s s s r t r s b b b s s s r s r s u s r u r b b b r s b b s u t s s s s s s s s b b b b s u b b b s s r s r s u s r u r r b b b s u b b u t s s s s s s s s b b b r s u s b b s s s r s u s r u r r r s b b b t s u t s s s s s s s s b b b r s u s r s s s t r s s r u r s s : q w . . . . . . . . ",
". . . . . . . x y z A B A A A C C C A C A A A A A A A C b b A B A A A A A A A A b b b b A A A b b b A B A b b A A A A C A A A A A A A A b b A A A A b b A A D A A A A A C A b b b b A A A A A A C A A A A b b b A C A A A A A A A A A A b b b A A b b A A A B A A A A A A A b b b b A A b b b C A A A A A A A A A A D b b b A A b b A A B A A A A A A A b b b A A A A b b C A A A A A A A A A D A A b b b C A A A B A A A A A A A b b b A A A A A A C A A A A A A A A A C E z y F . . . . . . . ",
". . . . . . G q H I J K K J K J J J L I K K J J M I J J b b J M K J M J I J I I b b b b K I K b b b L K J b b I J K L I L J I I J I I J b b J M J I b b I L M I K K I K J N b b b b J J I J K L I L J I I b b b J N L K J M J I J I I L M b K K I b b N I L K J J J I J K L b b b b I J b b b N L K J M J I J I I L M b b b I K b b I L K J J J I J K L b b b I I J I b b N L J M J I J I I L M I K b b b J N I L K J J J I J K L I b J I I J I I J N L I K J K J J J I I J I O q P . . . . . . ",
". . . . . Q q 1 R S T R U R S R T R T S S T R S R S S T b b T R U S S U T R S S b b b b R R S b b b S R U b b R S R T T S S R S R R T R S S S S U T b b S S R U R R R S R S b b b b S S R S R T T S S R S b b b R S S U S S U T R S S S R U R R R b b S S S R U S S R S R T T S S R S R b b b S S U S S U T R S S S R b b b R S b b S S R U S S R S R T b b b R S R R b b S S S S U T R S S S R U R b b b R S S S R U S S R S R T T S S R S R R T R S S S T R R R U T S R S S R 2 q . . . . . . ",
". . . . x h V W W X W W X X W W W W W X W W X X W W W W b b W W X X W W W W W X b b b b X W W b b b W W X b b W W X W X W W X X W W W W W X X W W W b b X W W X X X W W W W b b b b X W W W X W X W W X X b b b W W X X X W W W W W X W W X X X W b b W X W W X X W W W X W X W W X X W b b b W X X X W W W W W X W W b b b W W b b X W W X X W W W X W b b b X X W W b b W X X W W W W W X W W X X b b b W W X W W X X W W W X W X W W X X W W W W W X W W X X W W W W W X W W X Y h G . . . . ",
". . . Z `  ...X ....X +.+...+...+.X ....X +.+...+.X ..X b b X +.+...+.X ........b b b b +.....b b b ..+.+.b b X ....+...X +.+.+.+.X ..X ......+.X ..b b ....+.+...+.....X ..b b b b ..+.X ....+...X +.+.+.b b b X ....+...+.X ..........+.+...+...b b ......+.+...+.X ....+...X +.+.+.+.b b b ....+...+.X ..........+.b b b ....b b ....+.+...+.X ....+.b b b +.+.+.X b b ......+.X ..........+.+...b b b X ......+.+...+.X ....+...X +.+.+.+.X ..X ....X +.+...+.X ..X ....X +.+.+.@.` #.. . . ",
". . Q $.%.&.&.&.&.&.&.+.&.&.&.&.&.&.&.&.&.+.&.&.&.&.&.b b *.&.&.&.&.&.&.&.&.&.&.b b b b &.&.&.b b b &.+.&.b b b &.&.&.&.&.+.&.&.&.&.&.&.&.&.&.&.&.b b *.&.&.+.&.&.&.&.&.&.&.b b b b &.&.&.&.&.&.&.&.+.&.&.b b b &.&.&.&.&.&.&.&.&.&.&.&.+.&.&.&.&.b b b &.&.+.&.&.&.&.&.&.&.&.&.+.&.&.&.b b b &.&.&.&.&.&.&.&.&.&.&.+.b b b &.&.b b b b b b b b b b b b b b b &.&.&.&.b b &.&.&.&.&.&.&.&.&.&.+.&.&.b b b &.&.&.&.+.&.&.&.&.&.&.&.&.&.+.&.&.&.&.&.&.&.&.&.+.&.&.&.&.&.&.&.&.&.+.&.&.&.%.$.=.. . ",
". . h %.-.&.&.&.&.&.&.&.&.-.-.&.&.&.&.&.&.&.&.-.-.&.&.b b b b b b b b b b b b b b b b b -.&.&.b b b b +.&.b b b &.&.&.&.&.&.+.&.&.&.&.&.&.&.-.-.&.b b b b b b b b b b b b b b b b b &.&.&.&.&.&.&.&.&.+.&.b b b b b b b b b b b b b b b b b -.-.&.b b &.&.&.+.&.&.&.&.&.&.&.&.&.&.+.&.&.b b b &.&.&.-.-.&.&.&.&.&.&.b b b b &.&.b b b b b b b b b b b b b b b b b &.&.b b b b b b b b b b b b &.&.-.b b b b b b b b b b b b b b b b b &.+.&.&.&.&.&.&.&.&.+.+.&.&.&.&.&.&.&.&.+.+.&.&.&. .h . . ",
". ;.>.&.&.&.&.&.&.&.&.&.&.&.&.&.&.&.&.&.&.&.&.&.&.&.b b b b b b b b b b b b b b b b b b b &.&.b b b b +.&.b b b b &.&.&.&.+.&.+.b b b b b b &.&.b b b b b b b b b b b b b b b b b b b &.&.&.&.&.&.&.+.&.+.&.b b b b b b b b b b b b b b b b b &.&.b b b &.&.+.&.&.&.&.&.&.&.&.&.+.&.+.&.b b b &.&.&.&.&.&.&.&.&.&.&.b b b b &.&.b b b b b b b b b b b b b b b b b &.&.b b b b b b b b b b b b +.&.&.&.b b b b b b b b b b b b b b b b b &.+.&.&.&.&.&.&.&.+.&.+.&.&.&.&.&.&.&.+.&.+.&.&.&.>.,.. ",
"'.).K &.&.&.&.&.&.&.&.&.&.&.&.&.&.&.&.&.&.&.&.&.&.&.*.b b b &.&.+.+.&.+...+.+.+.b b b b b +...b b b b +.+.b b b b +...X ..+.X b b b b b b b +.&.*.b b b +.+.&.+.+.+.+...+.+.b b b b b +...X +...X ..+.X ..+...X +.....+.+.&.+...+.+.+.b b b b +.+.b b b ..+.+.+...+...X +...X ..+.X ..+.b b b ....+.+.&.+...+.+.+.+.b b b b +...b b b b +.+...+...X +...X ..+.b b +...b b b ..+.&.+...+.+.+.+.&.+.+.+.+...+.+...+.+.+...+...X +.b b b b X ..+...X +.....+.+.X ..+...X +.+.X ..+...+.+.+.+.I ).. ",
"!.! &.&.&.&.&.&.&.&.&.&.&.&.&.&.+...+...+.&.+.&.+.+.b b b b X ..W X X X X X X W b b b b b X W b b b b W W b b b b W W W W W W b b b b b b b X X b b b b W X X W X X X W W W b b b b b X W W W W W W W W X X W ~.W W W W X X X X X X W b b b b X X b b b W W W W X X W W W W W W W W X X b b b W W W X X X X X X W X b b b b X W b b b b W W X X W W W W W W W b b X W b b b W X X X X X X W X X W X X X W W W W W W W X X W W W b b b b W X X W ~.W W W W W W X W W ~.W W ~.X X X X X X X X >.{.",
"].d &.&...+.+.&.+.+.+.+.+.+.X X X X ..X X X X X T W b b b b T ~.T T U T S T T T b b b b b T T b b b b T T b b b b T S R R S S R M R U R b b T U b b b b T T T T T ^.T T T T b b b b b ^.T R T S R R S S R M R U R T S T T U T S T T T b b b b ^.T b b b T S T T T ^.T R T S R R b b R M b b b T S T T U T S T T T T b b b b T T b b b b T T T ^.T R T S R R S b b M R b b b S T U T S T T T T T T T ^.T T T T T S T T T ^.T R T b b b b S R M R U R T S R R T S M U U S S S R S ~.T R T ~.W /.(.",
"_.L X X ..X ......X X W X W X W W W W T S R S R T R b b b b ^.:.K M M K K K M J b b b b b K K b b b b J J b b b b J I I L N L N J L K J b b M M b b b b J J I J J J K K K J b b b b b J J J J I I L N L N J L K J J L K M M K K K M J b b b b J K b b b J J J J J J J J J I I L b b N J b b b J L K M M K K K M J J b b b b K K b b b b J J J J J J J I I L N b b J L b b b L M M K K K M J J I J J J K K K J J J J J J J J J J b b b b L N J L K J J L J L J L J I K J M J K J K K M M R U B <.",
"_.L T ~.~.W W T ~.S T S U ^.R S R U :.K K J I N I J b b b b N N A A E [.[.A A A b b b b b C A b b b b D A b b b b D B D A A A D A D A }.b b A E b b b b A A C D C E C A A A b b b b b A A A D B D A A A D b b b }.B D A A E [.[.A A A b b b b E C b b b A A D A B A A A D B D A b b D A b b b B D A A E [.[.A A A A b b b b C A b b b b D A B A A A D B D A A b b A D b b b D A E [.[.A A A A C D C b b b A A A A D A B A A A D b b b b A D A D A }.B D B A }.}.B A D C A A E A A A C N |.L 1.2.",
"3.u t t t 4.s s t r 5.r t v 4.v 6.s 4.4.v t t 4.5.7.b b b b 4.v v 5.5.r t r v 4.b b b b b r t b b b b s 4.b b b b 4.5.7.r t v v 4.v v 5.b b r v b b b b 4.s s t r 5.r t v 4.b b b b b v t t 4.5.7.r t v v b b b 5.5.r t r v u t t t 4.b b b b 5.r b b b v 6.s 4.4.v t t 4.5.7.r b b v 4.b b b 5.r t r v u t t t 4.s b b b b r t b b b b s 4.4.v t t 4.5.7.r t b b 4.v b b b r r v u t t t 4.s s t r b b b v 4.v 6.s 4.4.v t t 4.b b b b v v 4.v v 5.5.r v r 4.4.5.r t 4.v v t u t s r 1.8.}.v ].",
"9.0.a.n b.b.c.0.0.0.c.0.a.0.d.b.e.c.a.0.b.b.b.0.b.e.b b b b e.e.c.a.e.e.n n c.b.b b b b b 0.a.b b b b c.a.b b b b b b.e.e.0.0.b.e.e.c.a.f.b n c.b b b b b.c.0.0.0.c.0.a.0.d.b b b b b b.b.b.0.b.e.e.0.0.b.b b b a.e.e.n n c.0.a.n b.b.b b b b c.0.b b b b e.c.a.0.b.b.b.0.b.e.e.b b b.e.b b b e.e.n n c.0.a.n b.b.c.b b b b 0.a.b b b b c.a.0.b.b.b.0.b.e.e.0.b b e.e.b b b e.n c.0.a.n b.b.c.0.0.0.b b b 0.d.b.e.c.a.0.b.b.b.0.b b b b 0.b.e.e.c.a.e.e.e.0.c.e.d.e.b.b.b.d.a.j l l m o g.7.c.h.",
"i.j.k.l.k.j.j.l.l.m.n.l.l.j.m.n.o.m.l.o.n.n.l.m.l.o.b b b b o.m.l.m.j.m.p.l.m.j.b b b b b l.l.b b b b m.l.b b b b b b b b b b b b b b b b b l.m.b b b b j.j.l.l.m.n.l.l.j.m.b b b b b n.n.l.m.l.o.m.o.l.0 b b b b b b b b b b b b b b b b b b n.l.b b b b b b b b b b b b b b b b b 0 o.b b b b b b b b b b b b b b b b b b l.l.b b b b m.l.o.n.n.l.m.l.o.m.o.b b o.m.b b b b b b b b b b b b b l.m.b b b b b b b b b b b b b b b b b b l.0 o.m.l.m.j.m.0 o.n.7 9 n.m.n.l.p.j.l.p./.q.c d e.r.s.",
"t.Y u.u.3 Y u.v.u.u.u.V u.u.u.v.u.V v.3 3 u.u.u.3 v.b b b *.u.v.v.1 | 3 u.3 V Y b b b b b V u.b b b b V v.b b b b b b b b b b b b b b b b b 3 V b b b *.Y u.v.u.u.u.V u.u.u.b b b b b 3 u.u.u.3 v.3 3 3 v.u.b b b b b b b b b b b b b b b b u.u.V b b b b b b b b b b b b b b b b b v.u.b b b b b b b b b b b b b b w.b b x.V u.b b b b V v.3 3 u.u.u.3 v.3 3 b b u.v.b b b b b b b b b b b b b u.u.u.b b b b b b b b b b b b b b b b 3 3 v.u.v.v.1 | 3 | u.v.3 u.v.3 V u.V @. .y.@.z.8 n.n.y.A.",
"B.< : < < < : _ : C.: < _ _ < _ : D._ D.< _ C.C.< C.< < C.D.< C.C.E.E.D.: _ : < : _ : C.: < _ _ < _ : D._ D.< _ C.C.< C.< < C.D.< C.C.E.E.D._ : < : < < < : _ : C.: < _ _ < _ : D._ D.< _ C.C.< C.< < C.D.< C.C.E.E.D.: _ : < : < < < : _ : C.: < _ _ < _ : D._ D.< _ C.C.< C.< < C.D.< C.C.E.E.D.: _ : < : < < < : _ : C.: < _ _ < _ : D._ D.< _ C.C.< C.< < C.D.< C.C.E.E.D._ : < : < < < : _ : C.: < _ _ < _ : D._ D.< _ C.C.< C.< < C.D.< C.C.E.E.D.C.F.E.E.< C.C.: _ G.[ : z H.I.I.2 3 O J.",
"K.L.M.N.O.L.O.L.L.L.N.P.~ L.>.P.O.L.L.P.P.P.N.P.O.O.P.O.P.6 L.P.P.P.P.6 M.L.L.L.O.L.L.L.N.P.~ L.>.P.O.L.L.P.P.P.N.P.O.O.P.O.P.6 L.P.P.P.P.6 L.L.L.M.N.O.L.O.L.L.L.N.P.~ L.>.P.O.L.L.P.P.P.N.P.O.O.P.O.P.6 L.P.P.P.P.6 M.L.L.L.M.N.O.L.O.L.L.L.N.P.~ L.>.P.O.L.L.P.P.P.N.P.O.O.P.O.P.6 L.P.P.P.P.6 M.L.L.L.M.N.O.L.O.L.L.L.N.P.~ L.>.P.O.L.L.P.P.P.N.P.O.O.P.O.P.6 L.P.P.P.P.6 L.L.L.M.N.O.L.O.L.L.L.N.P.~ L.>.P.O.L.L.P.P.P.N.P.O.O.P.O.P.6 L.P.P.P.P.6 P.P.P.P.L.P.L.L.L.N.~ { ! ! Q.i D.< E.R.",
"S.T.T.U.T.V.V.W.T.U.T.!.T.X.V.V.W.T.T.X.T.U.T.X.U.T.V.!.!.U.X.X.X.X.X.X.V.T.V.V.V.W.T.U.T.!.T.X.V.V.W.T.T.X.T.U.T.X.U.T.V.!.!.U.X.X.X.X.X.X.T.V.T.T.U.T.V.V.W.T.U.T.!.T.X.V.V.W.T.T.X.T.U.T.X.U.T.V.!.!.U.X.X.X.X.X.X.V.T.V.T.T.U.T.V.V.W.T.U.T.!.T.X.V.V.W.T.T.X.T.U.T.X.U.T.V.!.!.U.X.X.X.X.X.X.V.T.V.T.T.U.T.V.V.W.T.U.T.!.T.X.V.V.W.T.T.X.T.U.T.X.U.T.V.!.!.U.X.X.X.X.X.X.T.V.T.T.U.T.V.V.W.T.U.T.!.T.X.V.V.W.T.T.X.T.U.T.X.U.T.V.!.!.U.X.X.X.X.X.X.U.X.Y.X.!.X.V.T.V.W.) Z.- 4 `. +P.L.P..+",
"++@+#+#+@+@+@+#+$+$+$+#+#+#+@+#+$+@+@+%+$+@+#+@+$+$+$+@+%+&+@+@+$+%+@+&+#+@+#+@+@+#+$+$+$+#+#+#+@+#+$+@+@+%+$+@+#+@+$+$+$+@+%+&+@+@+$+%+@+&+@+#+@+#+#+@+@+@+#+$+$+$+#+#+#+@+#+$+@+@+%+$+@+#+@+$+$+$+@+%+&+@+@+$+%+@+&+#+@+#+@+#+#+@+@+@+#+$+$+$+#+#+#+@+#+$+@+@+%+$+@+#+@+$+$+$+@+%+&+@+@+$+%+@+&+#+@+#+@+#+#+@+@+@+#+$+$+$+#+#+#+@+#+$+@+@+%+$+@+#+@+$+$+$+@+%+&+@+@+$+%+@+&+@+#+@+#+#+@+@+@+#+$+$+$+#+#+#+@+#+$+@+@+%+$+@+#+@+$+$+$+@+%+&+@+@+$+%+@+&+$+$+$+%+$+$+#+#+#+#+*+=+=+=+& -+U.;+- >+",
",+# '+# '+# '+'+'+'+'+'+).'+'+'+'+'+).'+'+'+).'+)+2.).'+).).'+).'+'+'+).# '+!+# '+'+'+'+'+'+).'+'+'+'+'+).'+'+'+).'+)+2.).'+).).'+).'+'+'+).'+!+# '+# '+# '+'+'+'+'+'+).'+'+'+'+'+).'+'+'+).'+)+2.).'+).).'+).'+'+'+).# '+!+# '+# '+# '+'+'+'+'+'+).'+'+'+'+'+).'+'+'+).'+)+2.).'+).).'+).'+'+'+).# '+!+# '+# '+# '+'+'+'+'+'+).'+'+'+'+'+).'+'+'+).'+)+2.).'+).).'+).'+'+'+).'+!+# '+# '+# '+'+'+'+'+'+).'+'+'+'+'+).'+'+'+).'+)+2.).'+).).'+).'+'+'+).).).).'+'+'+'+# !+!+!+~+{+9.]+^+t.)+2./+"};
