/* XPM */
static xpm_string_t high_scores_highlight_xpm[] = {
"240 30 101 2",
"  	c None",
". 	c #00B140",
"+ 	c #007372",
"@ 	c #00C9C1",
"# 	c #00B3AC",
"$ 	c #009992",
"% 	c #008B84",
"& 	c #008A83",
"* 	c #008C85",
"= 	c #008982",
"- 	c #006D68",
"; 	c #009891",
"> 	c #00292A",
", 	c #008280",
"' 	c #00A9A2",
") 	c #007B75",
"! 	c #00433E",
"~ 	c #004847",
"{ 	c #00C8C0",
"] 	c #007C76",
"^ 	c #004742",
"/ 	c #013D3D",
"( 	c #00746E",
"_ 	c #686868",
": 	c #006B66",
"< 	c #00C7BF",
"[ 	c #00655F",
"} 	c #001D1D",
"| 	c #00C6BF",
"1 	c #005F59",
"2 	c #005E58",
"3 	c #002220",
"4 	c #003635",
"5 	c #00C6BE",
"6 	c #005954",
"7 	c #003F3A",
"8 	c #002727",
"9 	c #002E2C",
"0 	c #00544F",
"a 	c #00534D",
"b 	c #002726",
"c 	c #003231",
"d 	c #00514B",
"e 	c #00524C",
"f 	c #004C47",
"g 	c #004B47",
"h 	c #003634",
"i 	c #00C5BD",
"j 	c #004A46",
"k 	c #004A45",
"l 	c #002E2D",
"m 	c #00C4BC",
"n 	c #004944",
"o 	c #002B2A",
"p 	c #006460",
"q 	c #006F69",
"r 	c #00625E",
"s 	c #00312F",
"t 	c #00B5AE",
"u 	c #00312D",
"v 	c #003A36",
"w 	c #00867F",
"x 	c #006C67",
"y 	c #005D59",
"z 	c #00A59E",
"A 	c #003530",
"B 	c #00908A",
"C 	c #00BCB5",
"D 	c #003833",
"E 	c #00ADA6",
"F 	c #002C29",
"G 	c #003B36",
"H 	c #00342F",
"I 	c #003B37",
"J 	c #003834",
"K 	c #00AAA3",
"L 	c #00B7B0",
"M 	c #003934",
"N 	c #003D38",
"O 	c #00B0A9",
"P 	c #009A94",
"Q 	c #00AAA4",
"R 	c #00928C",
"S 	c #00ACA5",
"T 	c #005853",
"U 	c #00A59F",
"V 	c #009F98",
"W 	c #00736E",
"X 	c #005855",
"Y 	c #009F99",
"Z 	c #00605B",
"` 	c #004E4B",
" .	c #007370",
"..	c #00B4AD",
"+.	c #00ABA4",
"@.	c #00B3AB",
"#.	c #00B2AB",
"$.	c #00B1AA",
"%.	c #00AFA8",
"&.	c #00AEA7",
"*.	c #002221",
". . . . . . . . . . . . . . . . + @ # $ % & & % & * & % = = % = = = & & = & = & % % % & % & & & & * & & * = % & % % - - % & % % % = & % = * = & & = & = & % % % & % & & & & * & & * = % & % % - - % & % % % = & % = * = = & & = & = & % % % & % & & & & * & & * = % & % % - - % & % % % = & % = * = = & & = & = & % % % & % & & & & * & & * = % & % % - - % & % % % = & % = * = & & = & = & % % % & % & & & & * & & * = % & % % - - % & % % % = & % = * ; # @ > . . . . . . . . . . . . . . . . ",
". . . . . . . . . . . . . . . , ' ) ! ! ! ! ! ! ! ! ! ! ! ! ! ! ! ! ! ! ! ! ! ! ! ! ! ! ! ! ! ! ! ! ! ! ! ! ! ! ! ! ! ! ! ! ! ! ! ! ! ! ! ! ! ! ! ! ! ! ! ! ! ! ! ! ! ! ! ! ! ! ! ! ! ! ! ! ! ! ! ! ! ! ! ! ! ! ! ! ! ! ! ! ! ! ! ! ! ! ! ! ! ! ! ! ! ! ! ! ! ! ! ! ! ! ! ! ! ! ! ! ! ! ! ! ! ! ! ! ! ! ! ! ! ! ! ! ! ! ! ! ! ! ! ! ! ! ! ! ! ! ! ! ! ! ! ! ! ! ! ! ! ! ! ! ! ! ! ! ! ! ! ! ! ! ! ! ! ! ! ! ! ! ! ! ! ! ! ! ! ! ! ! ! ! ! ! ! ! ! ! ! ! ! ! - ' ~ . . . . . . . . . . . . . . . ",
". . . . . . . . . . . . . . { = ! ! ! ! ! ! ! ! ! ! ! ! ! ! ! ! ! ! ! ! ! ! ! ! ! ! ! ! ! ! ! ! ! ! ! ! ! ! ! ! ! ! ! ! ! ! ! ! ! ! ! ! ! ! ! ! ! ! ! ! ! ! ! ! ! ! ! ! ! ! ! ! ! ! ! ! ! ! ! ! ! ! ! ! ! ! ! ! ! ! ! ! ! ! ! ! ! ! ! ! ! ! ! ! ! ! ! ! ! ! ! ! ! ! ! ! ! ! ! ! ! ! ! ! ! ! ! ! ! ! ! ! ! ! ! ! ! ! ! ! ! ! ! ! ! ! ! ! ! ! ! ! ! ! ! ! ! ! ! ! ! ! ! ! ! ! ! ! ! ! ! ! ! ! ! ! ! ! ! ! ! ! ! ! ! ! ! ! ! ! ! ! ! ! ! ! ! ! ! ! ! ! ! ! ! ! ! ! = { . . . . . . . . . . . . . . ",
". . . . . . . . . . . . . { ] ! ! ! ! ! ! ^ ! ! ! ! ! ! ! ! ! ! ! ! ! ! ! ! ^ ! ! ! ! ! ^ ! ! ! ! ! ! ! ! ! ! ! ! ! ^ ^ ! ! ! ! ! ! ! ! ! ! ! ! ! ! ! ^ ! ! ! ! ! ^ ! ! ! ! ! ! ! ! ! ! ! ! ! ^ ^ ! ! ! ! ! ! ! ! ! ! ! ! ! ! ! ! ^ ! ! ! ! ! ^ ! ! ! ! ! ! ! ! ! ! ! ! ! ^ ^ ! ! ! ! ! ! ! ! ! ! ! ! ! ! ! ! ^ ! ! ! ! ! ^ ! ! ! ! ! ! ! ! ! ! ! ! ! ^ ^ ! ! ! ! ! ! ! ! ! ! ! ! ! ! ! ^ ! ! ! ! ! ^ ! ! ! ! ! ! ! ! ! ! ! ! ! ^ ^ ! ! ! ! ! ! ! ! ! ! ! ! ! ! ! ) { . . . . . . . . . . . . . ",
". . . . . . . . . . . / { ( ! ! ! ! ! ! ! ! ! ! ! ! ! ! _ ! ! ! ! ! ! ! ! ! ! ! ! ! _ ! ! ! ! ! _ ! ! ! ! ! _ _ _ _ _ _ _ _ _ _ _ _ _ _ _ ! ! ! ! ! _ ! ! ! ! ! ! ! ! ! ! ! ! ! _ ! ! ! ! ! ! ! ! ! ! ! ! ! ! _ _ _ _ _ _ _ _ _ _ _ _ _ _ ! ! ! ! ! _ _ _ _ _ _ _ _ _ _ _ _ _ _ _ ! ! ! ! _ _ _ _ _ _ _ _ _ _ _ _ _ _ _ _ ! ! ! ! _ _ _ _ _ _ _ _ _ _ _ _ _ ! ! ! ! ! ! _ _ _ _ _ _ _ _ _ _ _ ! ! ! ! ! _ _ _ _ _ _ _ _ _ _ _ _ _ _ ! ! ! ! ! ! ! ! ! ! ! ! ! ! ! ! ( { . . . . . . . . . . . . ",
". . . . . . . . . . . { : ! ! ! ! ! ! ! ! ! ! ! ! ! ! ! _ _ ! ! ! ! ! ! ! ! ! ! ! _ _ _ ! ! ! _ _ _ ! ! ! _ _ _ _ _ _ _ _ _ _ _ _ _ _ _ _ _ ! ! ! ! _ _ ! ! ! ! ! ! ! ! ! ! ! _ _ _ ! ! ! ! ! ! ! ! ! ! ! ! _ _ _ _ _ _ _ _ _ _ _ _ _ _ _ _ ! ! ! _ _ _ _ _ _ _ _ _ _ _ _ _ _ _ _ _ ! ! _ _ _ _ _ _ _ _ _ _ _ _ _ _ _ _ _ _ ! ! _ _ _ _ _ _ _ _ _ _ _ _ _ _ _ ! ! ! ! _ _ _ _ _ _ _ _ _ _ _ _ ! ! ! ! _ _ _ _ _ _ _ _ _ _ _ _ _ _ _ _ ! ! ! ! ! ! ! ! ! ! ! ! ! ! ! ! : { . . . . . . . . . . . ",
". . . . . . . . . . < [ ! ! ! ! ! ! ! ! ! ! ! ! ! ! ! ! _ _ ! ! ! ! ! ! ! ! ! ! _ _ _ _ ! ! ! _ _ _ ! ! ! _ _ _ ! ! ! ! ! ! ! ! ! ! ! _ _ _ ! ! ! ! _ _ ! ! ! ! ! ! ! ! ! ! _ _ _ _ ! ! ! ! ! ! ! ! ! ! ! _ _ _ ! ! ! ! ! ! ! ! ! ! ! ! _ _ _ ! ! _ _ _ ! ! ! ! ! ! ! ! ! _ _ _ _ _ ! ! _ _ _ _ ! ! ! ! ! ! ! ! ! ! _ _ _ _ ! ! _ _ _ _ _ _ _ _ _ _ _ _ _ _ _ ! ! ! ! _ _ _ _ _ _ _ _ _ _ _ _ ! ! ! _ _ _ ! ! ! ! ! ! ! ! ! ! ! ! _ _ _ ! ! ! ! ! ! ! ! ! ! ! ! ! ! ! ! [ < } . . . . . . . . . ",
". . . . . . . . . | 1 ! ! ! ! ! ! ! ! ! ! ! ! ! ! ! ! ! _ _ ! ! ! ! ! ! ! ! ! ! _ _ _ _ ! ! ! _ _ _ ! ! ! _ _ ! ! ! ! ! ! ! ! ! ! ! ! ! _ _ ! ! ! ! _ _ ! ! ! ! ! ! ! ! ! ! _ _ _ _ ! ! ! ! ! ! ! ! ! ! ! _ _ _ ! ! ! ! ! ! ! ! ! ! ! ! _ _ _ ! ! _ _ ! ! ! ! ! ! ! ! ! ! ! _ _ _ _ ! ! _ _ _ ! ! ! ! ! ! ! ! ! ! ! ! _ _ _ ! ! _ _ ! ! ! ! ! ! ! ! ! ! _ _ _ ! ! ! ! _ _ ! ! ! ! ! ! ! ! ! ! ! ! ! _ _ _ ! ! ! ! ! ! ! ! ! ! ! ! _ _ _ ! ! ! ! ! ! ! ! ! ! ! ! ! ! ! ! ! 2 | 3 . . . . . . . . ",
". . . . . . . 4 5 6 ! ! ! ! ! ! ! ! ! ! ! ! ! ! ! ! ! ! _ _ ! ! ! ! ! ! ! ! ! ! _ _ _ _ ! ! ! _ _ _ ! ! ! _ _ ! ! ! ! ! ! ! ! ! ! ! ! ! _ _ ! ! ! ! _ _ ! ! ! ! ! ! ! ! ! ! _ _ _ _ ! ! ! ! ! ! ! ! ! ! ! _ _ _ 7 7 7 7 7 7 7 7 7 7 7 7 _ _ _ ! ! _ _ ! ! ! ! ! ! ! ! ! ! ! _ _ _ _ ! ! _ _ _ ! ! ! ! ! ! ! ! ! ! ! ! _ _ _ ! ! _ _ ! ! ! ! ! ! ! ! ! ! _ _ _ ! ! ! ! _ _ ! ! ! ! ! ! ! ! ! ! ! ! ! _ _ _ ! ! ! ! ! ! ! ! ! ! ! ! _ _ _ ! ! ! ! ! ! ! ! ! ! ! ! ! ! ! ! ! ! 6 5 8 . . . . . . . ",
". . . . . . 9 | 0 ! ! ! ! ! ! ! ! ! ! ! ! ! ! ! ! ! ! ! _ _ ! ! ! ! ! ! ! ! ! ! _ _ _ _ ! ! ! _ _ _ ! ! ! _ _ ! ! ! ! ! ! ! ! ! ! ! ! ! _ _ ! ! ! ! _ _ ! ! ! ! ! ! ! ! ! ! _ _ _ _ ! ! ! ! ! ! ! ! ! ! ! _ _ _ ! ! ! ! ! ! ! ! ! ! ! ! ! _ ! ! ! _ _ ! ! ! ! ! ! ! ! ! ! ! _ _ _ _ ! ! _ _ _ ! ! ! ! ! ! ! ! ! ! ! ! _ _ _ ! ! _ _ ! ! ! ! ! ! ! ! ! ! _ _ _ ! ! ! ! _ _ ! ! ! ! ! ! ! ! ! ! ! ! ! _ _ _ ! ! ! ! ! ! ! ! ! ! ! ! ! _ ! ! ! ! ! ! ! ! ! ! ! ! ! ! ! ! ! ! ! ! a | b . . . . . . ",
". . . . . c | d ! ! ! ! ! ! ! ! ! ! ! ! ! ! ! ! ! ! ! ! _ _ ! ! ! ! ! ! ! ! ! ! _ _ _ _ ! ! ! _ _ _ ! ! ! _ _ ! ! ! ! ! ! ! ! ! ! ! ! ! ! ! ! ! ! ! _ _ ! ! ! ! ! ! ! ! ! ! _ _ _ _ ! ! ! ! ! ! ! ! ! ! ! _ _ _ ! ! ! ! ! ! ! ! ! ! ! ! ! ! ! ! ! _ _ ! ! ! ! ! ! ! ! ! ! ! ! ! ! ! ! ! _ _ _ ! ! ! ! ! ! ! ! ! ! ! ! _ _ _ ! ! _ _ ! ! ! ! ! ! ! ! ! ! _ _ _ ! ! ! ! _ _ ! ! ! ! ! ! ! ! ! ! ! ! ! _ _ _ ! ! ! ! ! ! ! ! ! ! ! ! ! ! ! ! ! ! ! ! ! ! ! ! ! ! ! ! ! ! ! ! ! ! ! e | . . . . . . ",
". . . . 4 < f ! ! ! ! ! ! ! ! ! ! ! ! ! ! ! ! ! ! ! ! ! _ _ ! ! ! ! ! ! ! ! ! ! _ _ _ _ ! ! ! _ _ _ ! ! ! _ _ ! ! ! ! ! ! ! ! ! ! ! ! ! ! ! ! ! ! ! _ _ ! ! ! ! ! ! ! ! ! ! _ _ _ _ ! ! ! ! ! ! ! ! ! ! ! _ _ _ ! ! ! ! ! ! ! ! ! ! ! ! ! ! ! ! ! _ _ ! ! ! ! ! ! ! ! ! ! ! ! ! ! ! ! ! _ _ _ ! ! ! ! ! ! ! ! ! ! ! ! _ _ _ ! ! _ _ ! ! ! ! ! ! ! ! ! ! _ _ _ ! ! ! ! _ _ ! ! ! ! ! ! ! ! ! ! ! ! ! _ _ _ ! ! ! ! ! ! ! ! ! ! ! ! ! ! ! ! ! ! ! ! ! ! ! ! ! ! ! ! ! ! ! ! ! ! ! ! g < 9 . . . . ",
". . . h i j ! ! ! ! ! ! ! ! ! ! ! ! ! ! ! ! ! ! ! ! ! ! _ _ ! ! ! ! ! ! ! ! ! ! _ _ _ _ ! ! ! _ _ _ ! ! ! _ _ ! ! ! ! ! ! ! ! ! ! ! ! ! ! ! ! ! ! ! _ _ ! ! ! ! ! ! ! ! ! ! _ _ _ _ ! ! ! ! ! ! ! ! ! ! ! _ _ _ ! ! ! ! ! ! ! ! ! ! ! ! ! ! ! ! ! _ _ ! ! ! ! ! ! ! ! ! ! ! ! ! ! ! ! ! _ _ _ ! ! ! ! ! ! ! ! ! ! ! ! _ _ _ ! ! _ _ ! ! ! ! ! ! ! ! ! ! _ _ _ ! ! ! ! _ _ ! ! ! ! ! ! ! ! ! ! ! ! ! _ _ _ ! ! ! ! ! ! ! ! ! ! ! ! ! ! ! ! ! ! ! ! ! ! ! ! ! ! ! ! ! ! ! ! ! ! ! ! ! k i l . . . ",
". . c m n ! ! ! ! ! ! ! ! ! ! ! ! ! ! ! ! ! ! ! ! ! ! _ _ _ ! ! ! ! ! ! ! ! ! ! _ _ _ _ ! ! ! _ _ _ ! ! ! _ _ _ ! ! ! ! ! ! ! ! ! ! ! ! ! ! ! ! ! _ _ _ ! ! ! ! ! ! ! ! ! ! _ _ _ _ ! ! ! ! ! ! ! ! ! ! ! _ _ _ ! ! ! ! ! ! ! ! ! ! ! ! ! ! ! ! ! _ _ _ ! ! ! ! ! ! ! ! ! ! ! ! ! ! ! ! _ _ _ ! ! ! ! ! ! ! ! ! ! ! ! _ _ _ ! ! _ _ _ _ _ _ _ _ _ _ _ _ _ _ _ ! ! ! ! _ _ ! ! ! ! ! ! ! ! ! ! ! ! ! _ _ _ ! ! ! ! ! ! ! ! ! ! ! ! ! ! ! ! ! ! ! ! ! ! ! ! ! ! ! ! ! ! ! ! ! ! ! ! ! ! n m o . . ",
". . < n ! ! ! ! ! ! ! ! ! ! ! ! ! ! ! ! ! ! ! ! ! ! ! _ _ _ _ _ _ _ _ _ _ _ _ _ _ _ _ _ ! ! ! _ _ _ _ ! ! _ _ _ ! ! ! ! ! ! ! ! ! ! ! ! ! ! ! ! ! _ _ _ _ _ _ _ _ _ _ _ _ _ _ _ _ _ ! ! ! ! ! ! ! ! ! ! ! _ _ _ _ _ _ _ _ _ _ _ _ _ _ _ _ _ ! ! ! _ _ ! ! ! ! ! ! ! ! ! ! ! ! ! ! ! ! ! _ _ _ ! ! ! ! ! ! ! ! ! ! ! _ _ _ _ ! ! _ _ _ _ _ _ _ _ _ _ _ _ _ _ _ _ _ ! ! _ _ _ _ _ _ _ _ _ _ _ _ ! ! ! _ _ _ _ _ _ _ _ _ _ _ _ _ _ _ _ _ ! ! ! ! ! ! ! ! ! ! ! ! ! ! ! ! ! ! ! ! ! ! ! ! ! j < . . ",
". p q ! ! ! ! ! ! ! ! ! ! ! ! ! ! ! ! ! ! ! ! ! ! ! _ _ _ _ _ _ _ _ _ _ _ _ _ _ _ _ _ _ _ ! ! _ _ _ _ ! ! _ _ _ _ ! ! ! ! ! ! ! _ _ _ _ _ _ ! ! _ _ _ _ _ _ _ _ _ _ _ _ _ _ _ _ _ _ _ ! ! ! ! ! ! ! ! ! ! ! _ _ _ _ _ _ _ _ _ _ _ _ _ _ _ _ _ ! ! _ _ _ ! ! ! ! ! ! ! ! ! ! ! ! ! ! ! ! _ _ _ ! ! ! ! ! ! ! ! ! ! ! _ _ _ _ ! ! _ _ _ _ _ _ _ _ _ _ _ _ _ _ _ _ _ ! ! _ _ _ _ _ _ _ _ _ _ _ _ ! ! ! ! _ _ _ _ _ _ _ _ _ _ _ _ _ _ _ _ _ ! ! ! ! ! ! ! ! ! ! ! ! ! ! ! ! ! ! ! ! ! ! ! ! ! q r . ",
"s t ! ! ! ! ! ! ! ! ! ! ! ! ! ! ! ! ! ! ! ! ! ! ! ! _ _ _ _ u u v v u v ! v v v _ _ _ _ _ ! ! _ _ _ _ ! ! _ _ _ _ ! ! ! ! ! ! _ _ _ _ _ _ _ ! ! _ _ _ _ ! ! ! ! ! ! ! ! ! ! _ _ _ _ _ ! ! ! ! ! ! ! ! ! ! ! ! ! ! ! ! ! ! ! ! ! ! ! ! _ _ _ _ ! ! _ _ _ ! ! ! ! ! ! ! ! ! ! ! ! ! ! ! ! _ _ _ ! ! ! ! ! ! ! ! ! ! ! _ _ _ _ ! ! _ _ _ _ ! ! ! ! ! ! ! ! ! ! ! _ _ ! ! _ _ _ ! ! ! ! ! ! ! ! ! ! ! ! ! ! ! ! ! ! ! ! ! ! ! ! ! ! _ _ _ _ ! ! ! ! ! ! ! ! ! ! ! ! ! ! ! ! ! ! ! ! ! ! ! ! ! ! t . ",
"w x ! ! ! ! ! ! ! ! ! ! ! ! ! ! ! ! ! ! ! ! ! ! ! ! _ _ _ _ ! ! ! ! ! ! ! ! ! ! _ _ _ _ _ ! ! _ _ _ _ ! ! _ _ _ _ ! ! ! ! ! ! _ _ _ _ _ _ _ ! ! _ _ _ _ ! ! ! ! ! ! ! ! ! ! _ _ _ _ _ ! ! ! ! ! ! ! ! ! ! ! ! ! ! ! ! ! ! ! ! ! ! ! ! _ _ _ _ ! ! _ _ _ ! ! ! ! ! ! ! ! ! ! ! ! ! ! ! ! _ _ _ ! ! ! ! ! ! ! ! ! ! ! _ _ _ _ ! ! _ _ _ _ ! ! ! ! ! ! ! ! ! ! ! _ _ ! ! _ _ _ ! ! ! ! ! ! ! ! ! ! ! ! ! ! ! ! ! ! ! ! ! ! ! ! ! ! _ _ _ _ ! ! ! ! ! ! ! ! ! ! ! ! ! ! ! ! ! ! ! ! ! ! ! ! ! ! q y ",
"z A ! ! ! ! ! ! ! ! ! ! ! ! ! ! ! ! ! ! ! ! ! ! ! ! _ _ _ _ ! ! ! ! ! ! ! ! ! ! _ _ _ _ _ ! ! _ _ _ _ ! ! _ _ _ _ ! ! ! ! ! ! ! ! ! ! ! _ _ ! ! _ _ _ _ ! ! ! ! ! ! ! ! ! ! _ _ _ _ _ ! ! ! ! ! ! ! ! ! ! ! ! ! ! ! ! ! ! ! ! ! ! ! ! _ _ _ _ ! ! _ _ _ ! ! ! ! ! ! ! ! ! ! ! ! _ _ ! ! _ _ _ ! ! ! ! ! ! ! ! ! ! ! _ _ _ _ ! ! _ _ _ _ ! ! ! ! ! ! ! ! ! ! ! _ _ ! ! _ _ _ ! ! ! ! ! ! ! ! ! ! ! ! ! ! ! ! ! ! ! ! ! ! ! ! ! ! _ _ _ _ ! ! ! ! ! ! ! ! ! ! ! ! ! ! ! ! ! ! ! ! ! ! ! ! ! ! ! B ",
"C ! ! ! ! ! ! ! ! ! ! ! ! ! ! ! ! ! ! ! ! ! ! ! ! ! _ _ _ _ ! ! ! ! ! ! ! ! ! ! _ _ _ _ _ ! ! _ _ _ _ ! ! _ _ _ _ ! ! ! ! ! ! ! ! ! ! ! _ _ ! ! _ _ _ _ ! ! ! ! ! ! ! ! ! ! _ _ _ _ _ ! ! ! ! ! ! ! ! ! ! ! ! ! ! ! ! ! ! ! ! ! ! ! ! _ _ _ _ ! ! _ _ _ ! ! ! ! ! ! ! ! ! ! ! ! _ _ ! ! _ _ _ ! ! ! ! ! ! ! ! ! ! ! _ _ _ _ ! ! _ _ _ _ ! ! ! ! ! ! ! ! ! ! ! _ _ ! ! _ _ _ ! ! ! ! ! ! ! ! ! ! ! ! ! ! ! ! ! ! ! ! ! ! ! ! ! ! _ _ _ _ ! ! ! ! ! ! ! ! ! ! ! ! ! ! ! ! ! ! ! ! ! ! ! ! ! ! D E ",
"C ! ! ! ! ! ! ! ! ! ! ! ! ! ! ! ! ! ! ! ! ! ! ! ! ! _ _ _ _ ! ! ! ! ! ! ! ! ! ! _ _ _ _ _ ! ! _ _ _ _ ! ! _ _ _ _ ! ! ! ! ! ! ! ! ! ! ! _ _ F G _ _ _ _ ! ! ! ! ! ! ! ! ! ! _ _ _ _ _ ! ! ! ! ! ! ! ! ! ! _ _ _ ! ! ! ! ! ! ! ! ! ! ! _ _ _ _ ! G _ _ _ ! ! ! ! ! ! ! ! ! ! ! ! _ _ ! ! _ _ _ ! ! ! ! ! ! ! ! ! ! ! _ _ _ _ G H _ _ _ _ ! ! ! ! ! ! ! ! ! ! ! _ _ ! ! _ _ _ ! ! ! ! ! ! ! ! ! ! ! ! _ _ _ ! ! ! ! ! ! ! ! ! ! ! _ _ _ _ ! I ! I ! J D I D ! J J D ! I ! ! ! ! ! ! ! ! ! ! ! J K ",
"L ! ! ! ! ! ! ! ! ! ! ! ! ! ! ! ! ! ! ! ! ! ! ! ! ! _ _ _ _ ! ! ! ! ! ! ! ! ! ! _ _ _ _ _ ! ! _ _ _ _ ! ! _ _ _ _ ! ! ! ! ! ! ! ! ! ! ! _ _ ! ! _ _ _ _ ! ! ! ! ! ! ! ! ! ! _ _ _ _ _ ! ! ! ! ! ! ! ! ! ! _ _ _ ! ! ! ! ! ! ! ! ! ! ! _ _ _ _ ! ! _ _ _ ! ! ! ! ! ! ! ! ! ! ! ! _ _ ! ! _ _ _ ! ! ! ! ! ! ! ! ! ! ! _ _ _ _ ! ! _ _ _ _ ! ! ! ! ! ! ! ! ! ! ! _ _ ! ! _ _ _ ! ! ! ! ! ! ! ! ! ! ! ! _ _ _ ! ! ! ! ! ! ! ! ! ! ! _ _ _ _ ! ! ! ! ! ! ! ! ! ! ! ! ! ! ! ! ! ! ! M ! N ! J J J ! z ",
"O ! ! ! ! ! ! ! ! ! ! ! ! ! ! ! ! ! ! ! ! ! ! ! ! ! _ _ _ _ ! ! ! ! ! ! ! ! ! ! _ _ _ _ _ ! ! _ _ _ _ ! ! _ _ _ _ _ ! ! ! ! ! ! ! ! ! ! _ _ ! ! _ _ _ _ ! ! ! ! ! ! ! ! ! ! _ _ _ _ _ ! ! ! ! ! ! ! ! ! ! _ _ _ ! ! ! ! ! ! ! ! ! ! ! _ _ _ _ ! ! _ _ _ _ ! ! ! ! ! ! ! ! ! ! ! _ _ ! ! _ _ _ ! ! ! ! ! ! ! ! ! ! ! _ _ _ _ ! ! _ _ _ _ ! ! ! ! ! ! ! ! ! ! ! _ _ ! ! _ _ _ ! ! ! ! ! ! ! ! ! ! ! ! _ _ _ ! ! ! ! ! ! ! ! ! ! ! _ _ _ _ ! ! ! ! ! ! ! ! ! ! ! ! ! ! ! ! ! ! ! ! ! ! ! ! ! ! ! P ",
"Q ! ! ! ! ! ! ! ! ! ! ! ! ! ! ! ! ! ! ! ! ! ! ! ! ! _ _ _ _ ! ! ! ! ! ! ! ! ! ! _ _ _ _ _ ! ! _ _ _ _ ! ! _ _ _ _ _ _ _ _ _ _ _ _ _ _ _ _ _ ! ! _ _ _ _ ! ! ! ! ! ! ! ! ! ! _ _ _ _ _ ! ! ! ! ! ! ! ! ! ! _ _ _ _ _ _ _ _ _ _ _ _ _ _ _ _ _ _ ! ! _ _ _ _ _ _ _ _ _ _ _ _ _ _ _ _ _ ! ! _ _ _ _ _ _ _ _ _ _ _ _ _ _ _ _ _ _ ! ! _ _ _ _ ! ! ! ! ! ! ! ! ! ! ! _ _ ! ! _ _ _ _ _ _ _ _ _ _ _ _ _ ! ! _ _ _ _ _ _ _ _ _ _ _ _ _ _ _ _ _ _ ! ! ! ! ! ! ! ! ! ! ! ! ! ! ! ! ! ! ! ! ! ! ! ! ! ! ! R ",
"S ! ! ! ! ! ! ! ! ! ! ! ! ! ! ! ! ! ! ! ! ! ! ! ! ! _ _ _ _ ! ! ! ! ! ! ! ! ! ! _ _ _ _ _ ! ! _ _ _ _ ! ! _ _ _ _ _ _ _ _ _ _ _ _ _ _ _ _ _ ! ! _ _ _ _ ! ! ! ! ! ! ! ! ! ! _ _ _ _ _ ! ! ! ! ! ! ! ! ! ! ! _ _ _ _ _ _ _ _ _ _ _ _ _ _ _ _ ! ! ! _ _ _ _ _ _ _ _ _ _ _ _ _ _ _ _ _ ! ! _ _ _ _ _ _ _ _ _ _ _ _ _ _ _ _ _ _ ! ! _ _ _ _ ! ! ! ! ! ! ! ! ! ! ! _ _ ! ! _ _ _ _ _ _ _ _ _ _ _ _ _ ! ! ! _ _ _ _ _ _ _ _ _ _ _ _ _ _ _ _ ! ! ! ! ! ! ! ! ! ! ! ! ! ! ! ! ! ! ! ! ! ! ! ! ! ! ! ! T ",
"U ! ! ! ! ! ! ! ! ! ! ! ! ! ! ! ! ! ! ! ! ! ! ! ! ! ! ! ! ! ! ! ! ! ! ! ! ! ! ! ! ! ! ! ! ! ! ! ! ! ! ! ! ! ! ! ! ! ! ! ! ! ! ! ! ! ! ! ! ! ! ! ! ! ! ! ! ! ! ! ! ! ! ! ! ! ! ! ! ! ! ! ! ! ! ! ! ! ! ! ! ! ! ! ! ! ! ! ! ! ! ! ! ! ! ! ! ! ! ! ! ! ! ! ! ! ! ! ! ! ! ! ! ! ! ! ! ! ! ! ! ! ! ! ! ! ! ! ! ! ! ! ! ! ! ! ! ! ! ! ! ! ! ! ! ! ! ! ! ! ! ! ! ! ! ! ! ! ! ! ! ! ! ! ! ! ! ! ! ! ! ! ! ! ! ! ! ! ! ! ! ! ! ! ! ! ! ! ! ! ! ! ! ! ! ! ! ! ! ! ! ! ! ! ! ! ! ! ! ! ! ! ! ! ! ! ! ! ! ! ",
"V ! ! ! ! ! ! ! ! ! ! ! ! ! ! ! ! ! ! ! ! ! ! ! ! ! ! ! ! ! ! ! ! ! ! ! ! ! ! ! ! ! ! ! ! ! ! ! ! ! ! ! ! ! ! ! ! ! ! ! ! ! ! ! ! ! ! ! ! ! ! ! ! ! ! ! ! ! ! ! ! ! ! ! ! ! ! ! ! ! ! ! ! ! ! ! ! ! ! ! ! ! ! ! ! ! ! ! ! ! ! ! ! ! ! ! ! ! ! ! ! ! ! ! ! ! ! ! ! ! ! ! ! ! ! ! ! ! ! ! ! ! ! ! ! ! ! ! ! ! ! ! ! ! ! ! ! ! ! ! ! ! ! ! ! ! ! ! ! ! ! ! ! ! ! ! ! ! ! ! ! ! ! ! ! ! ! ! ! ! ! ! ! ! ! ! ! ! ! ! ! ! ! ! ! ! ! ! ! ! ! ! ! ! ! ! ! ! ! ! ! ! ! ! ! ! ! ! ! ! ! ! ! ! ! ! ! ! ! ! ",
"W ! ! ! ! ! ! ! ! ! ! ! ! ! ! ! ! ! ! ! ! ! ! ! ! ! ! ! ! ! ! ! ! ! ! ! ! ! ! ! ! ! ! ! ! ! ! ! ! ! ! ! ! ! ! ! ! ! ! ! ! ! ! ! ! ! ! ! ! ! ! ! ! ! ! ! ! ! ! ! ! ! ! ! ! ! ! ! ! ! ! ! ! ! ! ! ! ! ! ! ! ! ! ! ! ! ! ! ! ! ! ! ! ! ! ! ! ! ! ! ! ! ! ! ! ! ! ! ! ! ! ! ! ! ! ! ! ! ! ! ! ! ! ! ! ! ! ! ! ! ! ! ! ! ! ! ! ! ! ! ! ! ! ! ! ! ! ! ! ! ! ! ! ! ! ! ! ! ! ! ! ! ! ! ! ! ! ! ! ! ! ! ! ! ! ! ! ! ! ! ! ! ! ! ! ! ! ! ! ! ! ! ! ! ! ! ! ! ! ! ! ! ! ! ! ! ! ! ! ! ! ! ! ! ! ! ! ! ! X ",
"Y ! ! ! ! ! ! ! ! ! ! ! ! ! ! ! ! ! ! Z ! ! ! ! ! ! ! ! Z ( ! ! ! Z ! ( ! ! ! ! ! ! ! ! ! ! ! ! ! ! ! ! ! Z ! ! ! ! ! ! ! ! Z ( ! ! ! Z ! ( ! ! ! ! ! ! ! ! ! ! ! ! ! ! ! ! ! ! ! ! Z ! ! ! ! ! ! ! ! Z ( ! ! ! Z ! ( ! ! ! ! ! ! ! ! ! ! ! ! ! ! ! ! ! ! ! ! ! Z ! ! ! ! ! ! ! ! Z ( ! ! ! Z ! ( ! ! ! ! ! ! ! ! ! ! ! ! ! ! ! ! ! ! ! ! ! Z ! ! ! ! ! ! ! ! Z ( ! ! ! Z ! ( ! ! ! ! ! ! ! ! ! ! ! ! ! ! ! ! ! ! ! ! Z ! ! ! ! ! ! ! ! Z ( ! ! ! Z ! ( ! ! ! Z ! ! ! ! ! ! ! ! ! ! ! ! ! ! ! ` ",
" .# ..# ..# ............t ..........t ......t ..+.K t ..t t ..t ......t # ..@.# ............t ..........t ......t ..+.K t ..t t ..t ......t ..@.# ..# ..# ............t ..........t ......t ..+.K t ..t t ..t ......t # ..@.# ..# ..# ............t ..........t ......t ..+.K t ..t t ..t ......t # ..@.# ..# ..# ............t ..........t ......t ..+.K t ..t t ..t ......t ..@.# ..# ..# ............t ..........t ......t ..+.K t ..t t ..t ......t t t t ........# @.@.@.#.$.O %.&.S +.K *."};
