/* XPM */
static xpm_string_t local_mode_xpm[] = {
"240 30 207 2",
"  	c None",
". 	c #00B140",
"+ 	c #007372",
"@ 	c #00C9C1",
"# 	c #00B3AC",
"$ 	c #009992",
"% 	c #008B84",
"& 	c #008A83",
"* 	c #008C85",
"= 	c #008982",
"- 	c #007E78",
"; 	c #009891",
"> 	c #00292A",
", 	c #008280",
"' 	c #00A9A2",
") 	c #00807A",
"! 	c #006C67",
"~ 	c #006E68",
"{ 	c #006D67",
"] 	c #006B66",
"^ 	c #006B65",
"/ 	c #004847",
"( 	c #00C8C0",
"_ 	c #005F59",
": 	c #005E58",
"< 	c #005F5A",
"[ 	c #005D58",
"} 	c #007C76",
"| 	c #00504A",
"1 	c #00514B",
"2 	c #00524C",
"3 	c #004F4A",
"4 	c #007B75",
"5 	c #013D3D",
"6 	c #00746E",
"7 	c #00423C",
"8 	c #00433E",
"9 	c #00413C",
"0 	c #00423D",
"a 	c #004440",
"b 	c #0EECE3",
"c 	c #003632",
"d 	c #003530",
"e 	c #00342F",
"f 	c #12BDB5",
"g 	c #0FDED5",
"h 	c #00332E",
"i 	c #00C7BF",
"j 	c #00655F",
"k 	c #002B27",
"l 	c #002925",
"m 	c #002A27",
"n 	c #002924",
"o 	c #002C28",
"p 	c #002723",
"q 	c #001D1D",
"r 	c #00C6BF",
"s 	c #00201D",
"t 	c #00201B",
"u 	c #00211E",
"v 	c #001E1B",
"w 	c #00221F",
"x 	c #002220",
"y 	c #003635",
"z 	c #00C6BE",
"A 	c #005954",
"B 	c #001614",
"C 	c #001916",
"D 	c #001512",
"E 	c #001815",
"F 	c #001411",
"G 	c #002727",
"H 	c #002E2C",
"I 	c #00544F",
"J 	c #000E0D",
"K 	c #000D0C",
"L 	c #000D0A",
"M 	c #000F0D",
"N 	c #000C09",
"O 	c #00110E",
"P 	c #00534D",
"Q 	c #002726",
"R 	c #003231",
"S 	c #000806",
"T 	c #000706",
"U 	c #000606",
"V 	c #000A07",
"W 	c #004C47",
"X 	c #000505",
"Y 	c #000404",
"Z 	c #004B47",
"` 	c #003634",
" .	c #00C5BD",
"..	c #004A46",
"+.	c #000403",
"@.	c #000303",
"#.	c #004A45",
"$.	c #002E2D",
"%.	c #00C4BC",
"&.	c #004944",
"*.	c #000202",
"=.	c #002B2A",
"-.	c #000101",
";.	c #38E2DA",
">.	c #006460",
",.	c #006F69",
"'.	c #00625E",
").	c #00312F",
"!.	c #00B5AE",
"~.	c #00867F",
"{.	c #000605",
"].	c #005D59",
"^.	c #00A59E",
"/.	c #000A08",
"(.	c #003935",
"_.	c #00908A",
":.	c #00BCB5",
"<.	c #00ADA6",
"[.	c #000B08",
"}.	c #001310",
"|.	c #001A17",
"1.	c #001210",
"2.	c #001C19",
"3.	c #00AAA3",
"4.	c #00B7B0",
"5.	c #00231F",
"6.	c #002420",
"7.	c #001D1A",
"8.	c #002421",
"9.	c #001B18",
"0.	c #00B0A9",
"a.	c #002D2A",
"b.	c #002D29",
"c.	c #002F2B",
"d.	c #002E2A",
"e.	c #00302C",
"f.	c #00312D",
"g.	c #002623",
"h.	c #009A94",
"i.	c #00AAA4",
"j.	c #003C38",
"k.	c #003B37",
"l.	c #003D38",
"m.	c #003D39",
"n.	c #003F3A",
"o.	c #00403B",
"p.	c #003A36",
"q.	c #003834",
"r.	c #003733",
"s.	c #00928C",
"t.	c #00ACA5",
"u.	c #004E48",
"v.	c #004F49",
"w.	c #0FCEC6",
"x.	c #4ED8D1",
"y.	c #9A9A9A",
"z.	c #004843",
"A.	c #004642",
"B.	c #00827D",
"C.	c #00A59F",
"D.	c #00615B",
"E.	c #00625C",
"F.	c #00635C",
"G.	c #00645D",
"H.	c #005C57",
"I.	c #005853",
"J.	c #005651",
"K.	c #007773",
"L.	c #009F98",
"M.	c #00716B",
"N.	c #006F6A",
"O.	c #00706A",
"P.	c #00726C",
"Q.	c #00736D",
"R.	c #006963",
"S.	c #006965",
"T.	c #009690",
"U.	c #00847D",
"V.	c #00847E",
"W.	c #00837C",
"X.	c #00827C",
"Y.	c #00857F",
"Z.	c #008780",
"`.	c #008079",
" +	c #007973",
".+	c #007670",
"++	c #005855",
"@+	c #009F99",
"#+	c #00948D",
"$+	c #00938C",
"%+	c #00958E",
"&+	c #00968F",
"*+	c #009790",
"=+	c #00918A",
"-+	c #008F88",
";+	c #008881",
">+	c #00817B",
",+	c #004E4B",
"'+	c #007370",
")+	c #00B4AD",
"!+	c #00ABA4",
"~+	c #00B3AB",
"{+	c #00B2AB",
"]+	c #00B1AA",
"^+	c #00AFA8",
"/+	c #00AEA7",
"(+	c #002221",
". . . . . . . . . . . . . . . . + @ # $ % & & % & * & % = = % = = = & & = & = & % % % & % & & & & * & & * = % & % % - - % & % % % = & % = * = & & = & = & % % % & % & & & & * & & * = % & % % - - % & % % % = & % = * = = & & = & = & % % % & % & & & & * & & * = % & % % - - % & % % % = & % = * = = & & = & = & % % % & % & & & & * & & * = % & % % - - % & % % % = & % = * = & & = & = & % % % & % & & & & * & & * = % & % % - - % & % % % = & % = * ; # @ > . . . . . . . . . . . . . . . . ",
". . . . . . . . . . . . . . . , ' ) ! ~ ~ ! ! { ! { ] { { ~ { { ! { ] ! ! { ^ { { ! { { ! ] { { ! ! { { { { { ] { { { ! ~ ! ! ~ ! { ! ~ ! { { ] ! ! { ^ { { ! { { ! ] { { ! ! { { { { { ] { { { ! ~ ! ! ~ ! { ! ~ ! { ! { ] ! ! { ^ { { ! { { ! ] { { ! ! { { { { { ] { { { ! ~ ! ! ~ ! { ! ~ ! { ! { ] ! ! { ^ { { ! { { ! ] { { ! ! { { { { { ] { { { ! ~ ! ! ~ ! { ! ~ ! { { ] ! ! { ^ { { ! { { ! ] { { ! ! { { { { { ] { { { ! ~ ! ! ~ ! { ! ~ ! { ~ ! - ' / . . . . . . . . . . . . . . . ",
". . . . . . . . . . . . . . ( = _ : : _ _ < : _ : _ : < : _ _ : [ : [ : _ : : : : _ [ : : : _ _ : < : : [ _ : : _ [ : _ _ _ : : [ : _ : [ _ : [ : _ : : : : _ [ : : : _ _ : < : : [ _ : : _ [ : _ _ _ : : [ : _ : [ _ [ : [ : _ : : : : _ [ : : : _ _ : < : : [ _ : : _ [ : _ _ _ : : [ : _ : [ _ [ : [ : _ : : : : _ [ : : : _ _ : < : : [ _ : : _ [ : _ _ _ : : [ : _ : [ _ : [ : _ : : : : _ [ : : : _ _ : < : : [ _ : : _ [ : _ _ _ : : [ : _ : [ _ < _ : _ = ( . . . . . . . . . . . . . . ",
". . . . . . . . . . . . . ( } | | 1 1 | 1 2 1 | 1 | | | | | 1 | 1 | | 1 3 | 2 1 3 1 | | 2 | | 1 | 1 | 1 1 3 1 1 3 | 2 2 1 | 1 1 1 | 1 | 1 1 | | 1 3 | 2 1 3 1 | | 2 | | 1 | 1 | 1 1 3 1 1 3 | 2 2 1 | 1 1 1 | 1 | 1 1 1 | | 1 3 | 2 1 3 1 | | 2 | | 1 | 1 | 1 1 3 1 1 3 | 2 2 1 | 1 1 1 | 1 | 1 1 1 | | 1 3 | 2 1 3 1 | | 2 | | 1 | 1 | 1 1 3 1 1 3 | 2 2 1 | 1 1 1 | 1 | 1 1 | | 1 3 | 2 1 3 1 | | 2 | | 1 | 1 | 1 1 3 1 1 3 | 2 2 1 | 1 1 1 | 1 | 1 1 | 1 1 3 | 4 ( . . . . . . . . . . . . . ",
". . . . . . . . . . . 5 ( 6 7 8 9 0 a 0 8 0 a 8 7 0 0 0 8 8 0 b b b 0 8 7 8 a 0 0 0 0 0 7 0 0 0 b b b b b b b b b b b b b b b b 0 8 7 7 b b b b b b b b b b b b b b b 0 0 a 8 0 b b b b b b b b b b b b b b b 7 7 0 7 0 8 b b b 8 a 0 0 0 0 0 7 0 0 0 a 8 0 a a 0 0 7 9 8 0 8 0 b b b b b b b b 7 0 8 b b b b b b b 0 0 0 7 0 b b b b b b b b b b b b b b b b 0 8 0 8 b b b b b b b b b b b b b b 0 7 0 0 0 b b b b b b b b b b b 8 0 0 0 8 0 8 7 7 0 7 0 0 a 8 8 0 6 ( . . . . . . . . . . . . ",
". . . . . . . . . . . ( ] c d c c c c c d c c c c d d c c c d b b b c c c d c c c c c c e c d b b b b b b b b b b b b b b b b b b d d b b b b b b b b b b b b b b b b b d d d d b b b b b b b b b b b b b b b b d c c c d b b b d c c c c c c e c d d d d d c c c d c d d c c b b b b b b b b b b b b b b b b b b b b c c e b b b b b b b b b b b b b b b b b b c d b b b b b f b b b b b b b b b b b c d b b b b g b b b b b b b c d c c c d d d d c c c c d c c c h ] ( . . . . . . . . . . . ",
". . . . . . . . . . i j k l k m m n k m l k k k m l l l k m l b b b k l k n m m l m l k o l m b b b b k m m m n k p k m l b b b b m m b b b l k l k n m m l m b b b b b n k m m b b m m n k p k m l m k l b b b l k m o l b b b n m m l m l k o l m n k m m k m m m n k p k m b b b b b b b b b b b b b b b b b b b b b k o b b b b m m k m m m n k p k b b b b l o b b b k m l k l k n m m l m b b b l m b b b b b b b b b b b b m l m k l o m m l k m n o k m m n k n j i q . . . . . . . . . ",
". . . . . . . . . r _ s t s u t t v t t u t s v u t s t t v w b b b s t v t s v s s s t s t v b b b u t t t t t t t t t s u b b b t s b b t t s t v t s v s s s b b b b u t v u b b t t t t t t t s u s t b b b t t t s t b b b t s v s s s t s t v u t v u t t t t t t t t t b b b t v t s t t b b b s t v t s v b b b t s b b b t v u t t t t t t t t t b b b t v b b t t t t s t v t s v s s s b b t v b b v u t t t t t t t t t s u s t v t s t t t u s t t s v s t t : r x . . . . . . . . ",
". . . . . . . y z A B C B B B D D D B D B B B B B B B D B D B b b b B B B B B B B E B B B B B b b b B C B B B B B B B D B B b b b B B b b B B B B B B B B B E B b b b b D B B B b b B B B B B B D B B B B b b b B D B B B b b b B B B B E B B B B B D B B B C B B B B B B B D b b b B B B B B D b b b B B B B B B b b B B B b b b B B B C B B B B B B B D b b b B B b b B D B B B B B B B B B E B b b B B b b B B C B B B B B B B D B B B B B B B B D B B B B B B B B B D F A z G . . . . . . . ",
". . . . . . H r I J K L L K L K K K M J L L K K N J K K J K K b b b N K J K J J M N J L L J L b b b M L K K K J K L M J M K b b b J J b b M K N K J K J J M N J b b b b K O J M b b K K J K L M J M K J J b b b K O M L K b b b K J J M N J L L J L K O J M L K K K J K L M J b b b J K J J K O b b b N K J K J J b b b L L b b b O J M L K K K J K L M J b b b J K b b K O M K N K J K J J M N J b b J L b b J M L K K K J K L M J M K J J K J J K O M J L K L K K K J J K J P r Q . . . . . . ",
". . . . . R r 1 S T U S V S T S U S U T T U S T S T T U S T U b b b T V U S T T T S V S S S T b b b T S V T T S T S U U T T b b b S U b b T T T V U S T T T S V S S S T S T T T b b T T S T S U U T T S T b b b S T T V T b b b S T T T S V S S S T S T T T S V T T S T S U U b b b T S S U S T b b b T V U S T T b b b S S b b b T T T S V T T S T S U U b b b T S b b S T T T T V U S T T T S V b b S T b b T T S V T T S T S U U T T S T S S U S T T T U S S S V U T S T T S 2 r . . . . . . ",
". . . . y i W X X Y X X Y Y X X X X X Y X X Y Y X X X X X Y X b b b X X X X X Y X X Y Y Y X X b b b X X Y Y X X X Y X Y X X b b b X X b b Y Y X X X X X Y X X Y Y Y X X X X Y X b b Y X X X Y X Y X X Y Y b b b X X Y Y Y b b b X X Y X X Y Y Y X X X X Y X X Y Y X X X Y X Y b b b Y X X X X X b b b X X X X X Y b b b Y Y b b b X Y X X Y Y X X X Y X Y b b b Y X b b X X Y Y X X X X X Y X X Y b b X X b b Y X X Y Y X X X Y X Y X X Y Y X X X X X Y X X Y Y X X X X X Y X X Y Z i H . . . . ",
". . . `  ...+.Y +.+.Y @.@.+.@.+.@.Y +.+.Y @.@.+.@.Y +.Y +.+.Y b b b @.Y +.+.+.+.+.@.@.+.@.+.+.b b b +.@.@.+.@.Y +.+.@.+.Y @.b b b Y +.b b +.+.@.Y +.+.+.+.+.@.@.+.@.+.+.Y +.+.+.b b +.@.Y +.+.@.+.Y @.@.@.b b b Y +.+.@.+.b b b +.+.+.+.@.@.+.@.+.+.Y +.+.+.@.@.+.@.Y +.+.@.+.b b b @.@.Y +.Y +.b b b @.Y +.+.+.+.b b b +.@.b b b +.+.+.@.@.+.@.Y +.+.@.+.b b b @.@.b b Y +.+.+.@.Y +.+.+.+.+.@.@.b b +.+.b b +.+.@.@.+.@.Y +.+.@.+.Y @.@.@.@.Y +.Y +.+.Y @.@.+.@.Y +.Y +.+.Y @.@.@.#. .$.. . . ",
". . R %.&.*.*.*.*.*.*.@.*.*.*.*.*.*.*.*.*.@.*.*.*.*.*.*.*.*.*.b b b *.*.*.*.*.*.*.@.*.*.*.*.*.b b b *.@.*.*.*.*.*.*.*.*.*.@.b b b *.*.b b b *.*.*.*.*.*.*.*.@.*.*.*.*.*.*.*.*.*.b b *.*.*.*.*.*.*.*.@.*.*.b b b *.*.*.*.*.b b b *.*.*.*.@.*.*.*.*.*.*.*.*.*.@.*.*.*.*.*.*.*.*.b b b *.*.*.*.*.*.b b b *.*.*.*.*.*.b b b *.*.b b b *.*.*.@.*.*.*.*.*.*.*.*.b b b *.*.b b b *.*.*.*.*.*.*.*.*.*.@.*.b b *.*.b b *.*.@.*.*.*.*.*.*.*.*.*.@.*.*.*.*.*.*.*.*.*.@.*.*.*.*.*.*.*.*.*.@.*.*.*.&.%.=.. . ",
". . i &.-.*.*.*.*.*.*.*.*.-.-.*.*.*.*.*.*.*.*.-.-.*.*.*.*.*.*.b b b -.*.*.*.*.*.*.*.*.-.-.*.*.b b b *.@.*.*.*.*.*.*.*.*.*.b b b b *.*.b b ;.-.-.*.*.*.*.*.*.*.*.-.-.*.*.*.*.*.b b b b b b b b b b b b b b b b b *.*.*.*.-.b b b *.*.*.*.*.*.-.-.*.*.*.*.*.*.@.*.*.*.*.*.*.*.*.b b b *.*.*.*.*.*.b b b -.*.*.*.*.*.b b b -.-.b b b *.*.*.@.*.*.*.*.*.*.*.b b b b *.*.b b b *.*.-.-.*.*.*.*.*.*.*.*.b b *.*.b b b b b b b b b b b b *.*.*.@.*.*.*.*.*.*.*.*.@.@.*.*.*.*.*.*.*.*.@.@.*.*.*...i . . ",
". >.,.*.*.*.*.*.*.*.*.*.*.*.*.*.*.*.*.*.*.*.*.*.*.*.*.*.*.*.b b b b *.*.*.*.*.*.*.@.*.*.*.*.*.b b b *.@.*.*.*.*.*.*.*.*.*.b b b b *.*.b b b *.*.*.*.*.*.*.*.@.*.*.*.*.*.*.*.*.b b b b b b b b b b b b b b b b b b *.*.*.b b b b *.*.*.*.@.*.*.*.*.*.*.*.*.*.@.*.*.*.*.*.*.*.*.b b b b *.*.*.*.*.b b b *.*.*.*.*.*.b b b *.*.b b b *.*.*.@.*.*.*.*.*.*.*.b b b b @.*.b b b *.*.*.*.*.*.*.*.*.*.@.*.b b *.*.b b b b b b b b b b b b *.*.@.*.@.*.*.*.*.*.*.*.@.*.@.*.*.*.*.*.*.*.@.*.@.*.*.*.,.'.. ",
").!.L *.*.*.*.*.*.*.*.*.*.*.*.*.*.*.*.*.*.*.*.*.*.*.@.*.*.b b b b b *.@.+.@.@.@.@.*.@.@.@.@.+.b b b @.@.@.+.@.+.Y @.+.Y +.b b b b +.Y b b b @.*.@.+.@.@.@.@.*.@.@.@.@.+.@.@.b b b b +.@.+.Y @.+.Y +.@.Y +.b b b b +.+.b b b b b @.@.@.@.*.@.@.@.@.+.@.@.+.@.@.@.+.@.+.Y @.+.Y b b b b @.+.Y @.+.b b b *.@.+.@.@.@.b b b @.@.b b b @.+.@.@.@.+.@.+.Y @.+.b b b b +.@.b b b +.+.@.*.@.+.@.@.@.@.*.@.b b @.+.b b b @.@.@.+.@.+.Y @.+.Y +.@.Y +.@.+.Y @.+.+.@.@.Y +.@.+.Y @.@.Y +.@.+.@.@.@.@.J !.. ",
"~.! *.*.*.*.*.*.*.*.*.*.*.*.*.*.@.+.@.+.@.*.@.*.@.@.Y Y Y b b b b b Y Y Y Y Y X Y Y X Y Y Y X b b b X X X Y Y X X X X X X b b b b X {.b b b Y Y Y Y Y Y X Y Y X Y Y Y X X X b b b b Y Y X X X X X X X X Y b b b b X X b b b b b Y Y X Y Y X Y Y Y X X X X X X X Y Y X X X X X b b b b Y X {.X X b b b Y Y Y Y Y X b b b Y Y b b b X X X X X Y Y X X X X b b b b Y Y b b b X X Y Y Y Y Y Y X Y Y X b b Y X b b b X X X Y Y X X X X X X X X Y Y X {.X X X X X X Y X X {.X X {.Y Y Y Y Y Y Y Y ,.].",
"^.d *.*.+.@.@.*.@.@.@.@.@.@.Y Y Y Y +.Y Y Y Y Y U X {.X X b b b b b V U T U U U U U U U /.U U b b b T U U U /.U S U T S S b b b b S V b b b U V U T U U U U U U U /.b b U U b b b b U /.U S U T S S T T S b b b b U T b b b b b U U U U U U U /.U U U U U T U U U /.U S U T S b b b b N S V S U b b b V U T U U U b b b U /.b b b U U T U U U /.U S U T b b b b S N b b b U T U V U T U U U U U U b b U U b b b T U U U /.U S U T S S T T S N S V S U T S S U T N V V T T T S T {.U S U {.X (._.",
":.M Y Y +.Y +.+.+.Y Y X Y X Y X X X X U T S T S U S S U S b b b b b N L L L N K K J K K K L L b b b K K K K K K K K J J M b b b b M L b b b N N L L L N K K J K K K b b L K b b b b K K K K K J J M O M O b b b b K M b b b b b L N K K J K K K L L L K K K K K K K K K K J J b b b b K M L K K b b b N L L L N K b b b K K b b b K K K K K K K K K K J b b b b O K b b b K M N N L L L N K K J K b b L L b b b K K K K K K K K J J M O M O K M L K K M K M K M K J L K N K L K L L N N S V C <.",
":.M U {.{.X X U {.T U T V /.S T S V [.L L K J O J K K J M b b b b b F }.}.B B B B D E D F D B b b b B E B C B B B E C E B b b b b E B b b b B F }.}.B B B B D E D F b b B B b b b b C B B B E C E B B B E b b b b C E b b b b b B B B B D E D F D B B B B B E B C B B B E C E b b b b B E B |.C b b b F }.}.B B B b b b D F b b b B B B E B C B B B E C b b b b E B b b b C E B F }.}.B B B B D E b b D B b b b B E B C B B B E C E B B B E B E B |.C E C B |.|.C B E D B B F B B B D O 1.M 2.3.",
"4.v u u u 5.t t u s 6.s u w 5.w 7.t 5.5.w u u 5.6.8.s u w b b b b b 6.s u s w 5.t t u s 6.s u b b b 7.t 5.5.w u u 5.6.8.s b b b b w w b b b s w v u u u 5.t t u s 6.b b w 5.b b b b 5.w u u 5.6.8.s u w w b b b b 6.s b b b b b u u 5.t t u s 6.s u w 5.w 7.t 5.5.w u u 5.6.8.b b b b 5.w w 6.6.b b b w v u u u 5.b b b s 6.b b b 5.w 7.t 5.5.w u u 5.6.b b b b w 5.b b b 6.s s w v u u u 5.t t u b b s u b b b 7.t 5.5.w u u 5.6.8.s u w w 5.w w 6.6.s w s 5.5.6.s u 5.w w u v u t s 2.9.|.w ^.",
"0.a.b.o c.c.d.a.a.a.d.a.b.a.e.c.f.d.b.a.c.c.c.a.c.f.f.a.a.b b b b b f.f.o o d.c.d.a.a.a.d.a.b.b b b f.d.b.a.c.c.c.a.c.f.f.b b b b f.d.b b b b d.a.b.o c.c.d.a.a.a.d.b b a.e.b b b b a.c.c.c.a.c.f.f.a.a.c.b b b b f.f.b b b b b o c.c.d.a.a.a.d.a.b.a.e.c.f.d.b.a.c.c.c.a.c.f.b b b b f.f.d.b.f.b b b d.a.b.o c.c.b b b a.d.b b b e.c.f.d.b.a.c.c.c.a.c.b b b b c.f.b b b b f.o d.a.b.o c.c.d.a.a.b b a.b.b b b f.d.b.a.c.c.c.a.c.f.f.a.a.c.f.f.d.b.f.f.f.a.d.f.e.f.c.c.c.e.b.k m m n p g.8.d.h.",
"i.j.k.l.k.j.j.l.l.m.n.l.l.j.m.n.o.m.l.o.n.n.l.m.l.o.m.o.l.b b b b b b b b b b b b b b b b l.l.b b b b b b b b b b b b b b b b b b m.l.b b b b b b b b b b b b b b b b b j.m.b b b b o.n.n.l.m.l.o.m.o.l.0 b b b b j.m.b b b b b b b b b b b b b b b b m.n.o.m.l.o.n.n.l.m.l.o.b b b b o.m.l.m.j.b b b m.j.k.l.k.j.b b b m.n.b b b b b b b b b b b b b b b b b b 0 o.b b b b b b b b b b b b b b b b b l.l.b b b b b b b b b b b b b m.o.l.0 o.m.l.m.j.m.0 o.n.7 9 n.m.n.l.p.j.l.p.(.q.c d f.r.s.",
"t.Z u.u.3 Z u.v.u.u.u.W u.u.u.v.u.W v.3 3 u.u.u.3 v.3 3 3 b b b b b b b b b b b b b b b b W u.b b b b b b b b b b b b b b w.b b x.v.v.b b b b b b b b b b b b b b b b b u.u.b b b b 3 3 u.u.u.3 v.3 3 3 v.b b b b | 3 b b b b b b b b b b b b b b b b u.v.u.W v.3 3 u.u.u.3 v.b b b b u.v.v.1 | b b b W Z u.u.3 Z b b b u.u.b b b b b b b b b b b b b b w.b b x.v.u.y.b b b b b b b b b b b b b b b u.W u.b b b b b b b b b b b b b 3 3 3 v.u.v.v.1 | 3 | u.v.3 u.v.3 W u.W #...z.#.A.8 n.n.z.B.",
"C.< : < < < : _ : D.: < _ _ < _ : E._ E.< _ D.D.< D.< < D.E.< D.D.F.F.E.: _ : < : _ : D.: < _ _ < _ : E._ E.< _ D.D.< D.< < D.E.< D.D.F.F.E._ : < : < < < : _ : D.: < _ _ < _ : E._ E.< _ D.D.< D.< < D.E.< D.D.F.F.E.: _ : < : < < < : _ : D.: < _ _ < _ : E._ E.< _ D.D.< D.< < D.E.< D.D.F.F.E.: _ : < : < < < : _ : D.: < _ _ < _ : E._ E.< _ D.D.< D.< < D.E.< D.D.F.F.E._ : < : < < < : _ : D.: < _ _ < _ : E._ E.< _ D.D.< D.< < D.E.< D.D.F.F.E.D.G.F.F.< D.D.: _ H.[ : A I.J.J.2 3 P K.",
"L.M.N.O.P.M.P.M.M.M.O.Q.~ M.,.Q.P.M.M.Q.Q.Q.O.Q.P.P.Q.P.Q.6 M.Q.Q.Q.Q.6 N.M.M.M.P.M.M.M.O.Q.~ M.,.Q.P.M.M.Q.Q.Q.O.Q.P.P.Q.P.Q.6 M.Q.Q.Q.Q.6 M.M.M.N.O.P.M.P.M.M.M.O.Q.~ M.,.Q.P.M.M.Q.Q.Q.O.Q.P.P.Q.P.Q.6 M.Q.Q.Q.Q.6 N.M.M.M.N.O.P.M.P.M.M.M.O.Q.~ M.,.Q.P.M.M.Q.Q.Q.O.Q.P.P.Q.P.Q.6 M.Q.Q.Q.Q.6 N.M.M.M.N.O.P.M.P.M.M.M.O.Q.~ M.,.Q.P.M.M.Q.Q.Q.O.Q.P.P.Q.P.Q.6 M.Q.Q.Q.Q.6 M.M.M.N.O.P.M.P.M.M.M.O.Q.~ M.,.Q.P.M.M.Q.Q.Q.O.Q.P.P.Q.P.Q.6 M.Q.Q.Q.Q.6 Q.Q.Q.Q.M.Q.M.M.M.O.~ { ! ! R.j E.< F.S.",
"T.U.U.V.U.W.W.X.U.V.U.~.U.Y.W.W.X.U.U.Y.U.V.U.Y.V.U.W.~.~.V.Y.Y.Y.Y.Y.Y.W.U.W.W.W.X.U.V.U.~.U.Y.W.W.X.U.U.Y.U.V.U.Y.V.U.W.~.~.V.Y.Y.Y.Y.Y.Y.U.W.U.U.V.U.W.W.X.U.V.U.~.U.Y.W.W.X.U.U.Y.U.V.U.Y.V.U.W.~.~.V.Y.Y.Y.Y.Y.Y.W.U.W.U.U.V.U.W.W.X.U.V.U.~.U.Y.W.W.X.U.U.Y.U.V.U.Y.V.U.W.~.~.V.Y.Y.Y.Y.Y.Y.W.U.W.U.U.V.U.W.W.X.U.V.U.~.U.Y.W.W.X.U.U.Y.U.V.U.Y.V.U.W.~.~.V.Y.Y.Y.Y.Y.Y.U.W.U.U.V.U.W.W.X.U.V.U.~.U.Y.W.W.X.U.U.Y.U.V.U.Y.V.U.W.~.~.V.Y.Y.Y.Y.Y.Y.V.Y.Z.Y.~.Y.W.U.W.X.) `.- 4  +.+Q.M.Q.++",
"@+#+$+$+#+#+#+$+%+%+%+$+$+$+#+$+%+#+#+&+%+#+$+#+%+%+%+#+&+*+#+#+%+&+#+*+$+#+$+#+#+$+%+%+%+$+$+$+#+$+%+#+#+&+%+#+$+#+%+%+%+#+&+*+#+#+%+&+#+*+#+$+#+$+$+#+#+#+$+%+%+%+$+$+$+#+$+%+#+#+&+%+#+$+#+%+%+%+#+&+*+#+#+%+&+#+*+$+#+$+#+$+$+#+#+#+$+%+%+%+$+$+$+#+$+%+#+#+&+%+#+$+#+%+%+%+#+&+*+#+#+%+&+#+*+$+#+$+#+$+$+#+#+#+$+%+%+%+$+$+$+#+$+%+#+#+&+%+#+$+#+%+%+%+#+&+*+#+#+%+&+#+*+#+$+#+$+$+#+#+#+$+%+%+%+$+$+$+#+$+%+#+#+&+%+#+$+#+%+%+%+#+&+*+#+#+%+&+#+*+%+%+%+&+%+%+$+$+$+$+=+-+-+-+& ;+V.>+- ,+",
"'+# )+# )+# )+)+)+)+)+)+!.)+)+)+)+)+!.)+)+)+!.)+!+3.!.)+!.!.)+!.)+)+)+!.# )+~+# )+)+)+)+)+)+!.)+)+)+)+)+!.)+)+)+!.)+!+3.!.)+!.!.)+!.)+)+)+!.)+~+# )+# )+# )+)+)+)+)+)+!.)+)+)+)+)+!.)+)+)+!.)+!+3.!.)+!.!.)+!.)+)+)+!.# )+~+# )+# )+# )+)+)+)+)+)+!.)+)+)+)+)+!.)+)+)+!.)+!+3.!.)+!.!.)+!.)+)+)+!.# )+~+# )+# )+# )+)+)+)+)+)+!.)+)+)+)+)+!.)+)+)+!.)+!+3.!.)+!.!.)+!.)+)+)+!.)+~+# )+# )+# )+)+)+)+)+)+!.)+)+)+)+)+!.)+)+)+!.)+!+3.!.)+!.!.)+!.)+)+)+!.!.!.!.)+)+)+)+# ~+~+~+{+]+0.^+/+t.!+3.(+"};
