/* XPM */
static xpm_string_t local_highlight_xpm[] = {
"240 30 77 1",
" 	c None",
".	c #00B140",
"+	c #007372",
"@	c #00C9C1",
"#	c #00B3AC",
"$	c #009992",
"%	c #008B84",
"&	c #008A83",
"*	c #008C85",
"=	c #008982",
"-	c #00605B",
";	c #009891",
">	c #00292A",
",	c #008280",
"'	c #00A9A2",
")	c #00706B",
"!	c #00433E",
"~	c #004847",
"{	c #00C8C0",
"]	c #007C76",
"^	c #007B75",
"/	c #013D3D",
"(	c #00746E",
"_	c #686868",
":	c #006B66",
"<	c #00C7BF",
"[	c #00655F",
"}	c #001D1D",
"|	c #00C6BF",
"1	c #005F59",
"2	c #005E58",
"3	c #002220",
"4	c #003635",
"5	c #00C6BE",
"6	c #005651",
"7	c #002727",
"8	c #002E2C",
"9	c #002726",
"0	c #003231",
"a	c #003634",
"b	c #00C5BD",
"c	c #002E2D",
"d	c #00C4BC",
"e	c #002B2A",
"f	c #006460",
"g	c #006F69",
"h	c #00625E",
"i	c #00312F",
"j	c #00B5AE",
"k	c #00867F",
"l	c #006C67",
"m	c #005D59",
"n	c #00A59E",
"o	c #00908A",
"p	c #00BCB5",
"q	c #00ADA6",
"r	c #00AAA3",
"s	c #00B7B0",
"t	c #00B0A9",
"u	c #00413C",
"v	c #009A94",
"w	c #00AAA4",
"x	c #00928C",
"y	c #00ACA5",
"z	c #00827D",
"A	c #007772",
"B	c #007773",
"C	c #007370",
"D	c #00B4AD",
"E	c #00ABA4",
"F	c #00A69F",
"G	c #00B3AB",
"H	c #00B2AB",
"I	c #00B1AA",
"J	c #00AFA8",
"K	c #00AEA7",
"L	c #002221",
"................+@#$%&&%&*&%==%===&&=&=&%%%&%&&&&*&&*=%&%%--%&%%%=&%=*=&&=&=&%%%&%&&&&*&&*=%&%%--%&%%%=&%=*==&&=&=&%%%&%&&&&*&&*=%&%%--%&%%%=&%=*==&&=&=&%%%&%&&&&*&&*=%&%%--%&%%%=&%=*=&&=&=&%%%&%&&&&*&&*=%&%%--%&%%%=&%=*;#@>................",
"...............,')!!!!!!!!!!!!!!!!!!!!!!!!!!!!!!!!!!!!!!!!!!!!!!!!!!!!!!!!!!!!!!!!!!!!!!!!!!!!!!!!!!!!!!!!!!!!!!!!!!!!!!!!!!!!!!!!!!!!!!!!!!!!!!!!!!!!!!!!!!!!!!!!!!!!!!!!!!!!!!!!!!!!!!!!!!!!!!!!!!!!!!!!!!!!!!!!!!!!!!!!!!!!-'~...............",
"..............{=!!!!!!!!!!!!!!!!!!!!!!!!!!!!!!!!!!!!!!!!!!!!!!!!!!!!!!!!!!!!!!!!!!!!!!!!!!!!!!!!!!!!!!!!!!!!!!!!!!!!!!!!!!!!!!!!!!!!!!!!!!!!!!!!!!!!!!!!!!!!!!!!!!!!!!!!!!!!!!!!!!!!!!!!!!!!!!!!!!!!!!!!!!!!!!!!!!!!!!!!!!!!!!!!={..............",
".............{]!!!!!!!!!!!!!!!!!!!!!!!!!!!!!!!!!!!!!!!!!!!!!!!!!!!!!!!!!!!!!!!!!!!!!!!!!!!!!!!!!!!!!!!!!!!!!!!!!!!!!!!!!!!!!!!!!!!!!!!!!!!!!!!!!!!!!!!!!!!!!!!!!!!!!!!!!!!!!!!!!!!!!!!!!!!!!!!!!!!!!!!!!!!!!!!!!!!!!!!!!!!!!!!!!!^{.............",
".........../{(!!!!!!!!!!!!!!!!!___!!!!!!!!!!!!!!________________!!!!_______________!!!!!_______________!!!!!!___!!!!!!!!!!!!!!!!!!!!!!!!________!!!_______!!!!!________________!!!!______________!!!!!___________!!!!!!!!!!!!!!!!!({............",
"...........{:!!!!!!!!!!!!!!!!!!___!!!!!!!!!!!!!__________________!!_________________!!!!________________!!!!!___!!!!!!!!!!!!!!!!!!!!!!!____________________!!!__________________!!_________________!!____________!!!!!!!!!!!!!!!!!!:{...........",
"..........<[!!!!!!!!!!!!!!!!!!!___!!!!!!!!!!!!!____!!!!!!!!!!____!!___!!!!!!!!!_____!!!!__!!!!!!!!!!!___!!!!!___!!!!!!!!!!!!!!!!!!!!!!!_____________________!!____!!!!!!!!!!____!!___!!!!!!!!!!!___!!____________!!!!!!!!!!!!!!!!!!![<}.........",
".........|1!!!!!!!!!!!!!!!!!!!!___!!!!!!!!!!!!!___!!!!!!!!!!!!___!!__!!!!!!!!!!!____!!!!__!!!!!!!!!!!___!!!!!___!!!!!!!!!!!!!!!!!!!!!!!___!!!!!!___!!!!!!___!!___!!!!!!!!!!!!___!!__!!!!!!!!!!!!!__!!__!!!!!!!!!!!!!!!!!!!!!!!!!!!!!!2|3........",
".......456!!!!!!!!!!!!!!!!!!!!!___!!!!!!!!!!!!!___!!!!!!!!!!!!___!!__!!!!!!!!!!!____!!!!__!!!!!!!!!!!___!!!!!___!!!!!!!!!!!!!!!!!!!!!!!___!!!!!!___!!!!!!__!!!___!!!!!!!!!!!!___!!__!!!!!!!!!!!!!__!!__!!!!!!!!!!!!!!!!!!!!!!!!!!!!!!!657.......",
"......8|!!!!!!!!!!!!!!!!!!!!!!!___!!!!!!!!!!!!!___!!!!!!!!!!!!___!!__!!!!!!!!!!!____!!!!__!!!!!!!!!!!___!!!!!___!!!!!!!!!!!!!!!!!!!!!!!___!!!!!!___!!!!!!___!!___!!!!!!!!!!!!___!!__!!!!!!!!!!!!!__!!__!!!!!!!!!!!!!!!!!!!!!!!!!!!!!!!!!|9......",
".....0|!!!!!!!!!!!!!!!!!!!!!!!!___!!!!!!!!!!!!!___!!!!!!!!!!!!___!!__!!!!!!!!!!!!!!!!!!!__!!!!!!!!!!!___!!!!!___!!!!!!!!!!!!!!!!!!!!!!!___!!!!!!___!!!!!!___!!___!!!!!!!!!!!!___!!__!!!!!!!!!!!!!__!!__!!!!!!!!!!!!!!!!!!!!!!!!!!!!!!!!!!|......",
"....4<!!!!!!!!!!!!!!!!!!!!!!!!!___!!!!!!!!!!!!!___!!!!!!!!!!!!___!!__!!!!!!!!!!!!!!!!!!!__!!!!!!!!!!!___!!!!!___!!!!!!!!!!!!!!!!!!!!!!!___!!!!!!___!!!!!!___!!___!!!!!!!!!!!!___!!__!!!!!!!!!!!!!__!!__!!!!!!!!!!!!!!!!!!!!!!!!!!!!!!!!!!!<8....",
"...ab!!!!!!!!!!!!!!!!!!!!!!!!!!___!!!!!!!!!!!!!___!!!!!!!!!!!!___!!__!!!!!!!!!!!!!!!!!!!__!!!!!!!!!!!___!!!!!___!!!!!!!!!!!!!!!!!!!!!!!___!!!!!!___!!!!!!___!!___!!!!!!!!!!!!___!!__!!!!!!!!!!!!!__!!__!!!!!!!!!!!!!!!!!!!!!!!!!!!!!!!!!!!!bc...",
"..0d!!!!!!!!!!!!!!!!!!!!!!!!!!!___!!!!!!!!!!!!!___!!!!!!!!!!!!___!!___!!!!!!!!!!!!!!!!!!__!!!!!!!!!!!___!!!!!___!!!!!!!!!!!!!!!!!!!!!!!___!!!!!!___!!!!!!___!!___!!!!!!!!!!!!___!!___!!!!!!!!!!!!__!!__!!!!!!!!!!!!!!!!!!!!!!!!!!!!!!!!!!!!!de..",
"..<!!!!!!!!!!!!!!!!!!!!!!!!!!!!___!!!!!!!!!!!!!___!!!!!!!!!!!____!!___!!!!!!!!!!!!!!!!!_________________!!!!!___!!!!!!!!!!!!!!!!!!!!!!!___!!!!!!___!!!!!!___!!___!!!!!!!!!!!____!!___!!!!!!!!!!!!__!!____________!!!!!!!!!!!!!!!!!!!!!!!!!!!!<..",
".fg!!!!!!!!!!!!!!!!!!!!!!!!!!!____!!!!!!!!!!!!!___!!!!!!!!!!!____!!___!!!!!!!!!!!!!!!!!__________________!!!____!!!!!!!!!!!!!!!!!!!!!!!____!!!!!___!!!!!!___!!___!!!!!!!!!!!____!!___!!!!!!!!!!!!__!!____________!!!!!!!!!!!!!!!!!!!!!!!!!!!!gh.",
"ij!!!!!!!!!!!!!!!!!!!!!!!!!!!_____!!!!!!!!!!!!!___!!!!!!!!!!!____!!___!!!!!!!!!!!!!!!!____!!!!!!!!!!!____!!_____!!!!!!!!!!!!!!!!!!!!!!!____!!!!!___!!!!!!___!!___!!!!!!!!!!!____!!___!!!!!!!!!!!!__!!___!!!!!!!!!!!!!!!!!!!!!!!!!!!!!!!!!!!!!!j.",
"kl!!!!!!!!!!!!!!!!!!!!!!!!!!!_____!!!!!!!!!!!!!___!!!!!!!!!!!____!!___!!!!!!!!!!!!!!!!____!!!!!!!!!!!____!!_____!!!!!!!!!!!!!!!!!!!!!!!____!!!!!___!!!!!!___!!___!!!!!!!!!!!____!!___!!!!!!!!!!!!__!!___!!!!!!!!!!!!!!!!!!!!!!!!!!!!!!!!!!!!!!gm",
"n!!!!!!!!!!!!!!!!!!!!!!!!!!!!_____!!!!!!!!!!!!!___!!!!!!!!!!!____!!___!!!!!!!!!!!!__!!____!!!!!!!!!!!____!!_____!!!!!!!!!!!!!!!!!!!!!!!____!!!!!___!!!!!!___!!___!!!!!!!!!!!____!!___!!!!!!!!!!!!__!!___!!!!!!!!!!!!!!!!!!!!!!!!!!!!!!!!!!!!!!!o",
"p!!!!!!!!!!!!!!!!!!!!!!!!!!!!_____!!!!!!!!!!!!!___!!!!!!!!!!!____!!___!!!!!!!!!!!!__!!____!!!!!!!!!!!____!!_____!!!!!!!!!!!!!!!!!!!!!!!____!!!!!___!!!!!!___!!___!!!!!!!!!!!____!!___!!!!!!!!!!!!__!!___!!!!!!!!!!!!!!!!!!!!!!!!!!!!!!!!!!!!!!!q",
"p!!!!!!!!!!!!!!!!!!!!!!!!!!!!_____!!!!!!!!!!!!!___!!!!!!!!!!!____!!___!!!!!!!!!!!!__!!____!!!!!!!!!!!____!!_____!!!!!!!!!!!!!!!!!!!!!!!____!!!!!___!!!!!!___!!___!!!!!!!!!!!____!!___!!!!!!!!!!!!__!!___!!!!!!!!!!!!!!!!!!!!!!!!!!!!!!!!!!!!!!!r",
"s!!!!!!!!!!!!!!!!!!!!!!!!!!!!_____!!!!!!!!!!!!!___!!!!!!!!!!!____!!___!!!!!!!!!!!!__!!____!!!!!!!!!!!____!!_____!!!!!!!!!!!!!!!!!!!!!!!____!!!!!___!!!!!!___!!___!!!!!!!!!!!____!!___!!!!!!!!!!!!__!!___!!!!!!!!!!!!!!!!!!!!!!!!!!!!!!!!!!!!!!!n",
"t!!!!!!!!!!!!!!!!!!!!!!!!!!!!_____!!!!!!!!!!!!!___u!!!!!!!!uu____!!____!!!!!!!!!!!__!!____!!!!!!!!!!!____!!_____!!!!!!!!!!!!!!!!!!!!!!!____!!!!!___!!!!!!___!!___!!!!!!!!!!!____!!____!!!!!!!!!!!__!!___!!!!!!!!!!!!!!!!!!!!!!!!!!!!!!!!!!!!!!!v",
"w!!!!!!!!!!!!!!!!!!!!!!!!!!!!________________!!__________________!!_________________!!____!!!!!!!!!!!____!!________________!!!!!!!!!!!!____!!!!!___!!!!!!___!!__________________!!_________________!!_____________!!!!!!!!!!!!!!!!!!!!!!!!!!!!!x",
"y!!!!!!!!!!!!!!!!!!!!!!!!!!!!________________!!__________________!!_________________!!____!!!!!!!!!!!____!!________________!!!!!!!!!!!!____!!!!!___!!!!!!___!!__________________!!________________!!!_____________!!!!!!!!!!!!!!!!!!!!!!!!!!!!!z",
"A!!!!!!!!!!!!!!!!!!!!!!!!!!!!!!!!!!!!!!!!!!!!!!!!!!!!!!!!!!!!!!!!!!!!!!!!!!!!!!!!!!!!!!!!!!!!!!!!!!!!!!!!!!!!!!!!!!!!!!!!!!!!!!!!!!!!!!!!!!!!!!!!!!!!!!!!!!!!!!!!!!!!!!!!!!!!!!!!!!!!!!!!!!!!!!!!!!!!!!!!!!!!!!!!!!!!!!!!!!!!!!!!!!!!!!!!!!!!!!B",
"!!!!!!!!!!!!!!!!!!!!!!!!!!!!!!!!!!!!!!!!!!!!!!!!!!!!!!!!!!!!!!!!!!!!!!!!!!!!!!!!!!!!!!!!!!!!!!!!!!!!!!!!!!!!!!!!!!!!!!!!!!!!!!!!!!!!!!!!!!!!!!!!!!!!!!!!!!!!!!!!!!!!!!!!!!!!!!!!!!!!!!!!!!!!!!!!!!!!!!!!!!!!!!!!!!!!!!!!!!!!!!!!!!!!!!!!!!!!!!!!",
"!!!!!!!!!!!!!!!!!!!!!!!!!!!!!!!!!!!!!!!!!!!!!!!!!!!!!!!!!!!!!!!!!!!!!!!!!!!!!!!!!!!!!!!!!!!!!!!!!!!!!!!!!!!!!!!!!!!!!!!!!!!!!!!!!!!!!!!!!!!!!!!!!!!!!!!!!!!!!!!!!!!!!!!!!!!!!!!!!!!!!!!!!!!!!!!!!!!!!!!!!!!!!!!!!!!!!!!!!!!!!!!!!!!!!!!!!!!!!!!!",
"!!!!!!!!!!!!!!!!!!!!!!!!!!!!!!!!!!!!!!!!!!!!!!!!!!!!!!!!!!!!!!!!!!!!!!!!!!!!!!!!!!!!!!!!!!!!!!!!!!!!!!!!!!!!!!!!!!!!!!!!!!!!!!!!!!!!!!!!!!!!!!!!!!!!!!!!!!!!!!!!!!!!!!!!!!!!!!!!!!!!!!!!!!!!!!!!!!!!!!!!!!!!!!!!!!!!!!!!!!!!!!!!!!!!!!!!!!!!!!!!",
"C#D#D#DDDDDDjDDDDDjDDDjDEFjDjjDjDDDj#DG#DDDDDDjDDDDDjDDDjDEFjDjjDjDDDjDG#D#D#DDDDDDjDDDDDjDDDjDEFjDjjDjDDDj#DG#D#D#DDDDDDjDDDDDjDDDjDEFjDjjDjDDDj#DG#D#D#DDDDDDjDDDDDjDDDjDEFjDjjDjDDDjDG#D#D#DDDDDDjDDDDDjDDDjDEFjDjjDjDDDjjjjDDDD#GGGHItJKyEFL"};
