/* XPM */
static xpm_string_t remote_highlight_xpm[] = {
"240 30 89 1",
" 	c None",
".	c #00B140",
"+	c #007372",
"@	c #00C9C1",
"#	c #00B3AC",
"$	c #009992",
"%	c #008B84",
"&	c #008A83",
"*	c #008C85",
"=	c #008982",
"-	c #005852",
";	c #009891",
">	c #00292A",
",	c #008280",
"'	c #00A9A2",
")	c #006964",
"!	c #00433E",
"~	c #004847",
"{	c #00C8C0",
"]	c #007C76",
"^	c #007B75",
"/	c #013D3D",
"(	c #00746E",
"_	c #686868",
":	c #006B66",
"<	c #00C7BF",
"[	c #00655F",
"}	c #001D1D",
"|	c #00C6BF",
"1	c #005F59",
"2	c #005E58",
"3	c #002220",
"4	c #003635",
"5	c #00C6BE",
"6	c #005954",
"7	c #002727",
"8	c #002E2C",
"9	c #00544F",
"0	c #00534D",
"a	c #002726",
"b	c #003231",
"c	c #00514B",
"d	c #00524C",
"e	c #004C47",
"f	c #004B47",
"g	c #003634",
"h	c #00C5BD",
"i	c #004A46",
"j	c #004A45",
"k	c #002E2D",
"l	c #00C4BC",
"m	c #004944",
"n	c #002B2A",
"o	c #006460",
"p	c #006F69",
"q	c #00625E",
"r	c #00312F",
"s	c #00B5AE",
"t	c #00867F",
"u	c #006C67",
"v	c #005D59",
"w	c #00A59E",
"x	c #003530",
"y	c #003C38",
"z	c #00908A",
"A	c #00BCB5",
"B	c #00ADA6",
"C	c #00AAA3",
"D	c #00B7B0",
"E	c #00B0A9",
"F	c #003F3A",
"G	c #003D38",
"H	c #00413C",
"I	c #009A94",
"J	c #00928C",
"K	c #00423D",
"L	c #009E97",
"M	c #005855",
"N	c #004E4B",
"O	c #007370",
"P	c #00B4AD",
"Q	c #00938C",
"R	c #008781",
"S	c #00B3AB",
"T	c #00B2AB",
"U	c #00B1AA",
"V	c #00AFA8",
"W	c #00AEA7",
"X	c #002221",
"................+@#$%&&%&*&%==%===&&=&=&%%%&%&&&&*&&*=%&%%--%&%%%=&%=*=&&=&=&%%%&%&&&&*&&*=%&%%--%&%%%=&%=*==&&=&=&%%%&%&&&&*&&*=%&%%--%&%%%=&%=*==&&=&=&%%%&%&&&&*&&*=%&%%--%&%%%=&%=*=&&=&=&%%%&%&&&&*&&*=%&%%--%&%%%=&%=*;#@>................",
"...............,')!!!!!!!!!!!!!!!!!!!!!!!!!!!!!!!!!!!!!!!!!!!!!!!!!!!!!!!!!!!!!!!!!!!!!!!!!!!!!!!!!!!!!!!!!!!!!!!!!!!!!!!!!!!!!!!!!!!!!!!!!!!!!!!!!!!!!!!!!!!!!!!!!!!!!!!!!!!!!!!!!!!!!!!!!!!!!!!!!!!!!!!!!!!!!!!!!!!!!!!!!!!!-'~...............",
"..............{=!!!!!!!!!!!!!!!!!!!!!!!!!!!!!!!!!!!!!!!!!!!!!!!!!!!!!!!!!!!!!!!!!!!!!!!!!!!!!!!!!!!!!!!!!!!!!!!!!!!!!!!!!!!!!!!!!!!!!!!!!!!!!!!!!!!!!!!!!!!!!!!!!!!!!!!!!!!!!!!!!!!!!!!!!!!!!!!!!!!!!!!!!!!!!!!!!!!!!!!!!!!!!!!!={..............",
".............{]!!!!!!!!!!!!!!!!!!!!!!!!!!!!!!!!!!!!!!!!!!!!!!!!!!!!!!!!!!!!!!!!!!!!!!!!!!!!!!!!!!!!!!!!!!!!!!!!!!!!!!!!!!!!!!!!!!!!!!!!!!!!!!!!!!!!!!!!!!!!!!!!!!!!!!!!!!!!!!!!!!!!!!!!!!!!!!!!!!!!!!!!!!!!!!!!!!!!!!!!!!!!!!!!!!^{.............",
".........../{(!!!!!!!!!!_____________!!!!!!___________!!!!________!!!_______!!!!!________________!!!________________!!!!___________!!!!!!!!!!!!________!!!_______!!!!!________________!!!!______________!!!!!___________!!!!!!!!!!({............",
"...........{:!!!!!!!!!!_______________!!!!____________!!!____________________!!!__________________!!_________________!!____________!!!!!!!!!!!____________________!!!__________________!!_________________!!____________!!!!!!!!!!!:{...........",
"..........<[!!!!!!!!!!!_______________!!!!____________!!!_____________________!!____!!!!!!!!!!____!!_________________!!____________!!!!!!!!!!!_____________________!!____!!!!!!!!!!____!!___!!!!!!!!!!!___!!____________!!!!!!!!!!!![<}.........",
".........|1!!!!!!!!!!!!__!!!!!!!!!!___!!!!__!!!!!!!!!!!!!___!!!!!!___!!!!!!___!!___!!!!!!!!!!!!___!!!!!!!!!__________!!__!!!!!!!!!!!!!!!!!!!!!___!!!!!!___!!!!!!___!!___!!!!!!!!!!!!___!!__!!!!!!!!!!!!!__!!__!!!!!!!!!!!!!!!!!!!!!!!2|3........",
".......456!!!!!!!!!!!!!__!!!!!!!!!!___!!!!__!!!!!!!!!!!!!___!!!!!!___!!!!!!__!!!___!!!!!!!!!!!!___!!!!!!!!!_________!!!__!!!!!!!!!!!!!!!!!!!!!___!!!!!!___!!!!!!__!!!___!!!!!!!!!!!!___!!__!!!!!!!!!!!!!__!!__!!!!!!!!!!!!!!!!!!!!!!!!657.......",
"......8|9!!!!!!!!!!!!!!__!!!!!!!!!!___!!!!__!!!!!!!!!!!!!___!!!!!!___!!!!!!___!!___!!!!!!!!!!!!___!!!!!!!!!__!!!!!!!!!!__!!!!!!!!!!!!!!!!!!!!!___!!!!!!___!!!!!!___!!___!!!!!!!!!!!!___!!__!!!!!!!!!!!!!__!!__!!!!!!!!!!!!!!!!!!!!!!!!!0|a......",
".....b|c!!!!!!!!!!!!!!!__!!!!!!!!!!___!!!!__!!!!!!!!!!!!!___!!!!!!___!!!!!!___!!___!!!!!!!!!!!!___!!!!!!!!!__!!!!!!!!!!__!!!!!!!!!!!!!!!!!!!!!___!!!!!!___!!!!!!___!!___!!!!!!!!!!!!___!!__!!!!!!!!!!!!!__!!__!!!!!!!!!!!!!!!!!!!!!!!!!!d|......",
"....4<e!!!!!!!!!!!!!!!!__!!!!!!!!!!___!!!!__!!!!!!!!!!!!!___!!!!!!___!!!!!!___!!___!!!!!!!!!!!!___!!!!!!!!!__!!!!!!!!!!__!!!!!!!!!!!!!!!!!!!!!___!!!!!!___!!!!!!___!!___!!!!!!!!!!!!___!!__!!!!!!!!!!!!!__!!__!!!!!!!!!!!!!!!!!!!!!!!!!!!f<8....",
"...ghi!!!!!!!!!!!!!!!!!__!!!!!!!!!!___!!!!__!!!!!!!!!!!!!___!!!!!!___!!!!!!___!!___!!!!!!!!!!!!___!!!!!!!!!__!!!!!!!!!!__!!!!!!!!!!!!!!!!!!!!!___!!!!!!___!!!!!!___!!___!!!!!!!!!!!!___!!__!!!!!!!!!!!!!__!!__!!!!!!!!!!!!!!!!!!!!!!!!!!!!jhk...",
"..blm!!!!!!!!!!!!!!!!!!_______________!!!!__!!!!!!!!!!!!!___!!!!!!___!!!!!!___!!___!!!!!!!!!!!!___!!!!!!!!!__!!!!!!!!!!__!!!!!!!!!!!!!!!!!!!!!___!!!!!!___!!!!!!___!!___!!!!!!!!!!!!___!!___!!!!!!!!!!!!__!!__!!!!!!!!!!!!!!!!!!!!!!!!!!!!!mln..",
"..<m!!!!!!!!!!!!!!!!!!!_________________!!____________!!!___!!!!!!___!!!!!!___!!___!!!!!!!!!!!____!!!!!!!!!__!!!!!!!!!!____________!!!!!!!!!!!___!!!!!!___!!!!!!___!!___!!!!!!!!!!!____!!___!!!!!!!!!!!!__!!____________!!!!!!!!!!!!!!!!!!!!i<..",
".op!!!!!!!!!!!!!!!!!!!!_________________!!____________!!!____!!!!!___!!!!!!___!!___!!!!!!!!!!!____!!!!!!!!!__!!!!!!!!!!____________!!!!!!!!!!!____!!!!!___!!!!!!___!!___!!!!!!!!!!!____!!___!!!!!!!!!!!!__!!____________!!!!!!!!!!!!!!!!!!!!!pq.",
"rs!!!!!!!!!!!!!!!!!!!!!____!!!!!!!!!!!__!!___!!!!!!!!!!!!____!!!!!___!!!!!!___!!___!!!!!!!!!!!____!!!!!!!!!__!!!!!!!!!!___!!!!!!!!!!!!!!!!!!!!____!!!!!___!!!!!!___!!___!!!!!!!!!!!____!!___!!!!!!!!!!!!__!!___!!!!!!!!!!!!!!!!!!!!!!!!!!!!!!!s.",
"tu!!!!!!!!!!!!!!!!!!!!!____!!!!!!!!!!!__!!___!!!!!!!!!!!!____!!!!!___!!!!!!___!!___!!!!!!!!!!!____!!!!!!!!!__!!!!!!!!!!___!!!!!!!!!!!!!!!!!!!!____!!!!!___!!!!!!___!!___!!!!!!!!!!!____!!___!!!!!!!!!!!!__!!___!!!!!!!!!!!!!!!!!!!!!!!!!!!!!!!pv",
"wx!!!!!!!!!!!!!!!!!!!!!____!!!!!!!!!!!__!!___!!!!!!!!!!!!____!!!!!___!!!!!!___!!___!!!!!!!!!!!____!!!!!!!!!__!!!!!!!!!!___!!!!!!!!!!!!!!!!!!!!____!!!!!___!!!!!!___!!___!!!!!!!!!!!____!!___!!!!!!!!!!!!__!!___!!!!!!!!!!!!!!!!!!!!!!!!!!!!!!!yz",
"A!!!!!!!!!!!!!!!!!!!!!!____!!!!!!!!!!!__!!___!!!!!!!!!!!!____!!!!!___!!!!!!___!!___!!!!!!!!!!!____!!!!!!!!!__!!!!!!!!!!___!!!!!!!!!!!!!!!!!!!!____!!!!!___!!!!!!___!!___!!!!!!!!!!!____!!___!!!!!!!!!!!!__!!___!!!!!!!!!!!!!!!!!!!!!!!!!!!!!!!!B",
"A!!!!!!!!!!!!!!!!!!!!!!____!!!!!!!!!!!__!!___!!!!!!!!!!!!____!!!!!___!!!!!!___!!___!!!!!!!!!!!____!!!!!!!!!__!!!!!!!!!!___!!!!!!!!!!!!!!!!!!!!____!!!!!___!!!!!!___!!___!!!!!!!!!!!____!!___!!!!!!!!!!!!__!!___!!!!!!!!!!!!!!!!!!!!!!!!!!!!!!!!C",
"D!!!!!!!!!!!!!!!!!!!!!!____!!!!!!!!!!!__!!___!!!!!!!!!!!!____!!!!!___!!!!!!___!!___!!!!!!!!!!!____!!!!!!!!!__!!!!!!!!!!___!!!!!!!!!!!!!!!!!!!!____!!!!!___!!!!!!___!!___!!!!!!!!!!!____!!___!!!!!!!!!!!!__!!___!!!!!!!!!!!!!!!!!!!!!!!!!!!!!!!!w",
"E!!!!!!!!!!!!!!!!!!!!!!____!!!!!!!!!!!__!!___!!!!!!!!!!!!____!!!!!___F!!!!!___!!___!!!!!!!!!!!____!!!!!!!!!__!!!!!!!!!!___!!!!!!!!!!!!!!!!!!!!____!!!!!___!!!!!!___G!___!!!!FF!!!FF____!!____!!!!!!!!!H!__!!___!!!!!!!!!!!!!!!!!!!!!!!!!!!!!!!!I",
"J!!!!!!!!!!!!!!!!!!!!!!____!!!!!!!!!!!__!!_____________!!____!!!!!___!!!!K!___!!__________________!!!!!!!!!__!!K!K!!!!!_____________!!!!!!!!!!____!!!K!___!!!!!!___!!__________________!!_________________!!_____________!!!!!!!!!!!!!!!!!!!!!!J",
"L!!!!!!!!!!!!!!!!!!!!!!____!!!!!!!!!!!__!!_____________!!____!!!!!___!!!!!!___!!______________!__!!!!!!!!!!__!!!!!!!!!!_____________!!!!!!!!!!____!!!!!___!!!!!!___!!__________________!!________________!!!_____________!!!!!!!!!!!!!!!!!!!!!!q",
"!!!!!!!!!!!!!!!!!!!!!!!!!!!!!!!!!!!!!!!!!!!!!!!!!!!!!!!!!!!!!!!!!!!!!!!!!!!!!!!!!!!!!!!!!!!!!!!!!!!!!!!!!!!!!!!!!!!!!!!!!!!!!!!!!!!!!!!!!!!!!!!!!!!!!!!!!!!!!!!!!!!!!!!!!!!!!!!!!!!!!!!!!!!!!!!!!!!!!!!!!!!!!!!!!!!!!!!!!!!!!!!!!!!!!!!!!!!!!!!!",
"!!!!!!!!!!!!!!!!!!!!!!!!!!!!!!!!!!!!!!!!!!!!!!!!!!!!!!!!!!!!!!!!!!!!!!!!!!!!!!!!!!!!!!!!!!!!!!!!!!!!!!!!!!!!!!!!!!!!!!!!!!!!!!!!!!!!!!!!!!!!!!!!!!!!!!!!!!!!!!!!!!!!!!!!!!!!!!!!!!!!!!!!!!!!!!!!!!!!!!!!!!!!!!!!!!!!!!!!!!!!!!!!!!!!!!!!!!!!!!!!",
"!!!!!!!!!!!!!!!!!!!!!!!!!!!!!!!!!!!!!!!!!!!!!!!!!!!!!!!!!!!!!!!!!!!!!!!!!!!!!!!!!!!!!!!!!!!!!!!!!!!!!!!!!!!!!!!!!!!!!!!!!!!!!!!!!!!!!!!!!!!!!!!!!!!!!!!!!!!!!!!!!!!!!!!!!!!!!!!!!!!!!!!!!!!!!!!!!!!!!!!!!!!!!!!!!!!!!!!!!!!!!!!!!!!!!!!!!!!!!!!M",
"!!!!!!!!!!!!!!!!!!!!!!!!!!!!!!!!!!!!!!!!!!!!!!!!!!!!!!!!!!!!!!!!!!!!!!!!!!!!!!!!!!!!!!!!!!!!!!!!!!!!!!!!!!!!!!!!!!!!!!!!!!!!!!!!!!!!!!!!!!!!!!!!!!!!!!!!!!!!!!!!!!!!!!!!!!!!!!!!!!!!!!!!!!!!!!!!!!!!!!!!!!!!!!!!!!!!!!!!!!!!!!!!!!!!!!!!!!!!!!!N",
"O#P#P#PPPPPPsPPPPPsPPPsPQRsPssPsPPPs#PS#PPPPPPsPPPPPsPPPsPQRsPssPsPPPsPS#P#P#PPPPPPsPPPPPsPPPsPQRsPssPsPPPs#PS#P#P#PPPPPPsPPPPPsPPPsPQRsPssPsPPPs#PS#P#P#PPPPPPsPPPPPsPPPsPQRsPssPsPPPsPS#P#P#PPPPPPsPPPPPsPPPsPQRsPssPsPPPssssPPPP#SSSTUEVWLQRX"};
