/* XPM */
static xpm_string_t remote_mode_xpm[] = {
"240 30 205 2",
"  	c None",
". 	c #00B140",
"+ 	c #007372",
"@ 	c #00C9C1",
"# 	c #00B3AC",
"$ 	c #009992",
"% 	c #008B84",
"& 	c #008A83",
"* 	c #008C85",
"= 	c #008982",
"- 	c #007E78",
"; 	c #009891",
"> 	c #00292A",
", 	c #008280",
"' 	c #00A9A2",
") 	c #00807A",
"! 	c #006C67",
"~ 	c #006E68",
"{ 	c #006D67",
"] 	c #006B66",
"^ 	c #006B65",
"/ 	c #004847",
"( 	c #00C8C0",
"_ 	c #005F59",
": 	c #005E58",
"< 	c #005F5A",
"[ 	c #005D58",
"} 	c #007C76",
"| 	c #00504A",
"1 	c #00514B",
"2 	c #00524C",
"3 	c #004F4A",
"4 	c #007B75",
"5 	c #013D3D",
"6 	c #00746E",
"7 	c #00423C",
"8 	c #00433E",
"9 	c #00413C",
"0 	c #00423D",
"a 	c #004440",
"b 	c #0EECE3",
"c 	c #003632",
"d 	c #003530",
"e 	c #0FDED5",
"f 	c #12BDB5",
"g 	c #00332E",
"h 	c #00C7BF",
"i 	c #00655F",
"j 	c #002B27",
"k 	c #002925",
"l 	c #002A27",
"m 	c #002924",
"n 	c #002723",
"o 	c #002C28",
"p 	c #001D1D",
"q 	c #00C6BF",
"r 	c #00201D",
"s 	c #00201B",
"t 	c #00211E",
"u 	c #001E1B",
"v 	c #00221F",
"w 	c #002220",
"x 	c #003635",
"y 	c #00C6BE",
"z 	c #005954",
"A 	c #001614",
"B 	c #001916",
"C 	c #001512",
"D 	c #001815",
"E 	c #001411",
"F 	c #002727",
"G 	c #002E2C",
"H 	c #00544F",
"I 	c #000E0D",
"J 	c #000D0C",
"K 	c #000D0A",
"L 	c #000F0D",
"M 	c #000C09",
"N 	c #00110E",
"O 	c #00534D",
"P 	c #002726",
"Q 	c #003231",
"R 	c #000806",
"S 	c #000706",
"T 	c #000606",
"U 	c #000A07",
"V 	c #004C47",
"W 	c #000505",
"X 	c #000404",
"Y 	c #004B47",
"Z 	c #003634",
"` 	c #00C5BD",
" .	c #004A46",
"..	c #000403",
"+.	c #000303",
"@.	c #004A45",
"#.	c #002E2D",
"$.	c #00C4BC",
"%.	c #004944",
"&.	c #000202",
"*.	c #002B2A",
"=.	c #000101",
"-.	c #006460",
";.	c #006F69",
">.	c #00625E",
",.	c #00312F",
"'.	c #00B5AE",
").	c #00867F",
"!.	c #000605",
"~.	c #005D59",
"{.	c #00A59E",
"].	c #000A08",
"^.	c #003935",
"/.	c #00908A",
"(.	c #00BCB5",
"_.	c #000B08",
":.	c #00ADA6",
"<.	c #001310",
"[.	c #001A17",
"}.	c #001210",
"|.	c #001C19",
"1.	c #00AAA3",
"2.	c #00B7B0",
"3.	c #00231F",
"4.	c #002420",
"5.	c #001D1A",
"6.	c #002421",
"7.	c #001B18",
"8.	c #00B0A9",
"9.	c #002D2A",
"0.	c #002D29",
"a.	c #002F2B",
"b.	c #002E2A",
"c.	c #00302C",
"d.	c #00312D",
"e.	c #002623",
"f.	c #009A94",
"g.	c #00AAA4",
"h.	c #003C38",
"i.	c #003B37",
"j.	c #003D38",
"k.	c #003D39",
"l.	c #003F3A",
"m.	c #00403B",
"n.	c #003A36",
"o.	c #003834",
"p.	c #003733",
"q.	c #00928C",
"r.	c #00ACA5",
"s.	c #004E48",
"t.	c #004F49",
"u.	c #0FCEC6",
"v.	c #4ED8D1",
"w.	c #9A9A9A",
"x.	c #004843",
"y.	c #004642",
"z.	c #00827D",
"A.	c #00A59F",
"B.	c #00615B",
"C.	c #00625C",
"D.	c #00635C",
"E.	c #00645D",
"F.	c #005C57",
"G.	c #005853",
"H.	c #005651",
"I.	c #007773",
"J.	c #009F98",
"K.	c #00716B",
"L.	c #006F6A",
"M.	c #00706A",
"N.	c #00726C",
"O.	c #00736D",
"P.	c #006963",
"Q.	c #006965",
"R.	c #009690",
"S.	c #00847D",
"T.	c #00847E",
"U.	c #00837C",
"V.	c #00827C",
"W.	c #00857F",
"X.	c #008780",
"Y.	c #008079",
"Z.	c #007973",
"`.	c #007670",
" +	c #005855",
".+	c #009F99",
"++	c #00948D",
"@+	c #00938C",
"#+	c #00958E",
"$+	c #00968F",
"%+	c #009790",
"&+	c #00918A",
"*+	c #008F88",
"=+	c #008881",
"-+	c #00817B",
";+	c #004E4B",
">+	c #007370",
",+	c #00B4AD",
"'+	c #00ABA4",
")+	c #00B3AB",
"!+	c #00B2AB",
"~+	c #00B1AA",
"{+	c #00AFA8",
"]+	c #00AEA7",
"^+	c #002221",
". . . . . . . . . . . . . . . . + @ # $ % & & % & * & % = = % = = = & & = & = & % % % & % & & & & * & & * = % & % % - - % & % % % = & % = * = & & = & = & % % % & % & & & & * & & * = % & % % - - % & % % % = & % = * = = & & = & = & % % % & % & & & & * & & * = % & % % - - % & % % % = & % = * = = & & = & = & % % % & % & & & & * & & * = % & % % - - % & % % % = & % = * = & & = & = & % % % & % & & & & * & & * = % & % % - - % & % % % = & % = * ; # @ > . . . . . . . . . . . . . . . . ",
". . . . . . . . . . . . . . . , ' ) ! ~ ~ ! ! { ! { ] { { ~ { { ! { ] ! ! { ^ { { ! { { ! ] { { ! ! { { { { { ] { { { ! ~ ! ! ~ ! { ! ~ ! { { ] ! ! { ^ { { ! { { ! ] { { ! ! { { { { { ] { { { ! ~ ! ! ~ ! { ! ~ ! { ! { ] ! ! { ^ { { ! { { ! ] { { ! ! { { { { { ] { { { ! ~ ! ! ~ ! { ! ~ ! { ! { ] ! ! { ^ { { ! { { ! ] { { ! ! { { { { { ] { { { ! ~ ! ! ~ ! { ! ~ ! { { ] ! ! { ^ { { ! { { ! ] { { ! ! { { { { { ] { { { ! ~ ! ! ~ ! { ! ~ ! { ~ ! - ' / . . . . . . . . . . . . . . . ",
". . . . . . . . . . . . . . ( = _ : : _ _ < : _ : _ : < : _ _ : [ : [ : _ : : : : _ [ : : : _ _ : < : : [ _ : : _ [ : _ _ _ : : [ : _ : [ _ : [ : _ : : : : _ [ : : : _ _ : < : : [ _ : : _ [ : _ _ _ : : [ : _ : [ _ [ : [ : _ : : : : _ [ : : : _ _ : < : : [ _ : : _ [ : _ _ _ : : [ : _ : [ _ [ : [ : _ : : : : _ [ : : : _ _ : < : : [ _ : : _ [ : _ _ _ : : [ : _ : [ _ : [ : _ : : : : _ [ : : : _ _ : < : : [ _ : : _ [ : _ _ _ : : [ : _ : [ _ < _ : _ = ( . . . . . . . . . . . . . . ",
". . . . . . . . . . . . . ( } | | 1 1 | 1 2 1 | 1 | | | | | 1 | 1 | | 1 3 | 2 1 3 1 | | 2 | | 1 | 1 | 1 1 3 1 1 3 | 2 2 1 | 1 1 1 | 1 | 1 1 | | 1 3 | 2 1 3 1 | | 2 | | 1 | 1 | 1 1 3 1 1 3 | 2 2 1 | 1 1 1 | 1 | 1 1 1 | | 1 3 | 2 1 3 1 | | 2 | | 1 | 1 | 1 1 3 1 1 3 | 2 2 1 | 1 1 1 | 1 | 1 1 1 | | 1 3 | 2 1 3 1 | | 2 | | 1 | 1 | 1 1 3 1 1 3 | 2 2 1 | 1 1 1 | 1 | 1 1 | | 1 3 | 2 1 3 1 | | 2 | | 1 | 1 | 1 1 3 1 1 3 | 2 2 1 | 1 1 1 | 1 | 1 1 | 1 1 3 | 4 ( . . . . . . . . . . . . . ",
". . . . . . . . . . . 5 ( 6 7 8 9 0 a 0 8 0 a 8 b b b b b b b b b b b b b 8 a 0 0 0 0 b b b b b b b b b b b 0 7 9 8 b b b b b b b b 7 7 0 b b b b b b b 0 0 0 0 0 b b b b b b b b b b b b b b b b 0 0 0 b b b b b b b b b b b b b b b b 0 0 0 7 b b b b b b b b b b b 9 8 0 8 0 0 0 8 0 8 7 7 b b b b b b b b a 0 0 b b b b b b b a 8 0 a a b b b b b b b b b b b b b b b b 7 8 0 8 b b b b b b b b b b b b b b 0 a a 0 0 b b b b b b b b b b b 7 7 0 7 0 0 a 8 8 0 6 ( . . . . . . . . . . . . ",
". . . . . . . . . . . ( ] c d c c c c c d c c b b b b b b b b b b b b b b b c c c c b b b b e b b b b b b b d c d b b b b b b b b b b b b b b b b b b b b c c c b b b b b b b b b b b b b b b b b b c c b b b b b b b b b b b b b b b b b c c b b b b e b b b b b b b d d c c d c c c d d d b b b b b b b b b b b b b b b b b b b b d d c b b b b b b b b b b b b b b b b b b d c b b b b b f b b b b b b b b b b b c c b b b b e b b b b b b b d d c c c c d c c c g ] ( . . . . . . . . . . . ",
". . . . . . . . . . h i j k j l l m j l k j j b b b b b b b b b b b b b b b l l k l b b b b b b b b b b b b l m j b b b b b b b b b b b b b b b b b b b b b l k b b b b m j l l j l l l m j b b b b l j b b b b b b b b b b b b b b b b b k j b b b b b b b b b b b b j n j l k l j k o l l b b b b b b b b b b b b b b b b b b b b b l j b b b b j n j l k l j k o l b b b b k j b b b l l k l k j o k l m j b b b l l b b b b b b b b b b b b l k j l m o j l l m j m i h p . . . . . . . . . ",
". . . . . . . . . q _ r s r t s s u s s t s r b b s r s s u v t r s r b b b r u r r b b r s u t s u t s s s s s s b b b r t r s u s b b b s s r s u s b b b r r b b b u t s u t s s s s s s s b b b t r s u s r s s s b b b b b b b b b b r s b b u t s u t s s s s s s s s s r t r s u s r b b b r s r s u s b b b r r s r s u b b b t s b b b s s s s s r t r s u s r b b b s r b b s r u r r r s r s u t s u b b s s b b s s s s r t r s u s r s s s t r s s r u r s s : q w . . . . . . . . ",
". . . . . . . x y z A B A A A C C C A C A A A b b A A C A C A B A A A b b b A A A D b b A A A C A A A B A A A A A b b b A A A A A A b b b A A A A A A b b A D A b b b A C A A A B A A A A A A b b b A A A A A A A C A b b b b b b b b b D A A b b A C A A A B A A A A A A A C A A A A A A A b b b A A A A A A b b b D A A A A A b b A A B b b b A A A A C A A A A A A A b b b A A b b A A A A D A A A A A C A A b b A A b b A A A C A A A A A A A A C A A A A A A A A A C E z y F . . . . . . . ",
". . . . . . G q H I J K K J K J J J L I K K J b b I J J I J J M K J M b b b I I L M b b K I K J N I L K J J J I J b b b L J I I J I b b b L J M J I J b b b M I b b b K J N I L K J J J I J K b b b J I I J I I J N L b b M J I J I I L M I K b b K J N I L K J J J I J K L I L J I I J I I b b b K J M J I J b b b M I K K I K b b b L K b b b I J K L I L J I I J I I b b b J M b b J I I L M I K K I K J N I b b J J b b J K L I L J I I J I I J N L I K J K J J J I I J I O q P . . . . . . ",
". . . . . Q q 1 R S T R U R S R T R T S S T R b b S S T R S T R U S S b b b S S S R b b R R S R S S S R U S S R S b b b S S R S R R b b b S S S U T R b b b R U b b b S R S S S R U S S R S R b b b S R S R R T R S S b b S U T R S S S R U R b b S R S S S R U S S R S R T T S S R S R R T b b b U S S U T R b b b R U R R R S b b b S R b b b R S R T T S S R S R R T b b b S S b b R S S S R U R R R S R S S b b U S b b S R T T S S R S R R T R S S S T R R R U T S R S S R 2 q . . . . . . ",
". . . . x h V W W X W W X X W W W W W X W W X b b W W W W X W W X X W b b b W X W W b b X W W W W X W W X X W W W b b b W W X X W W b b b X X W W W W b b b W X b b b W W W X W W X X W W W X b b b W X X W W W W W X b b W W W W W X W W X X b b W W W X W W X X W W W X W X W W X X W W W b b b X X W W W W b b b W X X X W W b b b W W b b b W W X W X W W X X W W W b b b X W b b W W X W W X X X W W W W X b b X X b b W X W X W W X X W W W W W X W W X X W W W W W X W W X Y h G . . . . ",
". . . Z `  ...X ....X +.+...+...+.X ....X +.+.b b X ..X ....X +.+...+.b b b ......+.b b +.....X ......+.+...+.X ..b b b X +.+.+.+.X b b b ....+.X ....b b b +.+.b b b ..X ......+.+...+.X ....b b b +.+.+.+.X ..X ....b b +.X ..........+.+...b b ..X ......+.+...+.X ....+...X +.+.+.+.X ..b b b +...+.X ....b b b +.+...+.....b b b ..+.b b b X ....+...X +.+.+.+.X ..b b b ..+.b b ........+.+...+.....X ....b b +...b b ....+...X +.+.+.+.X ..X ....X +.+...+.X ..X ....X +.+.+.@.` #.. . . ",
". . Q $.%.&.&.&.&.&.&.+.&.&.&.&.&.&.&.&.&.+.&.b b b b b b b b b b b b b b b &.&.&.+.b b &.&.&.&.&.&.&.+.&.&.&.&.&.b b b &.+.&.&.&.&.b b b &.&.&.&.&.&.b b b +.&.b b b &.&.&.&.&.+.&.&.&.&.&.&.b b b +.&.&.&.&.&.&.&.&.b b &.&.&.&.&.&.&.+.&.&.b b &.&.&.&.&.+.&.&.&.&.&.&.&.&.&.+.&.&.&.&.&.b b b &.&.&.&.&.&.b b b +.&.&.&.&.&.b b b &.+.b b b &.&.&.&.&.&.+.&.&.&.&.&.b b b &.&.b b b &.&.&.+.&.&.&.&.&.&.&.&.b b &.&.b b &.&.&.&.&.+.&.&.&.&.&.&.&.&.&.+.&.&.&.&.&.&.&.&.&.+.&.&.&.%.$.*.. . ",
". . h %.=.&.&.&.&.&.&.&.&.=.=.&.&.&.&.&.&.&.&.b b b b b b b b b b b b b b b b b &.&.b b b b b b b b b b b b &.&.&.b b b &.&.+.&.&.&.b b b &.=.=.&.&.&.b b b &.&.b b b &.&.&.&.&.+.&.&.&.&.&.b b b b &.+.&.&.&.&.&.&.&.b b =.&.&.&.&.&.&.&.&.=.b b b b b b b b b b b b &.&.&.&.&.&.+.&.&.&.&.b b b &.=.=.&.&.&.b b b &.&.=.=.&.&.b b b &.+.b b b &.&.&.&.&.&.&.+.&.&.&.b b b b =.=.b b b &.&.&.&.&.=.=.&.&.&.&.&.b b &.&.b b b b b b b b b b b b &.&.&.&.&.+.+.&.&.&.&.&.&.&.&.+.+.&.&.&. .h . . ",
". -.;.&.&.&.&.&.&.&.&.&.&.&.&.&.&.&.&.&.&.&.&.b b b b b b b b b b b b b b b b b &.+.b b b b b b b b b b b b &.&.&.b b b b +.&.+.&.&.b b b &.&.&.&.&.&.b b b +.&.b b b &.&.&.&.&.+.&.&.&.&.&.b b b b +.&.+.&.&.&.&.&.&.b b &.&.&.&.&.&.&.+.&.&.b b b b b b b b b b b b &.&.&.&.&.+.&.+.&.&.&.b b b b &.&.&.&.&.b b b +.&.&.&.&.&.b b b &.+.b b b &.&.&.&.&.&.+.&.+.&.&.b b b b &.&.b b b &.&.&.+.&.&.&.&.&.&.&.&.b b &.&.b b b b b b b b b b b b &.&.&.&.&.+.&.+.&.&.&.&.&.&.&.+.&.+.&.&.&.;.>.. ",
",.'.K &.&.&.&.&.&.&.&.&.&.&.&.&.&.&.&.&.&.&.&.b b b b &.&.&.&.&.+.+.&.+...+.b b +.&.b b b +...+.+...+.+.+...+...X b b b b +.X ..+...b b b ..+.&.+...+.b b b &.+.b b b ..+.+...+.+.+...+...X b b b b +.X ..+...X +.....b b &.+...+.+.+.+.&.+.+.b b b +.+...+.+.+...+...X +...X ..+.X ..+...X b b b b +.&.+...+.b b b &.+.+.+.+...b b b +.+.b b b ..X +...X ..+.X ..+...b b b b +.&.b b b +.+.+.&.+.+.+.+...+.+...b b +...b b b +...X ..+.X ..+...X +.....+.+.X ..+...X +.+.X ..+...+.+.+.+.I '.. ",
").! &.&.&.&.&.&.&.&.&.&.&.&.&.&.+...+...+.&.+.b b b b X X X X ..W X X X X X b b X X b b b X W W W W W W W X X W W b b b b W W X X W b b b W X X X X X b b b X W b b b W W W W W W W X X W W b b b b W W X X W !.W W W b b X X X X X W X X W X b b b W W W W W W X X W W W W W W W W X X W !.b b b b X X X X X b b b X W X X X W b b b W W b b b W W W W W W W W X X W b b b b X X b b b X W X X W X X X W W W W b b W X b b b W W W W W W X X W !.W W W W W W X W W !.W W !.X X X X X X X X ;.~.",
"{.d &.&...+.+.&.+.+.+.+.+.+.X X X X ..X X X X b b b b W W !.T !.T T U T S T b b T T b b b T T T T T S T T T ].T R b b b b S S R M R b b b S T U T S T b b b T T b b b T T T T S T T T ].T R b b b b S S R M R U R T S b b U T S T T T T T T T b b b T T T S T T T ].T R T S R R S S R M R U b b b b T U T S T b b b T T T ].T T b b b S T b b b T R T S R R S S R M R b b b b T U b b b T T T T T T ].T T T T T b b T T b b b T S R R S S R M R U R T S R R T S M U U S S S R S !.T R T !.W ^./.",
"(.L X X ..X ......X X W X W X W W W W T S R S b b b b T R U ]._.K M M K K K b b J I b b b K K K J J J J J J J J J b b b b N L N J L b b b L M M K K K b b b I J b b b K K J J J J J J J J J b b b b N L N J L K J J L b b M K K K M J J I J J b b b K J J J J J J J J J J I I L N L N J L K b b b b M M K K K b b b I J J J K K b b b J J b b b J J J I I L N L N J L b b b b M M b b b M J J I J J J K K K J J b b J J b b b J I I L N L N J L K J J L J L J L J I K J M J K J K K M M R U B :.",
"(.L T !.!.W W T !.S T S U ].R S R U _.K K J I b b b b I L N N N A A E <.<.A b b A C b b b C A A A A A D A B A A A b b b b A A D A D b b b D A E <.<.A b b b C D b b b A A A A A D A B A A A b b b b A A D A D A [.B D b b E <.<.A A A A C D C b b b A A A A D A B A A A D B D A A A D A D A b b b b A E <.<.A b b b C D C E C A b b b A D b b b A A D B D A A A D A D b b b b A E b b b A A A C D C E C A A A A b b A B b b b D B D A A A D A D A [.B D B A [.[.B A D C A A E A A A C N }.L |.1.",
"2.u t t t 3.s s t r 4.r t v 3.v 5.s 3.3.v t t b b b b t v v 3.v v 4.4.r t r b b s s b b b r t v 3.v 5.s 3.3.v t t b b b b t v v 3.v b b b r r v u t t b b b s t b b b t v 3.v 5.s 3.3.v t t b b b b t v v 3.v v 4.4.r b b v u t t t 3.s s t r b b b v 3.v 5.s 3.3.v t t 3.4.6.r t v v 3.v v b b b b r v u t t b b b s t r 4.r t b b b 5.s b b b t t 3.4.6.r t v v 3.v b b b b r v b b b t 3.s s t r 4.r t v 3.v b b 3.3.b b b 3.4.6.r t v v 3.v v 4.4.r v r 3.3.4.r t 3.v v t u t s r |.7.[.v {.",
"8.9.0.o a.a.b.9.9.9.b.9.0.9.c.a.d.b.0.9.a.a.a.b b b b 9.9.a.d.d.b.0.d.d.o o b b b.9.b b b 9.0.9.c.a.d.b.0.9.a.a.a.b b b b 9.9.a.d.d.b b b d.o b.9.0.o b b b 9.9.b b b 0.9.c.a.d.b.0.9.a.a.a.b b b b 9.9.a.d.d.b.0.d.d.b b b.9.0.o a.a.b.9.9.9.b b b 9.c.a.d.b.0.9.a.a.a.9.a.d.d.9.9.a.d.d.b.b b b b o b.9.0.o b b b 9.9.9.b.9.0.b b b d.b.b b b a.a.9.a.d.d.9.9.a.d.d.b b b b o b.b b b b a.b.9.9.9.b.9.0.9.c.a.b b 0.9.b b b 9.a.d.d.9.9.a.d.d.b.0.d.d.d.9.b.d.c.d.a.a.a.c.0.j l l m n e.6.b.f.",
"g.h.i.j.i.h.h.j.j.k.l.j.j.h.k.l.m.k.j.m.l.l.j.b b b b m.j.0 m.k.j.k.h.k.n.j.b b h.j.b b b b b b b b b b b b b l.j.b b b b m.j.0 m.k.b b b k.j.k.h.i.j.b b b j.j.b b b b b b b b b b b b b b b b b b m.j.0 m.k.j.k.h.k.b b k.h.i.j.i.h.h.j.j.k.b b b b b b b b b b b b b k.j.m.k.m.j.0 m.k.j.b b b b j.k.h.i.j.b b b j.j.k.l.j.j.b b b m.k.b b b b b b b b b b b b b b b b b b j.k.b b b b b b b b b b b b b b b b b j.m.b b b b b b b b b b b b b k.h.k.0 m.l.7 9 l.k.l.j.n.h.j.n.^.o.c d d.p.q.",
"r.Y s.s.3 Y s.t.s.s.s.V s.s.s.t.s.V t.3 3 s.s.b b b b 3 3 t.s.t.t.1 | 3 s.3 b b s.t.b b b b b b b b b b b b b s.s.b b b b 3 3 t.s.t.b b b 3 3 V Y s.s.b b b t.s.b b b b b b b b b b b b b b s.b b 3 3 3 t.s.t.t.1 | 3 b b V Y s.s.3 Y s.t.s.s.b b b b b b b b b b b b b s.3 t.3 3 3 t.s.t.t.b b b b 3 V Y s.s.b b b t.s.s.s.V s.b b b s.V b b b b b b b b b b b b b b u.b b v.3 V w.b b b b b b b b b b b b b b b V t.3 b b b b b b b b b b b b b 1 | 3 | s.t.3 s.t.3 V s.V @. .x.@.y.8 l.l.x.z.",
"A.< : < < < : _ : B.: < _ _ < _ : C._ C.< _ B.B.< B.< < B.C.< B.B.D.D.C.: _ : < : _ : B.: < _ _ < _ : C._ C.< _ B.B.< B.< < B.C.< B.B.D.D.C._ : < : < < < : _ : B.: < _ _ < _ : C._ C.< _ B.B.< B.< < B.C.< B.B.D.D.C.: _ : < : < < < : _ : B.: < _ _ < _ : C._ C.< _ B.B.< B.< < B.C.< B.B.D.D.C.: _ : < : < < < : _ : B.: < _ _ < _ : C._ C.< _ B.B.< B.< < B.C.< B.B.D.D.C._ : < : < < < : _ : B.: < _ _ < _ : C._ C.< _ B.B.< B.< < B.C.< B.B.D.D.C.B.E.D.D.< B.B.: _ F.[ : z G.H.H.2 3 O I.",
"J.K.L.M.N.K.N.K.K.K.M.O.~ K.;.O.N.K.K.O.O.O.M.O.N.N.O.N.O.6 K.O.O.O.O.6 L.K.K.K.N.K.K.K.M.O.~ K.;.O.N.K.K.O.O.O.M.O.N.N.O.N.O.6 K.O.O.O.O.6 K.K.K.L.M.N.K.N.K.K.K.M.O.~ K.;.O.N.K.K.O.O.O.M.O.N.N.O.N.O.6 K.O.O.O.O.6 L.K.K.K.L.M.N.K.N.K.K.K.M.O.~ K.;.O.N.K.K.O.O.O.M.O.N.N.O.N.O.6 K.O.O.O.O.6 L.K.K.K.L.M.N.K.N.K.K.K.M.O.~ K.;.O.N.K.K.O.O.O.M.O.N.N.O.N.O.6 K.O.O.O.O.6 K.K.K.L.M.N.K.N.K.K.K.M.O.~ K.;.O.N.K.K.O.O.O.M.O.N.N.O.N.O.6 K.O.O.O.O.6 O.O.O.O.K.O.K.K.K.M.~ { ! ! P.i C.< D.Q.",
"R.S.S.T.S.U.U.V.S.T.S.).S.W.U.U.V.S.S.W.S.T.S.W.T.S.U.).).T.W.W.W.W.W.W.U.S.U.U.U.V.S.T.S.).S.W.U.U.V.S.S.W.S.T.S.W.T.S.U.).).T.W.W.W.W.W.W.S.U.S.S.T.S.U.U.V.S.T.S.).S.W.U.U.V.S.S.W.S.T.S.W.T.S.U.).).T.W.W.W.W.W.W.U.S.U.S.S.T.S.U.U.V.S.T.S.).S.W.U.U.V.S.S.W.S.T.S.W.T.S.U.).).T.W.W.W.W.W.W.U.S.U.S.S.T.S.U.U.V.S.T.S.).S.W.U.U.V.S.S.W.S.T.S.W.T.S.U.).).T.W.W.W.W.W.W.S.U.S.S.T.S.U.U.V.S.T.S.).S.W.U.U.V.S.S.W.S.T.S.W.T.S.U.).).T.W.W.W.W.W.W.T.W.X.W.).W.U.S.U.V.) Y.- 4 Z.`.O.K.O. +",
".+++@+@+++++++@+#+#+#+@+@+@+++@+#+++++$+#+++@+++#+#+#+++$+%+++++#+$+++%+@+++@+++++@+#+#+#+@+@+@+++@+#+++++$+#+++@+++#+#+#+++$+%+++++#+$+++%+++@+++@+@+++++++@+#+#+#+@+@+@+++@+#+++++$+#+++@+++#+#+#+++$+%+++++#+$+++%+@+++@+++@+@+++++++@+#+#+#+@+@+@+++@+#+++++$+#+++@+++#+#+#+++$+%+++++#+$+++%+@+++@+++@+@+++++++@+#+#+#+@+@+@+++@+#+++++$+#+++@+++#+#+#+++$+%+++++#+$+++%+++@+++@+@+++++++@+#+#+#+@+@+@+++@+#+++++$+#+++@+++#+#+#+++$+%+++++#+$+++%+#+#+#+$+#+#+@+@+@+@+&+*+*+*+& =+T.-+- ;+",
">+# ,+# ,+# ,+,+,+,+,+,+'.,+,+,+,+,+'.,+,+,+'.,+'+1.'.,+'.'.,+'.,+,+,+'.# ,+)+# ,+,+,+,+,+,+'.,+,+,+,+,+'.,+,+,+'.,+'+1.'.,+'.'.,+'.,+,+,+'.,+)+# ,+# ,+# ,+,+,+,+,+,+'.,+,+,+,+,+'.,+,+,+'.,+'+1.'.,+'.'.,+'.,+,+,+'.# ,+)+# ,+# ,+# ,+,+,+,+,+,+'.,+,+,+,+,+'.,+,+,+'.,+'+1.'.,+'.'.,+'.,+,+,+'.# ,+)+# ,+# ,+# ,+,+,+,+,+,+'.,+,+,+,+,+'.,+,+,+'.,+'+1.'.,+'.'.,+'.,+,+,+'.,+)+# ,+# ,+# ,+,+,+,+,+,+'.,+,+,+,+,+'.,+,+,+'.,+'+1.'.,+'.'.,+'.,+,+,+'.'.'.'.,+,+,+,+# )+)+)+!+~+8.{+]+r.'+1.^+"};
