/* XPM */
static xpm_string_t times_xpm[] = {
"17 16 3 1",
" 	c None",
".	c #FFFFFF",
"+	c #00B140",
"...+++++++++++...",
"....+++++++++....",
"+.....+++++.....+",
"+.....+++++.....+",
"+++.....+.....+++",
"+++.....+.....+++",
"++++.........++++",
"++++++.....++++++",
"++++++.....++++++",
"++++.........++++",
"+++.....+.....+++",
"+++.....+.....+++",
"+.....+++++.....+",
"+.....+++++.....+",
"....+++++++++....",
"...+++++++++++..."};
