/* XPM */
static xpm_string_t cursor_xpm[] = {
"17 25 2 1",
" 	c #00B140",
".	c #FFFFFF",
".                ",
"..               ",
"...              ",
"....             ",
".....            ",
".. ...           ",
"..  ...          ",
"..   ...         ",
"..    ...        ",
"..     ...       ",
"..      ...      ",
"..       ...     ",
"..        ...    ",
"..         ...   ",
"..          ...  ",
"..           ... ",
"..       ........",
"..      .........",
"..   ..  ..      ",
"..  ...  ..      ",
"........  ..     ",
"....  ..  ..     ",
"...    ......    ",
"..     .....     ",
".       ..       "};
