/* XPM */
static xpm_string_t back_highlight_xpm[] = {
"124 30 91 1",
" 	c None",
".	c #00B140",
"+	c #007372",
"@	c #00C9C1",
"#	c #00B3AC",
"$	c #009992",
"%	c #008B84",
"&	c #008A83",
"*	c #008C85",
"=	c #008982",
"-	c #007E78",
";	c #009891",
">	c #00292A",
",	c #008280",
"'	c #00A9A2",
")	c #00807A",
"!	c #004944",
"~	c #004E49",
"{	c #004540",
"]	c #00433E",
"^	c #004847",
"/	c #00C8C0",
"(	c #007C76",
"_	c #007B75",
":	c #013D3D",
"<	c #006761",
"[	c #686868",
"}	c #00C7BF",
"|	c #00655F",
"1	c #001D1D",
"2	c #00C6BF",
"3	c #005F59",
"4	c #003E39",
"5	c #00403B",
"6	c #005E58",
"7	c #002220",
"8	c #003635",
"9	c #00C6BE",
"0	c #005954",
"a	c #002727",
"b	c #002E2C",
"c	c #00544F",
"d	c #00534D",
"e	c #002726",
"f	c #003231",
"g	c #00504A",
"h	c #00524C",
"i	c #004B47",
"j	c #003634",
"k	c #00C5BD",
"l	c #004742",
"m	c #004A45",
"n	c #002E2D",
"o	c #00C4BC",
"p	c #002B2A",
"q	c #004A46",
"r	c #006460",
"s	c #006F69",
"t	c #00625E",
"u	c #00312F",
"v	c #00B5AE",
"w	c #00867F",
"x	c #006C67",
"y	c #005D59",
"z	c #00A59E",
"A	c #003E3A",
"B	c #00908A",
"C	c #00BCB5",
"D	c #00ADA6",
"E	c #00AAA3",
"F	c #00B7B0",
"G	c #00B0A9",
"H	c #009A94",
"I	c #00AAA4",
"J	c #00928C",
"K	c #00ACA5",
"L	c #00827D",
"M	c #00A59F",
"N	c #007773",
"O	c #00837D",
"P	c #006965",
"Q	c #009F99",
"R	c #007370",
"S	c #00B4AD",
"T	c #00ABA4",
"U	c #00B3AB",
"V	c #00B2AB",
"W	c #00B1AA",
"X	c #00AFA8",
"Y	c #00AEA7",
"Z	c #002221",
"................+@#$%&&%&&&&*&&*=%&%%--%&%%%=&%=*==&&=&=&%%%&%&&&&*&&*=%&%%--%&%%%=&%=*==&&=&=&%%%&%&&&&;#@>................",
"...............,')!~~!!!{!!!!!!!!!{!!!!~!!~!!!~!!!!{!!!]!!!!!!{!!!!!!!!!{!!!!~!!~!!!~!!!!{!!!]!!!!!!{!!!~!-'^...............",
"............../=]]]]]]]]]]]]]]]]]]]]]]]]]]]]]]]]]]]]]]]]]]]]]]]]]]]]]]]]]]]]]]]]]]]]]]]]]]]]]]]]]]]]]]]]]]]]=/..............",
"............./(]]]]]]]]]]]]]]]]]]]]]]]]]]]]]]]]]]]]]]]]]]]]]]]]]]]]]]]]]]]]]]]]]]]]]]]]]]]]]]]]]]]]]]]]]]]]]]_/.............",
"...........:/<]]]]]]]]]][[[[[[[[[[[[[[]]]]]][[[[[[[[[[[[[[[]]]]][[[[[[[[[[[[[[[[]]]]]]][[]]]]]]]]]][[]]]]]]]]]</............",
".........../{]]]]]]]]]][[[[[[[[[[[[[[[]]]]]][[[[[[[[[[[[[[[]]]]][[[[[[[[[[[[[[[[[[]]]]][[[]]]]]]]][[[]]]]]]]]]]{/...........",
"..........}|]]]]]]]]]]][[[[[[[[[[[[[[[]]]]]][[[[[[[[[[[[[[[]]]]][[[[[[[[[[[[[[[[[[]]]]][[[]]]]]]]][[[]]]]]]]]]]]|}1.........",
".........23]]]]]]]]]]]][[[45]455555[[[]]]]]][[[]]]]]]]]][[[]]]]][[[]]]]]]]]]][[[[[]]]]][[[]]]]]]]][[[]]]]]]]]]]]]627........",
".......890]]]]]]]]]]]]][[[]]]]]]]]][[[]]]]]][[[]]]]]]]]][[[]]]]][[[]]]]]]]]]][[[[[]]]]][[[]]]]]]]][[[]]]]]]]]]]]]]09a.......",
"......b2c]]]]]]]]]]]]]][[[]]]]]]]]][[[]]]]]][[[]]]]]]]]][[[]]]]][[[]]]]]]]]]][[[[[]]]]][[[]]]]]]]][[[]]]]]]]]]]]]]]d2e......",
".....f2g]]]]]]]]]]]]]]][[[]]]]]]]]][[[]]]]]][[[]]]]]]]]][[[]]]]][[[]]]]]]]]]]]]]]]]]]]][[[]]]]]]]][[[]]]]]]]]]]]]]]]h2......",
"....8}!]]]]]]]]]]]]]]]][[[]]]]]]]]][[[]]]]]][[[]]]]]]]]][[[]]]]][[[]]]]]]]]]]]]]]]]]]]][[[]]]]]]]][[[]]]]]]]]]]]]]]]]i}b....",
"...jkl]]]]]]]]]]]]]]]]][[[]]]]]]]]][[[]]]]]][[[]]]]]]]]][[[]]]]][[[]]]]]]]]]]]]]]]]]]]][[[]]]]]]]][[[]]]]]]]]]]]]]]]]]mkn...",
"..fo!]]]]]]]]]]]]]]]]]][[[]]]]]]]]][[[]]]]]][[[]]]]]]]]][[[]]]]][[[]]]]]]]]]]]]]]]]]]]][[[]]]]]]]][[[]]]]]]]]]]]]]]]]]]!op..",
"..}!]]]]]]]]]]]]]]]]]]][[[[[[[[[[[[[[[[[]]][[[[[[[[[[[[[[[[]]]]][[[[]]]]]]]]]]]]]]]]]][[[[[[[[[[[[[]]]]]]]]]]]]]]]]]]]]]q}..",
".rs]]]]]]]]]]]]]]]]]]]][[[[[]]]]]]]]]][[]][[[[[]]]]]]]]][[[[[[]][[[[[]]]]]]]]]]]]]]][[[[[[]]]]]]]][[[]]]]]]]]]]]]]]]]]]]]st.",
"uv]]]]]]]]]]]]]]]]]]]]][[[[[]]]]]]]]]][[]][[[[[]]]]]]]]][[[[[[]][[[[[]]]]]]]]]]][[]][[[[[[]]]]]]]][[[]]]]]]]]]]]]]]]]]]]]]v.",
"wx]]]]]]]]]]]]]]]]]]]]][[[[[]]]]]]]]]][[]][[[[[]]]]]]]]][[[[[[]][[[[[]]]]]]]]]]][[]][[[[[[]]]]]]]][[[]]]]]]]]]]]]]]]]]]]]]sy",
"z]]]]]]]]]]]]]]]]]]]]]][[[[[]]]]]]]]]][[]][[[[[]]]]]]]]][[[[[[]][[[[[]]]]]]]]][[[[]][[[[[[]]]]]]]][[[]]]]]]]]]]]]]]]]]]]]]AB",
"C]]]]]]]]]]]]]]]]]]]]]][[[[[]]]]]]]]]][[]][[[[[]]]]]]]]][[[[[[]][[[[[]]]]]]]]][[[[]][[[[[[]]]]]]]][[[]]]]]]]]]]]]]]]]]]]]]]D",
"C]]]]]]]]]]]]]]]]]]]]]][[[[[]]]]]]]]]][[]][[[[[]]]]]]]]][[[[[[]][[[[[]]]]]]]]][[[[]][[[[[[]]]]]]]][[[]]]]]]]]]]]]]]]]]]]]]]E",
"F]]]]]]]]]]]]]]]]]]]]]][[[[[]]]]]]]]]][[]][[[[[]]]]]]]]][[[[[[]][[[[[]]]]]]]]][[[[]][[[[[[]]]]]]]][[[]]]]]]]]]]]]]]]]]]]]]]z",
"G]]]]]]]]]]]]]]]]]]]]]][[[[[]]]]]]]]]][[]][[[[[]]]]]]]]][[[[[[]][[[[[]]]]]]]]][[[[]][[[[[[]]]]]]]][[[]]]]]]]]]]]]]]]]]]]]]]H",
"I]]]]]]]]]]]]]]]]]]]]]][[[[[[[[[[[[[[[[[]][[[[[]]]]]]]]][[[[[[]][[[[[[[[[[[[[[[[[[]][[[[[[]]]]]]]][[[]]]]]]]]]]]]]]]]]]]]]]J",
"K]]]]]]]]]]]]]]]]]]]]]][[[[[[[[[[[[[[[[[]][[[[[]]]]]]]]][[[[[[]][[[[[[[[[[[[[[[[[[]][[[[[[]]]]]]]][[[]]]]]]]]]]]]]]]]]]]]]]L",
"M]]]]]]]]]]]]]]]]]]]]]]]]]]]]]]]]]]]]]]]]]]]]]]]]]]]]]]]]]]]]]]]]]]]]]]]]]]]]]]]]]]]]]]]]]]]]]]]]]]]]]]]]]]]]]]]]]]]]]]]]]]N",
"O]]]]]]]]]]]]]]]]]]]]]]]]]]]]]]]]]]]]]]]]]]]]]]]]]]]]]]]]]]]]]]]]]]]]]]]]]]]]]]]]]]]]]]]]]]]]]]]]]]]]]]]]]]]]]]]]]]]]]]]]]]P",
"]]]]]]]]]]]]]]]]]]]]]]]]]]]]]]]]]]]]]]]]]]]]]]]]]]]]]]]]]]]]]]]]]]]]]]]]]]]]]]]]]]]]]]]]]]]]]]]]]]]]]]]]]]]]]]]]]]]]]]]]]]]]",
"Q]]]]]]]]]]]]]]]]]]]]]]]]]]]]]]]]]]]]]]]]]]]]]]]]]]]]]]]]]]]]]]]]]]]]]]]]]]]]]]]]]]]]]]]]]]]]]]]]]]]]]]]]]]]]]]]]]]]]]]]]]]]",
"R#S#S#SSSSSSvSSSSSvSSSvSSvSSSSSvSSSvSTEvSvvSvSSSv#SU#S#S#SSSSSSvSSSSSvSSSvSTEvSvvSvSSSv#SU#S#S#SSSSSSvSSvvvSSSS#UUUVWGXYKTEZ"};
