/* XPM */
static xpm_string_t back_xpm[] = {
"124 30 201 2",
"  	c None",
". 	c #00B140",
"+ 	c #007372",
"@ 	c #00C9C1",
"# 	c #00B3AC",
"$ 	c #009992",
"% 	c #008B84",
"& 	c #008A83",
"* 	c #008C85",
"= 	c #008982",
"- 	c #007E78",
"; 	c #009891",
"> 	c #00292A",
", 	c #008280",
"' 	c #00A9A2",
") 	c #00807A",
"! 	c #006C67",
"~ 	c #006E68",
"{ 	c #006B66",
"] 	c #006D67",
"^ 	c #006B65",
"/ 	c #004847",
"( 	c #00C8C0",
"_ 	c #005F59",
": 	c #005E58",
"< 	c #005F5A",
"[ 	c #005D58",
"} 	c #007C76",
"| 	c #00504A",
"1 	c #00514B",
"2 	c #00524C",
"3 	c #004F4A",
"4 	c #007B75",
"5 	c #013D3D",
"6 	c #00746E",
"7 	c #00423C",
"8 	c #00433E",
"9 	c #00413C",
"0 	c #00423D",
"a 	c #004440",
"b 	c #0EECE3",
"c 	c #003632",
"d 	c #003530",
"e 	c #00342F",
"f 	c #00332E",
"g 	c #00C7BF",
"h 	c #00655F",
"i 	c #002B27",
"j 	c #002925",
"k 	c #002A27",
"l 	c #002924",
"m 	c #002C28",
"n 	c #001D1D",
"o 	c #00C6BF",
"p 	c #00201D",
"q 	c #00201B",
"r 	c #00211E",
"s 	c #001E1B",
"t 	c #002220",
"u 	c #003635",
"v 	c #00C6BE",
"w 	c #005954",
"x 	c #001614",
"y 	c #001916",
"z 	c #001512",
"A 	c #001815",
"B 	c #001411",
"C 	c #002727",
"D 	c #002E2C",
"E 	c #00544F",
"F 	c #000E0D",
"G 	c #000D0C",
"H 	c #000D0A",
"I 	c #000F0D",
"J 	c #00110E",
"K 	c #000C09",
"L 	c #00534D",
"M 	c #002726",
"N 	c #003231",
"O 	c #000806",
"P 	c #000706",
"Q 	c #000606",
"R 	c #000A07",
"S 	c #004C47",
"T 	c #000505",
"U 	c #000404",
"V 	c #004B47",
"W 	c #003634",
"X 	c #00C5BD",
"Y 	c #004A46",
"Z 	c #000403",
"` 	c #000303",
" .	c #004A45",
"..	c #002E2D",
"+.	c #00C4BC",
"@.	c #004944",
"#.	c #000202",
"$.	c #002B2A",
"%.	c #000101",
"&.	c #006460",
"*.	c #006F69",
"=.	c #00625E",
"-.	c #00312F",
";.	c #00B5AE",
">.	c #00867F",
",.	c #000605",
"'.	c #005D59",
").	c #00A59E",
"!.	c #000A08",
"~.	c #003935",
"{.	c #00908A",
"].	c #00BCB5",
"^.	c #00ADA6",
"/.	c #000B08",
"(.	c #001310",
"_.	c #001A17",
":.	c #001210",
"<.	c #001C19",
"[.	c #00AAA3",
"}.	c #00B7B0",
"|.	c #00231F",
"1.	c #002420",
"2.	c #00221F",
"3.	c #001D1A",
"4.	c #002421",
"5.	c #001B18",
"6.	c #00B0A9",
"7.	c #002D2A",
"8.	c #002D29",
"9.	c #002F2B",
"0.	c #002E2A",
"a.	c #00302C",
"b.	c #00312D",
"c.	c #002723",
"d.	c #002623",
"e.	c #009A94",
"f.	c #00AAA4",
"g.	c #003C38",
"h.	c #003B37",
"i.	c #003D38",
"j.	c #003D39",
"k.	c #003F3A",
"l.	c #00403B",
"m.	c #003A36",
"n.	c #003834",
"o.	c #003733",
"p.	c #00928C",
"q.	c #00ACA5",
"r.	c #004E48",
"s.	c #004F49",
"t.	c #004843",
"u.	c #004642",
"v.	c #00827D",
"w.	c #00A59F",
"x.	c #00615B",
"y.	c #00625C",
"z.	c #00635C",
"A.	c #00645D",
"B.	c #005C57",
"C.	c #005853",
"D.	c #005651",
"E.	c #007773",
"F.	c #009F98",
"G.	c #00716B",
"H.	c #006F6A",
"I.	c #00706A",
"J.	c #00726C",
"K.	c #00736D",
"L.	c #006963",
"M.	c #006965",
"N.	c #009690",
"O.	c #00847D",
"P.	c #00847E",
"Q.	c #00837C",
"R.	c #00827C",
"S.	c #00857F",
"T.	c #008780",
"U.	c #008079",
"V.	c #007973",
"W.	c #007670",
"X.	c #005855",
"Y.	c #009F99",
"Z.	c #00948D",
"`.	c #00938C",
" +	c #00958E",
".+	c #00968F",
"++	c #009790",
"@+	c #00918A",
"#+	c #008F88",
"$+	c #008881",
"%+	c #00817B",
"&+	c #004E4B",
"*+	c #007370",
"=+	c #00B4AD",
"-+	c #00ABA4",
";+	c #00B3AB",
">+	c #00B2AB",
",+	c #00B1AA",
"'+	c #00AFA8",
")+	c #00AEA7",
"!+	c #002221",
". . . . . . . . . . . . . . . . + @ # $ % & & % & & & & * & & * = % & % % - - % & % % % = & % = * = = & & = & = & % % % & % & & & & * & & * = % & % % - - % & % % % = & % = * = = & & = & = & % % % & % & & & & ; # @ > . . . . . . . . . . . . . . . . ",
". . . . . . . . . . . . . . . , ' ) ! ~ ~ ! ! ! { ] ] ! ! ] ] ] ] ] { ] ] ] ! ~ ! ! ~ ! ] ! ~ ! ] ! ] { ! ! ] ^ ] ] ! ] ] ! { ] ] ! ! ] ] ] ] ] { ] ] ] ! ~ ! ! ~ ! ] ! ~ ! ] ! ] { ! ! ] ^ ] ] ! ] ] ! { ] ] ! ~ ! - ' / . . . . . . . . . . . . . . . ",
". . . . . . . . . . . . . . ( = _ : : _ _ < : : : _ _ : < : : [ _ : : _ [ : _ _ _ : : [ : _ : [ _ [ : [ : _ : : : : _ [ : : : _ _ : < : : [ _ : : _ [ : _ _ _ : : [ : _ : [ _ [ : [ : _ : : : : _ [ : : : _ _ : < _ : _ = ( . . . . . . . . . . . . . . ",
". . . . . . . . . . . . . ( } | | 1 1 | 1 2 1 2 | | 1 | 1 | 1 1 3 1 1 3 | 2 2 1 | 1 1 1 | 1 | 1 1 1 | | 1 3 | 2 1 3 1 | | 2 | | 1 | 1 | 1 1 3 1 1 3 | 2 2 1 | 1 1 1 | 1 | 1 1 1 | | 1 3 | 2 1 3 1 | | 2 | | 1 | | 1 1 3 | 4 ( . . . . . . . . . . . . . ",
". . . . . . . . . . . 5 ( 6 7 8 9 0 a 0 8 0 a 7 b b b b b b b b b b b b b b 8 0 0 0 8 0 b b b b b b b b b b b b b b b 0 0 7 0 0 b b b b b b b b b b b b b b b b 8 0 8 7 7 0 7 b b 0 8 7 8 a 0 0 0 0 0 b b 0 0 a 0 0 a 8 8 0 6 ( . . . . . . . . . . . . ",
". . . . . . . . . . . ( { c d c c c c c d c c b b b b b b b b b b b b b b b c d c c c d b b b b b b b b b b b b b b b c c e c d b b b b b b b b b b b b b b b b b b d d d c c b b b c c d c c c c c b b b d d d c c d c c c f { ( . . . . . . . . . . . ",
". . . . . . . . . . g h i j i k k l i k j i i b b b b b b b b b b b b b b b k j k i j m b b b b b b b b b b b b b b b j i m j k b b b b b b b b b b b b b b b b b b k k j i k b b b j i l k k j k j b b b k l i l m i k k l i l h g n . . . . . . . . . ",
". . . . . . . . . o _ p q p r q q s q q r q p b b b r q s r q q q q q b b b q p r p q s b b b q q p q p q s q p b b b p q p q s b b b r q q q q q q q q q b b b b b q p q q q b b b q s q p s p p p b b b s r q r p q q p s p q q : o t . . . . . . . . ",
". . . . . . . u v w x y x x x z z z x z x x x b b b z x x x y x x x x b b b z x x x x x b b b z x x x x x x x x b b b x x x x x b b b x y x x x x x x x z b b b b b x x x z x b b b x x x x x x A x b b b x z x x x x x x x x x z B w v C . . . . . . . ",
". . . . . . D o E F G H H G H G G G I F H H G b b b G J F I H G G G F b b b F I G F F G b b b J I H G K G F G F b b b F H H F H b b b I H G G G F G H I F b b b b b F F G J I b b b G F G F F I K F b b b H G J F H G H G G G F F G F L o M . . . . . . ",
". . . . . N o 1 O P Q O R O P O Q O Q P P Q O b b b O P P P O R P P O b b b Q P P O P O b b b P P R P P R Q O P b b b R O O O P b b b P O R P P O P O Q Q P P O P O O Q O P P b b b R Q O P P P O R b b b P O P P Q O O O R Q P O P P O 2 o . . . . . . ",
". . . . u g S T T U T T U U T T T T T U T T U b b b T T U T T U U T T b b b U T T U U T b b b T U U U T T T T T b b b U U U T T b b b T T U U T T T U T U T T U U T T T T T U b b b T T T T U T T U b b b T T T T T U U T T T T T U T T U V g D . . . . ",
". . . W X Y Z U Z Z U ` ` Z ` Z ` U Z Z U ` ` b b b U Z Z Z ` ` Z ` U b b b Z U ` ` ` ` b b b Z Z ` Z ` U Z Z Z b b b ` Z ` Z Z b b b Z ` ` Z ` U Z Z ` Z U ` ` ` ` U Z U Z Z b b b U Z Z Z Z Z ` ` b b b Z U Z U ` ` Z ` U Z U Z Z U ` ` `  .X ... . . ",
". . N +.@.#.#.#.#.#.#.` #.#.#.#.#.#.#.#.#.` #.b b b #.#.#.#.` #.#.#.#.b b b #.#.` #.#.#.b b b #.#.#.#.#.#.#.#.#.b b b #.#.#.#.#.b b b #.` #.#.#.#.#.#.#.#.#.` #.#.#.#.#.#.#.#.b b b #.#.#.#.#.#.` #.b b b #.#.#.#.` #.#.#.#.#.#.#.#.#.` #.#.#.@.+.$.. . ",
". . g @.%.#.#.#.#.#.#.#.#.%.%.#.#.#.#.#.#.#.#.b b b b b b b b b b b b b b b b b #.` #.b b b b b b b b b b b b b b b b #.%.%.#.#.b b b b ` #.#.#.#.#.#.#.#.#.#.` #.#.#.#.#.#.b b b b b b b b b b b b b %.#.#.#.#.#.` ` #.#.#.#.#.#.#.#.` ` #.#.#.Y g . . ",
". &.*.#.#.#.#.#.#.#.#.#.#.#.#.#.#.#.#.#.#.#.#.b b b b b #.#.` #.#.#.#.#.#.#.b b ` #.b b b b b #.#.#.#.#.#.#.#.#.b b b b b b #.#.b b b b b #.#.#.#.#.#.#.#.#.` #.` #.#.#.b b b b b b #.#.#.#.#.#.` #.b b b #.#.#.#.` #.` #.#.#.#.#.#.#.` #.` #.#.#.*.=.. ",
"-.;.H #.#.#.#.#.#.#.#.#.#.#.#.#.#.#.#.#.#.#.#.b b b b b Z ` ` ` Z ` Z U ` Z b b ` U b b b b b Z Z ` ` #.` Z ` ` b b b b b b ` Z b b b b b ` Z ` Z U ` Z U Z ` U b b Z U b b b b b b ` Z ` ` ` ` #.` b b b Z ` ` ` ` U Z ` Z U ` ` U Z ` Z ` ` ` ` F ;.. ",
">.! #.#.#.#.#.#.#.#.#.#.#.#.#.#.` Z ` Z ` #.` b b b b b T T T T U U T T T T b b T T b b b b b T T T U U U U U U b b b b b b U T b b b b b T U U T T T T T T T T b b T ,.b b b b b b U U U U T U U T b b b T T T T T T U T T ,.T T ,.U U U U U U U U *.'.",
").d #.#.Z ` ` #.` ` ` ` ` ` U U U U Z U U U U b b b b b Q P Q Q Q !.Q O Q P b b P P b b b b b Q P Q Q R Q P Q Q b b b b b b Q Q b b b b b Q Q !.Q O Q P O O b b b b O R b b b b b b Q P Q Q Q Q Q Q b b b Q Q Q O O Q P K R R P P P O P ,.Q O Q ,.T ~.{.",
"].I U U Z U Z Z Z U U T U T U T T T T Q P O P b b b b b G G G G G G G G G F b b J I b b b b b G I H K K H H H K b b b b b b H H b b b b b G G G G G G F F I b b b b I H b b b b b b H H H K G G F G b b b H H G G I G I G F H G K G H G H H K K O R y ^.",
"].I Q ,.,.T T Q ,.P Q P R !.O P O R /.H H G F b b b b b x x A x y x x x A y b b x x b b b b b y A x x B (.(.x x b b b b b b z x b b b b b x y x x x A y A x b b b b A x b b b b b b (.(.x x x x z A b b b x x x y x _._.y x A z x x B x x x z J :.I <.[.",
"}.s r r r |.q q r p 1.p r 2.|.2.3.q |.|.2.r r b b b b b 2.3.q |.|.2.r r |.1.b b r 2.b b b b b 1.p r p 2.s r r r b b b b b b p r b b b b b |.|.2.r r |.1.4.p b b b b 2.2.b b b b b b s r r r |.q q r b b b r 2.|.2.p |.|.1.p r |.2.2.r s r q p <.5._.2.).",
"6.7.8.m 9.9.0.7.7.7.0.7.8.7.a.9.b.0.8.7.9.9.9.b b b b b 9.b.0.8.7.9.9.9.7.9.b b 7.7.b b b b b b.b.m m 0.7.8.m 9.b b b b b b 7.8.b b b b b 8.7.9.9.9.7.9.b.b.b b b b b.0.b b b b b b 7.8.m 9.9.0.7.7.b b b 8.7.a.b.7.0.b.a.b.9.9.9.a.8.i k k l c.d.4.0.e.",
"f.g.h.i.h.g.g.i.i.j.k.i.i.g.j.k.l.j.i.l.k.k.i.b b b b b b b b b b b b b b b b b l.i.b b b b b g.j.m.i.j.g.h.i.h.b b b b b b i.i.b b b b b b b b b b b b b b b b b b j.i.b b b b b b g.h.i.h.g.g.i.i.b b b i.g.j.0 l.k.7 9 k.j.k.i.m.g.i.m.~.n.c d b.o.p.",
"q.V r.r.3 V r.s.r.r.r.S r.r.r.s.r.S s.3 3 r.r.b b b b b b b b b b b b b b b b b 3 3 b b b b b | 3 r.3 S V r.r.3 b b b b b b S r.b b b b b b b b b b b b b b b b b b s.s.b b b b b b V r.r.3 V r.s.r.b b b r.r.r.| r.s.3 r.s.3 S r.S  .Y t. .u.8 k.k.t.v.",
"w.< : < < < : _ : x.: < _ _ < _ : y._ y.< _ x.: < _ _ < _ : y._ y.< _ x.x.< x.< < x.y.< x.x.z.z.y.: _ : < : < < < : _ : x.: < _ _ < _ : y._ y.< _ x.x.< x.< < x.y.< x.x.z.z.y.: _ : < : < < < : _ : x.: < _ _ < x.A.z.z.< x.x.: _ B.[ : w C.D.D.2 3 L E.",
"F.G.H.I.J.G.J.G.G.G.I.K.~ G.*.K.J.G.G.K.K.K.I.I.K.~ G.*.K.J.G.G.K.K.K.I.K.J.J.K.J.K.6 G.K.K.K.K.6 H.G.G.G.H.I.J.G.J.G.G.G.I.K.~ G.*.K.J.G.G.K.K.K.I.K.J.J.K.J.K.6 G.K.K.K.K.6 H.G.G.G.H.I.J.G.J.G.G.G.I.K.~ G.*.K.K.K.K.G.K.G.G.G.I.~ ] ! ! L.h y.< z.M.",
"N.O.O.P.O.Q.Q.R.O.P.O.>.O.S.Q.Q.R.O.O.S.O.P.O.O.>.O.S.Q.Q.R.O.O.S.O.P.O.S.P.O.Q.>.>.P.S.S.S.S.S.S.Q.O.Q.O.O.P.O.Q.Q.R.O.P.O.>.O.S.Q.Q.R.O.O.S.O.P.O.S.P.O.Q.>.>.P.S.S.S.S.S.S.Q.O.Q.O.O.P.O.Q.Q.R.O.P.O.>.O.S.Q.P.S.T.S.>.S.Q.O.Q.R.) U.- 4 V.W.K.G.K.X.",
"Y.Z.`.`.Z.Z.Z.`. + + +`.`.`.Z.`. +Z.Z..+ +Z.`. +`.`.`.Z.`. +Z.Z..+ +Z.`.Z. + + +Z..+++Z.Z. +.+Z.++`.Z.`.Z.`.`.Z.Z.Z.`. + + +`.`.`.Z.`. +Z.Z..+ +Z.`.Z. + + +Z..+++Z.Z. +.+Z.++`.Z.`.Z.`.`.Z.Z.Z.`. + + +`.`.`.Z. + + +.+ + +`.`.`.`.@+#+#+#+& $+P.%+- &+",
"*+# =+# =+# =+=+=+=+=+=+;.=+=+=+=+=+;.=+=+=+;.=+=+;.=+=+=+=+=+;.=+=+=+;.=+-+[.;.=+;.;.=+;.=+=+=+;.# =+;+# =+# =+# =+=+=+=+=+=+;.=+=+=+=+=+;.=+=+=+;.=+-+[.;.=+;.;.=+;.=+=+=+;.# =+;+# =+# =+# =+=+=+=+=+=+;.=+=+;.;.;.=+=+=+=+# ;+;+;+>+,+6.'+)+q.-+[.!+"};
