/* XPM */
static xpm_string_t date_xpm[] = {
"128 36 3 1",
" 	c None",
".	c #0EECE3",
"+	c #00B140",
"............................++++++++++.........................++++++.............................+++++++.......................",
"..............................++++++++..........................+++++...............................++++........................",
"..............................++++++++..........................+++++...............................++++........................",
"..............................++++++++..........................+++++++.............................++++........................",
"..............................++++++++..........................+++++++.............................++++........................",
"......++++++++++++++++++++....++++++++.....++++++++++++++++.....++++++++++++++++++++................++++....++++++++++++++++++++",
"......++++++++++++++++++++....++++++++.....++++++++++++++++.....++++++++++++++++++++................++++....++++++++++++++++++++",
"......++++++++++++++++++++....++++++++.....++++++++++++++++.....++++++++++++++++++++................++++....++++++++++++++++++++",
"......++++++++++++++++++++....++++++++.....++++++++++++++++.....++++++++++++++++++++....++++++++++++++++....++++++++++++++++++++",
"......++++++++++++++++++++....++++++++.....++++++++++++++++.....++++++++++++++++++++....++++++++++++++++....++++++++++++++++++++",
"......++++++++++++++++++++....++++++++.....++++++++++++++++.....++++++++++++++++++++....++++++++++++++++....++++++++++++++++++++",
"......++++++++++++++++++++....++++++++.....++++++++++++++++.....++++++++++++++++++++....++++++++++++++++....++++++++++++++++++++",
"......++++++++++++++++++++....++++++++.....++++++++++++++++.....++++++++++++++++++++....++++++++++++++++....++++++++++++++++++++",
"......++++++++++++++++++++....++++++++.....++++++++++++++++.....++++++++++++++++++++....++++++++++++++++....++++++++++++++++++++",
"......++++++++++++++++++++....++++++++.....++++++++++++++++.....++++++++++++++++++++....++++++++++++++++....++++++++++++++++++++",
".......+++++++++++++++++++....++++++++.....++++++++++++++++.....++++++++++++++++++++....++++++++++++++++....++++++++++++++++++++",
".......+++++++++++++++++++....+++++.............................++++++++++++++++++++....++++++++++++++++........................",
".......+++++++++++++++++++....+++++.............................++++++++++++++++++++....++++++++++++++++........................",
".......+++++++++++++++++++....+++++.............................++++++++++++++++++++....++++++++++++++++........................",
".......+++++++++++++++++++....+++++.............................++++++++++++++++++++....++++++++++++++++........................",
"........++++++++++++++++++....+++++.................................++++++++++++++++....++++++++++++++++........................",
"........++++++++++++++++++....++++.........++++++++++++++++.........++++++++++++++++....++++++++++++++++.........+++++++++++++++",
"........++++++++++++++++++....++++.........++++++++++++++++.........++++++++++++++++....++++++++++++++++.........+++++++++++++++",
"........++++++++++++++++++....++++.........++++++++++++++++.........++++++++++++++++....++++++++++++++++.........+++++++++++++++",
"........++++++++++++++++++....++++.........++++++++++++++++.........++++++++++++++++....++++++++++++++++.........+++++++++++++++",
"........++++++++++++++++++....++++.........++++++++++++++++.........++++++++++++++++....++++++++++++++++.........+++++++++++++++",
"........++++++++++++++++++....++++.........++++++++++++++++.........++++++++++++++++....++++++++++++++++.........+++++++++++++++",
"........++++++++++++++++++....++++.........++++++++++++++++.........++++++++++++++++....++++++++++++++++.........+++++++++++++++",
"........++++++++++++++++++....++++.........++++++++++++++++.........++++++++++++++++....++++++++++++++++.........+++++++++++++++",
"........++++++++++++++++++....++++.........++++++++++++++++.........++++++++++++++++....++++++++++++++++.........+++++++++++++++",
"........++++++++++++++++++....++++.........++++++++++++++++.........++++++++++++++++....++++++++++++++++.........+++++++++++++++",
"........++++++++++++++++++....++++.........++++++++++++++++.........++++++++++++++++....++++++++++++++++.........+++++++++++++++",
"..............................++++.........++++++++++++++++.........++++++++++++++++....++++++++++++++++........................",
"..............................++++.........++++++++++++++++.........++++++++++++++++....++++++++++++++++........................",
"............................++++++.........++++++++++++++++.........++++++++++++++++....++++++++++++++++........................",
"............................++++++.........++++++++++++++++.........++++++++++++++++....++++++++++++++++........................"};
