/* XPM */
static xpm_string_t high_scores_title_xpm[] = {
"411 45 4 1",
" 	c None",
".	c #00B140",
"+	c #0EECE3",
"@	c #BEF2E9",
"......++++.......................++++............+++...........++++++++++++++++++++++++++++++++++...........++++.......................++++...........................+++++++++++++++++++++++++++++++++.........+++++++++++++++++++++++++++++++++++.........++++++++++++++++++++++++++++++++++........+++++++++++++++++++++++++++++++..............++++++++++++++++++++++++++++........+++++++++++++++++++++++++++++++++...",
"......++++.....................++++++++.......++++++.........++++++++++++++++++++++++++++++++++++...........++++.....................++++++++.........................++++++++++++++++++++++++++++++++++++.....+++++++++++++++++++++++++++++++++++++++....+++++++++++++++++++++++++++++++++++++++.....++++++++++++++++++++++++++++++++++.........++++++++++++++++++++++++++++++........++++++++++++++++++++++++++++++++++++",
"......++++.....................++++++++.......++++++.........++++++++++++++++++++++++++++++++++++...........++++.....................++++++++.........................++++++++++++++++++++++++++++++++++++.....+++++++++++++++++++++++++++++++++++++++....+++++++++++++++++++++++++++++++++++++++.....++++++++++++++++++++++++++++++++++.........++++++++++++++++++++++++++++++........++++++++++++++++++++++++++++++++++++",
"......++++.....................++++++++.......++++++.........++++++++++++++++++++++++++++++++++++...........++++.....................++++++++.........................++++++++++++++++++++++++++++++++++++.....+++++++++++++++++++++++++++++++++++++++....+++++++++++++++++++++++++++++++++++++++.....++++++++++++++++++++++++++++++++++.........++++++++++++++++++++++++++++++........++++++++++++++++++++++++++++++++++++",
"......++++.....................++++++++.......++++++.........++++++++++++++++++++++++++++++++++++...........++++.....................++++++++......................+++++++++++++++++++++++++++++++++++++++.....+++++++++++++++++++++++++++++++++++++++....+++++++++++++++++++++++++++++++++++++++.....++++++++++++++++++++++++++++++++++.........++++++++++++++++++++++++++++++.....+++++++++++++++++++++++++++++++++++++++",
"......++++.....................++++++++.......++++++.........++++++++++++++++++++++++++++++++++++...........++++.....................++++++++......................+++++++++++++++++++++++++++++++++++++++.....+++++++++++++++++++++++++++++++++++++++....+++++++++++++++++++++++++++++++++++++++.....++++++++++++++++++++++++++++++++++.........++++++++++++++++++++++++++++++.....+++++++++++++++++++++++++++++++++++++++",
"......++++.....................++++++++.......++++++.........++++++..........................++++...........++++.....................++++++++......................++++++++.........................++++++.....++++++........................+++++++++....++++++..........................+++++++.....++++++.....................+++++++.........++++++.............................+++++++..........................++++++",
"......++++.....................++++++++.......++++++.........++++++..........................++++...........++++.....................++++++++......................++++++++.........................++++++.....++++++........................+++++++++....++++++..........................+++++++.....++++++.....................+++++++.........++++++.............................+++++++..........................++++++",
"......++++.....................++++++++.......++++++.........++++++..........................++++...........++++.....................++++++++......................++++++++.........................++++++.....++++++........................+++++++++....++++++..........................+++++++.....++++++.....................+++++++.........++++++.............................+++++++..........................++++++",
"......++++.....................++++++++.......++++++.........++++++..........................++++...........++++.....................++++++++......................++++++++.........................++++++.....++++++........................+++++++++....++++++..........................+++++++.....++++++.....................+++++++.........++++++.............................+++++++..........................++++++",
"......++++.....................++++++++.......++++++.........++++++..........................++++...........++++.....................++++++++......................++++++++.........................++++++.....++++++........................+++++++++....++++++..........................+++++++.....++++++.....................+++++++.........++++++.............................+++++++..........................++++++",
"......++++.....................++++++++.......++++++.........++++++..........................++++...........++++.....................++++++++......................++++++++.........................++++++.....++++++........................+++++++++....++++++..........................+++++++.....++++++.....................+++++++.........++++++.............................+++++++..........................++++++",
"......++++.....................++++++++.......++++++.........++++++.........................................++++.....................++++++++......................++++++++....................................++++++.....................................++++++..........................+++++++.....++++++.....................+++++++.........++++++.............................+++++++................................",
"......++++.....................++++++++.......++++++.........++++++.........................................++++.....................++++++++......................++++++++....................................++++++.....................................++++++..........................+++++++.....++++++.....................+++++++.........++++++.............................+++++++................................",
"......++++.....................++++++++.......++++++.........++++++.........................................++++.....................++++++++......................++++++++....................................++++++.....................................++++++..........................+++++++.....++++++.....................+++++++.........++++++.............................+++++++................................",
"......++++.....................++++++++.......++++++.........++++++.........................................++++.....................++++++++......................++++++++....................................++++++.....................................++++++..........................+++++++.....++++++.....................+++++++.........++++++.............................+++++++................................",
"......++++.....................++++++++.......++++++.........++++++.........................................++++.....................++++++++......................++++++++....................................++++++.....................................++++++..........................+++++++.....++++++.....................+++++++.........++++++.............................+++++++................................",
"......++++.....................++++++++.......++++++.........++++++.........................................++++.....................++++++++......................++++++++....................................++++++.....................................++++++..........................+++++++.....++++++.....................+++++++.........++++++.............................+++++++................................",
"......++++.....................++++++++.......++++++.........++++++.........................................++++.....................++++++++......................++++++++....................................++++++.....................................++++++..........................+++++++.....++++++.....................+++++++.........++++++.............................+++++++................................",
"...+++++++.....................++++++++.......++++++.........+++++++++...................................+++++++.....................++++++++......................++++++++....................................+++++++++..................................++++++........................+++++++++.....++++++++++++++++++++++++++++++++++++.......++++++.............................+++++++................................",
"...+++++++.....................++++++++.......++++++.........+++++++++...................................+++++++.....................++++++++......................++++++++....................................+++++++++..................................++++++........................+++++++++.....++++++++++++++++++++++++++++++++++++.......++++++.............................+++++++................................",
".++++++++++++++++++++++++++++++++++++++.......+++++++++......+++++++++.................................++++++++++++++++++++++++++++++++++++++......................+++++++++++++++++++++++++++++++++++++++.....+++++++++..................................++++++........................+++++++++.....+++++++++++++++++++++++++++++++++++++++....++++++++++++++++++++++++++++++.....+++++++++++++++++++++++++++++++++++++++",
".++++++++++++++++++++++++++++++++++++++.......+++++++++......+++++++++.................................++++++++++++++++++++++++++++++++++++++......................+++++++++++++++++++++++++++++++++++++++.....+++++++++..................................++++++........................+++++++++.....+++++++++++++++++++++++++++++++++++++++....++++++++++++++++++++++++++++++.....+++++++++++++++++++++++++++++++++++++++",
".++++++++++++++++++++++++++++++++++++++.......+++++++++......+++++++++.................................++++++++++++++++++++++++++++++++++++++......................+++++++++++++++++++++++++++++++++++++++.....+++++++++..................................++++++........................+++++++++.....+++++++++++++++++++++++++++++++++++++++....++++++++++++++++++++++++++++++.....+++++++++++++++++++++++++++++++++++++++",
".+++++++++++++++++++++++++++++++++++++++++....+++++++++@@....+++++++++............+++++++++++++++......+++++++++++++++++++++++++++++++++++++++++...................+++++++++++++++++++++++++++++++++++++++.....++++++++++.................................++++++........................+++++++++.....+++++++++++++++++++++++++++++++++++++++....++++++++++++++++++++++++++++++.....+++++++++++++++++++++++++++++++++++++++",
"++++++++++.....................+++++++++++....+++++++++++....+++++++++............+++++++++++++++.....++++++++++.....................+++++++++++................................................++++++++++.....++++++++++.................................++++++........................+++++++++.....++++++++++.....................++++++++....+++++++++++....................................................+++++++++++",
"++++++++++.....................+++++++++++....+++++++++++....+++++++++............+++++++++++++++.....++++++++++.....................+++++++++++................................................++++++++++.....++++++++++.................................++++++........................+++++++++.....++++++++++.....................++++++++....+++++++++++....................................................+++++++++++",
"++++++++++.....................+++++++++++....+++++++++++....+++++++++............+++++++++++++++.....++++++++++.....................+++++++++++................................................++++++++++.....++++++++++........................+++++....++++++........................+++++++++.....++++++++++.....................++++++++....+++++++++++....................................................+++++++++++",
"++++++++++.....................+++++++++++....+++++++++++....+++++++++............+++++++++++++++.....++++++++++.....................+++++++++++................................................++++++++++.....++++++++++........................+++++....++++++........................+++++++++.....++++++++++.....................++++++++....+++++++++++....................................................+++++++++++",
"++++++++++.....................+++++++++++....+++++++++++....+++++++++............+++++++++++++++.....++++++++++.....................+++++++++++................................................++++++++++.....++++++++++........................+++++....++++++........................+++++++++.....++++++++++.....................++++++++....+++++++++++....................................................+++++++++++",
"++++++++++.....................+++++++++++....+++++++++++....+++++++++...............++++++++++++.....++++++++++.....................+++++++++++................................................++++++++++.....++++++++++.....................++++++++....++++++........................+++++++++.....++++++++++.....................++++++++....+++++++++++....................................................+++++++++++",
"++++++++++.....................+++++++++++....+++++++++++....+++++++++.......................++++.....++++++++++.....................+++++++++++................................................++++++++++.....++++++++++.....................++++++++....++++++........................+++++++++.....++++++++++.....................++++++++....+++++++++++....................................................+++++++++++",
"++++++++++.....................+++++++++++....+++++++++++....+++++++++.......................++++.....++++++++++.....................+++++++++++................................................++++++++++.....++++++++++.....................++++++++....++++++........................+++++++++.....++++++++++.....................++++++++....+++++++++++....................................................+++++++++++",
"++++++++++.....................+++++++++++....+++++++++++....+++++++++.......................++++.....++++++++++.....................+++++++++++................................................++++++++++.....++++++++++.....................++++++++....++++++........................+++++++++.....++++++++++.....................++++++++....+++++++++++....................................................+++++++++++",
"++++++++++.....................+++++++++++....+++++++++++....+++++++++.......................++++.....++++++++++.....................+++++++++++...................++++++++.....................++++++++++.....++++++++++.....................++++++++....++++++........................+++++++++.....++++++++++.....................++++++++....+++++++++++........................+++++++.....................+++++++++++",
"++++++++++.....................+++++++++++....+++++++++++....+++++++++.......................++++.....++++++++++.....................+++++++++++...................++++++++.....................++++++++++.....++++++++++.....................++++++++....++++++........................+++++++++.....++++++++++.....................++++++++....+++++++++++........................+++++++.....................+++++++++++",
"++++++++++.....................+++++++++++....+++++++++++....+++++++++.......................++++.....++++++++++.....................+++++++++++...................++++++++.....................++++++++++.....++++++++++.....................++++++++....++++++........................+++++++++.....++++++++++.....................++++++++....+++++++++++........................+++++++.....................+++++++++++",
"++++++++++.....................+++++++++++....+++++++++++....+++++++++++.....................++++.....++++++++++.....................+++++++++++...................++++++++.....................++++++++++.....++++++++++.....................++++++++....++++++........................+++++++++.....++++++++++.....................++++++++....+++++++++++........................+++++++.....................+++++++++++",
"++++++++++.....................+++++++++++....+++++++++++....+++++++++++.....................++++.....++++++++++.....................+++++++++++...................++++++++.....................++++++++++.....++++++++++.....................++++++++....++++++........................+++++++++.....++++++++++.....................++++++++....+++++++++++........................+++++++.....................+++++++++++",
"++++++++++.....................+++++++++++....+++++++++++....+++++++++++.....................++++.....++++++++++.....................+++++++++++...................++++++++.....................++++++++++.....++++++++++.....................++++++++....++++++........................+++++++++.....++++++++++.....................++++++++....+++++++++++........................+++++++.....................+++++++++++",
"++++++++++.....................+++++++++++....+++++++++++....++++++++++++++++++++++++++++++++++++.....++++++++++.....................+++++++++++...................+++++++++++++++++++++++++++++++++++++++.....+++++++++++++++++++++++++++++++++++++++....+++++++++++++++++++++++++++++++++++++++.....++++++++++.....................++++++++....++++++++++++++++++++++++++++++.....+++++++++++++++++++++++++++++++++++++++",
"++++++++++.....................+++++++++++....+++++++++++....++++++++++++++++++++++++++++++++++++.....++++++++++.....................+++++++++++...................+++++++++++++++++++++++++++++++++++++++.....+++++++++++++++++++++++++++++++++++++++....+++++++++++++++++++++++++++++++++++++++.....++++++++++.....................++++++++....++++++++++++++++++++++++++++++.....+++++++++++++++++++++++++++++++++++++++",
"++++++++++.....................+++++++++++....+++++++++++....++++++++++++++++++++++++++++++++++++.....++++++++++.....................+++++++++++......................++++++++++++++++++++++++++++++++++++.....+++++++++++++++++++++++++++++++++++++++....+++++++++++++++++++++++++++++++++++++++.....++++++++++.....................++++++++....++++++++++++++++++++++++++++++........++++++++++++++++++++++++++++++++++++",
"++++++++++.....................+++++++++++....+++++++++++....++++++++++++++++++++++++++++++++++++.....++++++++++.....................+++++++++++......................++++++++++++++++++++++++++++++++++++.....+++++++++++++++++++++++++++++++++++++++....+++++++++++++++++++++++++++++++++++++++.....++++++++++.....................++++++++....++++++++++++++++++++++++++++++........++++++++++++++++++++++++++++++++++++",
"++++++++++.....................+++++++++++....+++++++++++....++++++++++++++++++++++++++++++++++++.....++++++++++.....................+++++++++++......................++++++++++++++++++++++++++++++++++++.....+++++++++++++++++++++++++++++++++++++++....+++++++++++++++++++++++++++++++++++++++.....++++++++++.....................++++++++....++++++++++++++++++++++++++++++........++++++++++++++++++++++++++++++++++++"};
