/* XPM */
static xpm_string_t name_xpm[] = {
"135 36 3 1",
" 	c None",
".	c #0EECE3",
"+	c #00B140",
".....++++++++++++++++++++.....+++++++..........................++++++++++..............+++..............+++++++........................",
"......+++++++++++++++++++.....+++++++...........................+++++++....................................+++.........................",
"......+++++++++++++++++++.....+++++++...........................+++++++....................................+++.........................",
".......++++++++++++++++++.....+++++++...........................+++++++....................................+++.........................",
".......++++++++++++++++++.....+++++++...........................+++++++....................................+++.........................",
"........+++++++++++++++++.....+++++++.....+++++++++++++++++.....+++++++....++++++++++++.......++++++++.....+++.....++++++++++++++++++++",
"..........+++++++++++++++.....+++++++.....+++++++++++++++++.....+++++++....++++++++++++.......++++++++.....+++.....++++++++++++++++++++",
"..........+++++++++++++++.....+++++++.....+++++++++++++++++.....+++++++....++++++++++++.....++++++++++.....+++.....++++++++++++++++++++",
"...++......++++++++++++++.....+++++++.....+++++++++++++++++.....+++++++....++++++++++++.....++++++++++.....+++.....++++++++++++++++++++",
"...++........++++++++++++.....+++++++.....+++++++++++++++++.....+++++++....++++++++++++.....++++++++++.....+++.....++++++++++++++++++++",
"...+++.......++++++++++++.....+++++++.....+++++++++++++++++.....+++++++....++++++++++++.....++++++++++.....+++.....++++++++++++++++++++",
"...+++.......++++++++++++.....+++++++.....+++++++++++++++++.....+++++++....++++++++++++.....++++++++++.....+++.....++++++++++++++++++++",
"...++++.......+++++++++++.....+++++++.....+++++++++++++++++.....+++++++....++++++++++++.....++++++++++.....+++.....++++++++++++++++++++",
"...+++++.......++++++++++.....+++++++.....+++++++++++++++++.....+++++++....++++++++++++.....++++++++++.....+++.....++++++++++++++++++++",
"...+++++........+++++++++.....+++++++.....+++++++++++++++++.....+++++++....++++++++++++.....++++++++++.....+++.....++++++++++++++++++++",
".....+++++......+++++++++.....+++++++.....+++++++++++++++++.....+++++++....++++++++++++.....++++++++++.....+++.....++++++++++++++++++++",
"......+++++......++++++++.....+++++.............................+++++++.......+++++++++.....++++++++++.....+++.........................",
"......+++++++.....+++++++.....+++++.............................+++++++.......+++++++++.....++++++++++.....+++.........................",
"......+++++++.....+++++++.....+++++.............................+++++++.......+++++++++.....++++++++++.....+++.........................",
"......+++++++.....+++++++.....+++++.............................+++++++.......+++++++++.....++++++++++.....+++.........................",
".......++++++.....+++++++.....+++++................................++++.......+++++++++.....++++++++++.....+++.........................",
".......+++++++......+++++.....++++........+++++++++++++++++........++++.......+++++++++.....++++++++++.....+++........+++++++++++++++++",
".......++++++++......++++.....++++........+++++++++++++++++........++++.......+++++++++.....++++++++++.....+++........+++++++++++++++++",
".......+++++++++......+++.....++++........+++++++++++++++++........++++.......+++++++++.....++++++++++.....+++........+++++++++++++++++",
".......+++++++++......+++.....++++........+++++++++++++++++........++++.......+++++++++.....++++++++++.....+++........+++++++++++++++++",
".......++++++++++......++.....++++........+++++++++++++++++........++++.......+++++++++.....++++++++++.....+++........+++++++++++++++++",
".......++++++++++......++.....++++........+++++++++++++++++........++++.......+++++++++.....++++++++++.....+++........+++++++++++++++++",
".......+++++++++++......+.....++++........+++++++++++++++++........++++.......+++++++++.....++++++++++.....+++........+++++++++++++++++",
".......+++++++++++++..........++++........+++++++++++++++++........++++.......+++++++++.....++++++++++.....+++........+++++++++++++++++",
".......+++++++++++++..........++++........+++++++++++++++++........++++.......+++++++++.....++++++++++.....+++........+++++++++++++++++",
".......++++++++++++++.........++++........+++++++++++++++++........++++.......+++++++++.....++++++++++.....+++........+++++++++++++++++",
".......+++++++++++++++........++++........+++++++++++++++++........++++.......+++++++++.....++++++++++.....+++........+++++++++++++++++",
".......+++++++++++++++........++++........+++++++++++++++++........++++.......+++++++++.....++++++++++.....+++.........................",
".......+++++++++++++++........++++........+++++++++++++++++........++++.......+++++++++.....++++++++++.....+++.........................",
".......++++++++++++++++.......++++........+++++++++++++++++........++++.......+++++++++.....++++++++++.....+++.........................",
".......+++++++++++++++++......++++........+++++++++++++++++........++++.......+++++++++.....++++++++++.....+++........................."};
