/* XPM */
static xpm_string_t rank_xpm[] = {
"135 36 5 1",
" 	c None",
".	c #0EECE3",
"+	c #00B140",
"@	c #AFD7B5",
"#	c #7AC486",
"..........................++++++++++++..........................++++++++.....+++++++++++++++++++++....+++++++....++++++++++++++++++....",
"............................++++++++++...........................+++++++......++++++++++++++++++++....+++++++.....++++++++++++++++.....",
"............................++++++++++...........................+++++++......++++++++++++++++++++....+++++++.....++++++++++++++++.....",
"............................++++++++++...........................+++++++.......+++++++++++++++++++....+++++++.....++++++++++++++++.....",
"............................++++++++++...........................+++++++.......+++++++++++++++++++....+++++++.....++++++++++++++++.....",
".....+++++++++++++++++......++++++++++.....+++++++++++++++++.....+++++++........++++++++++++++++++....+++++++.....++++++++++++++++.....",
".....+++++++++++++++++......++++++++++.....+++++++++++++++++.....+++++++.........+++++++++++++++++....+++++++.....++++++++++++++++.....",
".....+++++++++++++++++......++++++++++.....+++++++++++++++++.....+++++++.........+++++++++++++++++....+++++++.....++++++++++++++++.....",
".....+++++++++++++++++......++++++++++.....+++++++++++++++++.....+++++++....+......+++++++++++++++....+++++++.....++++++++++++++++.....",
".....+++++++++++++++++......++++++++++.....+++++++++++++++++.....+++++++....+.......++++++++++++++....+++++++.....++++++++++++++++.....",
".....+++++++++++++++++......++++++++++.....+++++++++++++++++.....+++++++....++......++++++++++++++....+++++++.....++++++++++++++++.....",
".....+++++++++++++++++......++++++++++.....+++++++++++++++++.....+++++++....++......++++++++++++++....+++++++.....++++++++++++++++.....",
".....+++++++++++++++++......++++++++++.....+++++++++++++++++.....+++++++....+++......+++++++++++++....+++++++.....++++++++++++++++.....",
".....+++++++++++++++++......++++++++++.....+++++++++++++++++.....+++++++....++++......++++++++++++....+++++++.....++++++++++++++++.....",
".....+++++++++++++++++......++++++++++.....+++++++++++++++++.....+++++++....++++.......+++++++++++....+++++++.....++++++++++++++++.....",
".............................+++++++++.....+++++++++++++++++.....+++++++.....++++......+++++++++++....++++++......++++++++++++++++....+",
"...............................+++++.............................+++++++......+++++.....++++++++++....++++++.......................++++",
"...............................+++++.............................+++++++......++++++......++++++++....++++++.......................++++",
"...............................+++++.............................+++++++......++++++......++++++++....++++++.......................++++",
"...............................+++++.............................+++++++......++++++......++++++++....++++++.......................++++",
"...............................++++@.................................+++.......+++++......++++++++....++++.............................",
"........++++++++++++++++++.....++++........++++++++++++++++#.........+++.......++++++......+++++++....++++........++++++++++++++++.....",
"........++++++++++++++++++.....++++........+++++++++++++++++.........+++.......+++++++.......+++++....++++........++++++++++++++++.....",
"........++++++++++++++++++.....++++........+++++++++++++++++.........+++.......++++++++.......++++....++++........++++++++++++++++.....",
"........++++++++++++++++++.....++++........+++++++++++++++++.........+++.......++++++++.......++++....++++........++++++++++++++++.....",
"........++++++++++++++++++.....++++........+++++++++++++++++.........+++.......+++++++++.......+++....++++........++++++++++++++++.....",
"........++++++++++++++++++.....++++........+++++++++++++++++.........+++.......+++++++++.......+++....++++........++++++++++++++++.....",
"........++++++++++++++++++.....++++........+++++++++++++++++.........+++.......+++++++++++......++....++++........++++++++++++++++.....",
"........++++++++++++++++++.....++++........+++++++++++++++++.........+++.......++++++++++++...........++++........++++++++++++++++.....",
"........++++++++++++++++++.....++++........+++++++++++++++++.........+++.......++++++++++++...........++++........++++++++++++++++.....",
"........++++++++++++++++++.....++++........+++++++++++++++++.........+++.......++++++++++++++.........++++........++++++++++++++++.....",
"........++++++++++++++++++.....++++........+++++++++++++++++.........+++.......+++++++++++++++........++++........++++++++++++++++.....",
"........++++++++++++++++++.....++++........+++++++++++++++++.........+++.......+++++++++++++++........++++........++++++++++++++++.....",
"........++++++++++++++++++.....++++........+++++++++++++++++.........+++.......+++++++++++++++........++++........++++++++++++++++.....",
"........++++++++++++++++++.....++++........+++++++++++++++++.........+++.......++++++++++++++++.......++++........++++++++++++++++.....",
"........++++++++++++++++++.....++++........+++++++++++++++++.........+++.......+++++++++++++++++......++++........++++++++++++++++....."};
