/* XPM */
static xpm_string_t stripe_xpm[] = {
"19 36 3 1",
" 	c None",
".	c #00B140",
"+	c #FFFFFF",
"...............++++",
"...............++++",
"..............++++.",
"..............++++.",
".............++++..",
".............++++..",
"............+++++..",
"............++++...",
"...........+++++...",
"...........++++....",
"...........++++....",
"..........++++.....",
"..........++++.....",
".........+++++.....",
".........++++......",
"........+++++......",
"........++++.......",
"........++++.......",
".......++++........",
".......++++........",
"......+++++........",
"......+++++........",
".....+++++++.......",
".....+++++++.......",
".....+++++++.......",
"....++++++++.......",
"....+++++++........",
"...++++++++........",
"...+++++++.........",
"..++++++++.........",
"..+++++++..........",
".++++++++..........",
".+++++++...........",
"++++++++...........",
"+++++++............",
".+++++............."};
