/* XPM */
static xpm_string_t time_xpm[] = {
"110 36 4 1",
" 	c None",
".	c #0EECE3",
"+	c #00B140",
"@	c #BEF2E9",
".............................++++++++...++++++++++.............+++..............++++++++......................",
"...............................++++.....+++++++....................................++++.......................",
"...............................++++.....+++++++....................................++++.......................",
"++.............................++++.....+++++++....................................++++.......................",
"++.............................++++.....+++++++....................................++++.......................",
"+++++++++++++++................++++.....+++++++.....+++++++++++.......++++++++.....++++.....++++++++++++++++++",
"+++++++++++++++................++++.....+++++++.....+++++++++++.......++++++++.....++++.....++++++++++++++++++",
"+++++++++++++++................++++.....+++++++.....+++++++++++....+++++++++++.....++++.....++++++++++++++++++",
"+++++++++++++++.....+++++++++++++++.....+++++++.....+++++++++++....+++++++++++.....++++.....++++++++++++++++++",
"+++++++++++++++.....+++++++++++++++.....+++++++.....+++++++++++....+++++++++++.....++++.....++++++++++++++++++",
"+++++++++++++++.....+++++++++++++++.....+++++++.....+++++++++++....+++++++++++.....++++.....++++++++++++++++++",
"+++++++++++++++.....+++++++++++++++.....+++++++.....+++++++++++....+++++++++++.....++++.....++++++++++++++++++",
"+++++++++++++++.....+++++++++++++++.....+++++++.....+++++++++++....+++++++++++.....++++.....++++++++++++++++++",
"+++++++++++++++.....+++++++++++++++.....+++++++.....+++++++++++....+++++++++++.....++++.....++++++++++++++++++",
"+++++++++++++++.....+++++++++++++++.....+++++++.....+++++++++++....+++++++++++.....++++.....++++++++++++++++++",
"+++++++++++++++.....+++++++++++++++.....+++++++.....+++++++++++....+++++++++++.....++++.....++++++++++++++++++",
"+++++++++++++++.....+++++++++++++++.......+++++........++++++++....+++++++++++.....++++.......................",
"+++++++++++++++.....+++++++++++++++.......+++++........++++++++....+++++++++++.....++++.......................",
"+++++++++++++++.....+++++++++++++++.......+++++........++++++++....+++++++++++.....++++.......................",
"+++++++++++++++.....+++++++++++++++.......+++++........++++++++....+++++++++++.....++++.......................",
"+++++++++++++++.....+++++++++++++++.......@++++........++++++++....+++++++++++.....++++.......................",
"+++++++++++++++.....+++++++++++++++........++++........++++++++....+++++++++++.....++++........+++++++++++++++",
"+++++++++++++++.....+++++++++++++++........++++........++++++++....+++++++++++.....++++........+++++++++++++++",
"+++++++++++++++.....+++++++++++++++........++++........++++++++....+++++++++++.....++++........+++++++++++++++",
"+++++++++++++++.....+++++++++++++++........++++........++++++++....+++++++++++.....++++........+++++++++++++++",
"+++++++++++++++.....+++++++++++++++........++++........++++++++....+++++++++++.....++++........+++++++++++++++",
"+++++++++++++++.....+++++++++++++++........++++........++++++++....+++++++++++.....++++........+++++++++++++++",
"+++++++++++++++.....+++++++++++++++........++++........++++++++....+++++++++++.....++++........+++++++++++++++",
"+++++++++++++++.....+++++++++++++++........++++........++++++++....+++++++++++.....++++........+++++++++++++++",
"+++++++++++++++.....+++++++++++++++........++++........++++++++....+++++++++++.....++++........+++++++++++++++",
"+++++++++++++++.....+++++++++++++++........++++........++++++++....+++++++++++.....++++........+++++++++++++++",
"+++++++++++++++.....+++++++++++++++........++++........++++++++....+++++++++++.....++++........+++++++++++++++",
"+++++++++++++++.....+++++++++++++++........++++........++++++++....+++++++++++.....++++.......................",
"+++++++++++++++.....+++++++++++++++........++++........++++++++....+++++++++++.....++++.......................",
"+++++++++++++++.....+++++++++++++++........++++........++++++++....+++++++++++.....++++.......................",
"+++++++++++++++.....+++++++++++++++........++++........++++++++....+++++++++++.....++++......................."};
