/* XPM */
static xpm_string_t dots_big_xpm[] = {
"6 13 3 1",
" 	c None",
".	c #FFFFFF",
"+	c #00B140",
"......",
"......",
"......",
"......",
"......",
"++++++",
"++++++",
"++++++",
"......",
"......",
"......",
"......",
"......"};
