/* XPM */
static xpm_string_t eight_big_xpm[] = {
"32 36 3 1",
" 	c None",
".	c #00B140",
"+	c #FFFFFF",
"......++++++++++++++++++++......",
".....++++++++++++++++++++++.....",
".....++++++++++++++++++++++.....",
".....++++++++++++++++++++++.....",
".....+++++............+++++.....",
".....++++.............+++++.....",
".....++++.............+++++.....",
".....++++.............+++++.....",
".....++++.............+++++.....",
".....++++.............+++++.....",
".....++++.............+++++.....",
".....++++.............+++++.....",
".....++++.............+++++.....",
".....++++.............++++++....",
".....++++++...........++++++....",
"...++++++++++++++++++++++++++...",
"...++++++++++++++++++++++++++...",
"..++++++++++++++++++++++++++++..",
"+++++++++++++++++++++++++++++++.",
"+++++++++...............++++++++",
"++++++++.................+++++++",
"++++++++.................+++++++",
"++++++++.................+++++++",
"++++++++.................+++++++",
"++++++++.................+++++++",
"++++++++.................+++++++",
"++++++++.................+++++++",
"++++++++.................+++++++",
"++++++++.................+++++++",
"++++++++.................+++++++",
"++++++++.................+++++++",
"+++++++++...............++++++++",
"++++++++++++++++++++++++++++++++",
"++++++++++++++++++++++++++++++++",
"++++++++++++++++++++++++++++++++",
"..+++++++++++++++++++++++++++++."};
