/* XPM */
static xpm_string_t one_big_xpm[] = {
"11 36 3 1",
" 	c None",
".	c #FFFFFF",
"+	c #00B140",
"........+++",
"........+++",
"........+++",
"........+++",
"........+++",
"+++.....+++",
"+++.....+++",
"+++.....+++",
"+++.....+++",
"+++.....+++",
"+++.....+++",
"+++.....+++",
"+++.....+++",
"+++.....+++",
"+++.....+++",
"+++.....+++",
"+++.....+++",
"+++.....+++",
"+++.....+++",
"+++.....+++",
"+++.....+++",
"+++.....+++",
"+++.....+++",
"+++.....+++",
"+++.....+++",
"+++.....+++",
"+++.....+++",
"+++.....+++",
"+........++",
"...........",
"...........",
"...........",
"...........",
"...........",
"...........",
"..........."};
