/* XPM */
static xpm_string_t one_small_xpm[] = {
"7 20 3 1",
" 	c None",
".	c #FFFFFF",
"+	c #00B140",
".....++",
".....++",
".....++",
"++...++",
"++...++",
"++...++",
"++...++",
"++...++",
"++...++",
"++...++",
"++...++",
"++...++",
"++...++",
"++...++",
"++...++",
"++...++",
".......",
".......",
".......",
"......."};
