/* XPM */
static xpm_string_t ten_big_xpm[] = {
"45 36 3 1",
" 	c None",
".	c #FFFFFF",
"+	c #00B140",
"........+++++++.............................+",
"........++++++...............................",
"........++++++...............................",
"........++++++...............................",
"........++++++.....++++++++++++++++++++......",
"+++.....++++++.....+++++++++++++++++++++.....",
"+++.....++++++.....+++++++++++++++++++++.....",
"+++.....++++++.....+++++++++++++++++++++.....",
"+++.....++++++.....+++++++++++++++++++++.....",
"+++.....++++++.....+++++++++++++++++++++.....",
"+++.....++++++.....+++++++++++++++++++++.....",
"+++.....++++++.....+++++++++++++++++++++.....",
"+++.....++++++.....+++++++++++++++++++++.....",
"+++.....++++++.....+++++++++++++++++++++.....",
"+++.....++++++.....+++++++++++++++++++++.....",
"+++.....++++++.....++++++++++++++++++++......",
"+++.....++++++.....++++++++++++++++++++......",
"+++.....++++++.....+++++++++++++++++++.......",
"+++.....++++++.....+++++++++++++++++++.......",
"+++.....++++++.....++++++++++++++++++........",
"+++.....++++++.....++++++++++++++++++........",
"+++.....++++++.....++++++++++++++++++........",
"+++.....++++++.....++++++++++++++++++........",
"+++.....++++++.....++++++++++++++++++........",
"+++.....++++++.....++++++++++++++++++........",
"+++.....++++++.....++++++++++++++++++........",
"+++.....++++++.....++++++++++++++++++........",
"+++.....++++++.....++++++++++++++++++........",
"+........+++++.....++++++++++++++++++........",
"...........+++.....++++++++++++++++++........",
"...........+++.....++++++++++++++++++........",
"...........+++.....+++++++++++++++++.........",
"...........+++...............................",
"...........+++...............................",
"...........+++...............................",
"...........++++.............................+"};
