/* XPM */
static xpm_string_t three_small_xpm[] = {
"17 20 3 1",
" 	c None",
".	c #FFFFFF",
"+	c #00B140",
"...............++",
"...............++",
"++++++++++++...++",
"+++++++++++++..++",
"+++++++++++++..++",
"+++++++++++++..++",
"+++++++++++++..++",
"+++++++++++++..++",
"................+",
".................",
".................",
"+++++++++++++....",
"+++++++++++++....",
"+++++++++++++....",
"+++++++++++++....",
"+++++++++++++....",
"+++++++++++++....",
".................",
".................",
"................."};
