/* XPM */
static xpm_string_t two_small_xpm[] = {
"18 20 3 1",
" 	c None",
".	c #FFFFFF",
"+	c #00B140",
".................+",
"..................",
"++++++++++++++....",
"+++++++++++++++...",
"+++++++++++++++...",
"+++++++++++++++...",
"+++++++++++++++...",
"+++++++++++++++...",
"..................",
".................+",
".................+",
"...+++++++++++++++",
"...+++++++++++++++",
"...+++++++++++++++",
"...+++++++++++++++",
"...+++++++++++++++",
"...+++++++++++++++",
"...+++++++++++++++",
"..................",
"+................."};
