/* XPM */
static xpm_string_t zero_big_xpm[] = {
"31 36 3 1",
" 	c None",
".	c #00B140",
"+	c #FFFFFF",
".+++++++++++++++++++++++++++++.",
"+++++++++++++++++++++++++++++++",
"+++++++++++++++++++++++++++++++",
"+++++++++++++++++++++++++++++++",
"+++++....................++++++",
"+++++.....................+++++",
"+++++.....................+++++",
"+++++.....................+++++",
"+++++.....................+++++",
"+++++.....................+++++",
"+++++.....................+++++",
"+++++.....................+++++",
"+++++.....................+++++",
"+++++.....................+++++",
"+++++.....................+++++",
"+++++....................++++++",
"+++++....................++++++",
"+++++...................+++++++",
"+++++...................+++++++",
"+++++..................++++++++",
"+++++..................++++++++",
"+++++..................++++++++",
"+++++..................++++++++",
"+++++..................++++++++",
"+++++..................++++++++",
"+++++..................++++++++",
"+++++..................++++++++",
"+++++..................++++++++",
"+++++..................++++++++",
"+++++..................++++++++",
"+++++..................++++++++",
"+++++.................+++++++++",
"+++++++++++++++++++++++++++++++",
"+++++++++++++++++++++++++++++++",
"+++++++++++++++++++++++++++++++",
".+++++++++++++++++++++++++++++."};
