/* XPM */
static xpm_string_t zero_small_xpm[] = {
"17 20 3 1",
" 	c None",
".	c #00B140",
"+	c #FFFFFF",
".+++++++++++++++.",
"+++++++++++++++++",
"+++...........+++",
"+++...........+++",
"+++...........+++",
"+++...........+++",
"+++...........+++",
"+++...........+++",
"+++...........+++",
"+++..........++++",
"+++..........++++",
"+++..........++++",
"+++..........++++",
"+++..........++++",
"+++..........++++",
"+++..........++++",
"+++..........++++",
"+++.........+++++",
"+++++++++++++++++",
".+++++++++++++++."};
